G04 MADE WITH FRITZING*
G04 WWW.FRITZING.ORG*
G04 DOUBLE SIDED*
G04 HOLES PLATED*
G04 CONTOUR ON CENTER OF CONTOUR VECTOR*
%ASAXBY*%
%FSLAX23Y23*%
%MOIN*%
%OFA0B0*%
%SFA1.0B1.0*%
%ADD10C,0.010000*%
%ADD11R,0.001000X0.001000*%
%LNSILK1*%
G90*
G70*
G54D10*
X1285Y409D02*
X1285Y1009D01*
D02*
X1285Y1009D02*
X1185Y1009D01*
D02*
X1185Y1009D02*
X1185Y409D01*
D02*
X1185Y409D02*
X1285Y409D01*
D02*
X485Y1009D02*
X485Y209D01*
D02*
X485Y209D02*
X885Y209D01*
D02*
X885Y209D02*
X885Y1009D01*
D02*
X485Y1009D02*
X635Y1009D01*
D02*
X735Y1009D02*
X885Y1009D01*
G54D11*
X0Y1703D02*
X1482Y1703D01*
X0Y1702D02*
X1482Y1702D01*
X0Y1701D02*
X1482Y1701D01*
X0Y1700D02*
X1482Y1700D01*
X0Y1699D02*
X1482Y1699D01*
X0Y1698D02*
X1482Y1698D01*
X0Y1697D02*
X1482Y1697D01*
X0Y1696D02*
X1482Y1696D01*
X0Y1695D02*
X7Y1695D01*
X1475Y1695D02*
X1482Y1695D01*
X0Y1694D02*
X7Y1694D01*
X1475Y1694D02*
X1482Y1694D01*
X0Y1693D02*
X7Y1693D01*
X1475Y1693D02*
X1482Y1693D01*
X0Y1692D02*
X7Y1692D01*
X1475Y1692D02*
X1482Y1692D01*
X0Y1691D02*
X7Y1691D01*
X1475Y1691D02*
X1482Y1691D01*
X0Y1690D02*
X7Y1690D01*
X1475Y1690D02*
X1482Y1690D01*
X0Y1689D02*
X7Y1689D01*
X1475Y1689D02*
X1482Y1689D01*
X0Y1688D02*
X7Y1688D01*
X1475Y1688D02*
X1482Y1688D01*
X0Y1687D02*
X7Y1687D01*
X1475Y1687D02*
X1482Y1687D01*
X0Y1686D02*
X7Y1686D01*
X1475Y1686D02*
X1482Y1686D01*
X0Y1685D02*
X7Y1685D01*
X1475Y1685D02*
X1482Y1685D01*
X0Y1684D02*
X7Y1684D01*
X1475Y1684D02*
X1482Y1684D01*
X0Y1683D02*
X7Y1683D01*
X1475Y1683D02*
X1482Y1683D01*
X0Y1682D02*
X7Y1682D01*
X1475Y1682D02*
X1482Y1682D01*
X0Y1681D02*
X7Y1681D01*
X1475Y1681D02*
X1482Y1681D01*
X0Y1680D02*
X7Y1680D01*
X1475Y1680D02*
X1482Y1680D01*
X0Y1679D02*
X7Y1679D01*
X1475Y1679D02*
X1482Y1679D01*
X0Y1678D02*
X7Y1678D01*
X1475Y1678D02*
X1482Y1678D01*
X0Y1677D02*
X7Y1677D01*
X1475Y1677D02*
X1482Y1677D01*
X0Y1676D02*
X7Y1676D01*
X1475Y1676D02*
X1482Y1676D01*
X0Y1675D02*
X7Y1675D01*
X1475Y1675D02*
X1482Y1675D01*
X0Y1674D02*
X7Y1674D01*
X1475Y1674D02*
X1482Y1674D01*
X0Y1673D02*
X7Y1673D01*
X1475Y1673D02*
X1482Y1673D01*
X0Y1672D02*
X7Y1672D01*
X1475Y1672D02*
X1482Y1672D01*
X0Y1671D02*
X7Y1671D01*
X1475Y1671D02*
X1482Y1671D01*
X0Y1670D02*
X7Y1670D01*
X1475Y1670D02*
X1482Y1670D01*
X0Y1669D02*
X7Y1669D01*
X1475Y1669D02*
X1482Y1669D01*
X0Y1668D02*
X7Y1668D01*
X1475Y1668D02*
X1482Y1668D01*
X0Y1667D02*
X7Y1667D01*
X1475Y1667D02*
X1482Y1667D01*
X0Y1666D02*
X7Y1666D01*
X1475Y1666D02*
X1482Y1666D01*
X0Y1665D02*
X7Y1665D01*
X1475Y1665D02*
X1482Y1665D01*
X0Y1664D02*
X7Y1664D01*
X1475Y1664D02*
X1482Y1664D01*
X0Y1663D02*
X7Y1663D01*
X1475Y1663D02*
X1482Y1663D01*
X0Y1662D02*
X7Y1662D01*
X1475Y1662D02*
X1482Y1662D01*
X0Y1661D02*
X7Y1661D01*
X1475Y1661D02*
X1482Y1661D01*
X0Y1660D02*
X7Y1660D01*
X1475Y1660D02*
X1482Y1660D01*
X0Y1659D02*
X7Y1659D01*
X1475Y1659D02*
X1482Y1659D01*
X0Y1658D02*
X7Y1658D01*
X1475Y1658D02*
X1482Y1658D01*
X0Y1657D02*
X7Y1657D01*
X1475Y1657D02*
X1482Y1657D01*
X0Y1656D02*
X7Y1656D01*
X1475Y1656D02*
X1482Y1656D01*
X0Y1655D02*
X7Y1655D01*
X1475Y1655D02*
X1482Y1655D01*
X0Y1654D02*
X7Y1654D01*
X1475Y1654D02*
X1482Y1654D01*
X0Y1653D02*
X7Y1653D01*
X1475Y1653D02*
X1482Y1653D01*
X0Y1652D02*
X7Y1652D01*
X1475Y1652D02*
X1482Y1652D01*
X0Y1651D02*
X7Y1651D01*
X1475Y1651D02*
X1482Y1651D01*
X0Y1650D02*
X7Y1650D01*
X1475Y1650D02*
X1482Y1650D01*
X0Y1649D02*
X7Y1649D01*
X1475Y1649D02*
X1482Y1649D01*
X0Y1648D02*
X7Y1648D01*
X1475Y1648D02*
X1482Y1648D01*
X0Y1647D02*
X7Y1647D01*
X1475Y1647D02*
X1482Y1647D01*
X0Y1646D02*
X7Y1646D01*
X1475Y1646D02*
X1482Y1646D01*
X0Y1645D02*
X7Y1645D01*
X1475Y1645D02*
X1482Y1645D01*
X0Y1644D02*
X7Y1644D01*
X1475Y1644D02*
X1482Y1644D01*
X0Y1643D02*
X7Y1643D01*
X1475Y1643D02*
X1482Y1643D01*
X0Y1642D02*
X7Y1642D01*
X1475Y1642D02*
X1482Y1642D01*
X0Y1641D02*
X7Y1641D01*
X1475Y1641D02*
X1482Y1641D01*
X0Y1640D02*
X7Y1640D01*
X1475Y1640D02*
X1482Y1640D01*
X0Y1639D02*
X7Y1639D01*
X1475Y1639D02*
X1482Y1639D01*
X0Y1638D02*
X7Y1638D01*
X1475Y1638D02*
X1482Y1638D01*
X0Y1637D02*
X7Y1637D01*
X1475Y1637D02*
X1482Y1637D01*
X0Y1636D02*
X7Y1636D01*
X1475Y1636D02*
X1482Y1636D01*
X0Y1635D02*
X7Y1635D01*
X1475Y1635D02*
X1482Y1635D01*
X0Y1634D02*
X7Y1634D01*
X1475Y1634D02*
X1482Y1634D01*
X0Y1633D02*
X7Y1633D01*
X1475Y1633D02*
X1482Y1633D01*
X0Y1632D02*
X7Y1632D01*
X1475Y1632D02*
X1482Y1632D01*
X0Y1631D02*
X7Y1631D01*
X1475Y1631D02*
X1482Y1631D01*
X0Y1630D02*
X7Y1630D01*
X1475Y1630D02*
X1482Y1630D01*
X0Y1629D02*
X7Y1629D01*
X1475Y1629D02*
X1482Y1629D01*
X0Y1628D02*
X7Y1628D01*
X1475Y1628D02*
X1482Y1628D01*
X0Y1627D02*
X7Y1627D01*
X1475Y1627D02*
X1482Y1627D01*
X0Y1626D02*
X7Y1626D01*
X1475Y1626D02*
X1482Y1626D01*
X0Y1625D02*
X7Y1625D01*
X1475Y1625D02*
X1482Y1625D01*
X0Y1624D02*
X7Y1624D01*
X1475Y1624D02*
X1482Y1624D01*
X0Y1623D02*
X7Y1623D01*
X1475Y1623D02*
X1482Y1623D01*
X0Y1622D02*
X7Y1622D01*
X1475Y1622D02*
X1482Y1622D01*
X0Y1621D02*
X7Y1621D01*
X1475Y1621D02*
X1482Y1621D01*
X0Y1620D02*
X7Y1620D01*
X1475Y1620D02*
X1482Y1620D01*
X0Y1619D02*
X7Y1619D01*
X1475Y1619D02*
X1482Y1619D01*
X0Y1618D02*
X7Y1618D01*
X1475Y1618D02*
X1482Y1618D01*
X0Y1617D02*
X7Y1617D01*
X262Y1617D02*
X274Y1617D01*
X964Y1617D02*
X975Y1617D01*
X1475Y1617D02*
X1482Y1617D01*
X0Y1616D02*
X7Y1616D01*
X260Y1616D02*
X276Y1616D01*
X962Y1616D02*
X977Y1616D01*
X1475Y1616D02*
X1482Y1616D01*
X0Y1615D02*
X7Y1615D01*
X259Y1615D02*
X276Y1615D01*
X666Y1615D02*
X674Y1615D01*
X866Y1615D02*
X874Y1615D01*
X961Y1615D02*
X978Y1615D01*
X1475Y1615D02*
X1482Y1615D01*
X0Y1614D02*
X7Y1614D01*
X259Y1614D02*
X277Y1614D01*
X662Y1614D02*
X677Y1614D01*
X862Y1614D02*
X877Y1614D01*
X960Y1614D02*
X979Y1614D01*
X1475Y1614D02*
X1482Y1614D01*
X0Y1613D02*
X7Y1613D01*
X258Y1613D02*
X277Y1613D01*
X661Y1613D02*
X678Y1613D01*
X861Y1613D02*
X878Y1613D01*
X960Y1613D02*
X979Y1613D01*
X1475Y1613D02*
X1482Y1613D01*
X0Y1612D02*
X7Y1612D01*
X258Y1612D02*
X277Y1612D01*
X661Y1612D02*
X679Y1612D01*
X861Y1612D02*
X879Y1612D01*
X960Y1612D02*
X979Y1612D01*
X1475Y1612D02*
X1482Y1612D01*
X0Y1611D02*
X7Y1611D01*
X258Y1611D02*
X277Y1611D01*
X661Y1611D02*
X679Y1611D01*
X860Y1611D02*
X879Y1611D01*
X960Y1611D02*
X979Y1611D01*
X1475Y1611D02*
X1482Y1611D01*
X0Y1610D02*
X7Y1610D01*
X258Y1610D02*
X277Y1610D01*
X660Y1610D02*
X679Y1610D01*
X860Y1610D02*
X879Y1610D01*
X960Y1610D02*
X979Y1610D01*
X1475Y1610D02*
X1482Y1610D01*
X0Y1609D02*
X7Y1609D01*
X258Y1609D02*
X277Y1609D01*
X660Y1609D02*
X679Y1609D01*
X860Y1609D02*
X879Y1609D01*
X960Y1609D02*
X979Y1609D01*
X1475Y1609D02*
X1482Y1609D01*
X0Y1608D02*
X7Y1608D01*
X258Y1608D02*
X277Y1608D01*
X660Y1608D02*
X679Y1608D01*
X860Y1608D02*
X879Y1608D01*
X960Y1608D02*
X979Y1608D01*
X1475Y1608D02*
X1482Y1608D01*
X0Y1607D02*
X7Y1607D01*
X258Y1607D02*
X277Y1607D01*
X660Y1607D02*
X679Y1607D01*
X860Y1607D02*
X879Y1607D01*
X960Y1607D02*
X979Y1607D01*
X1475Y1607D02*
X1482Y1607D01*
X0Y1606D02*
X7Y1606D01*
X258Y1606D02*
X277Y1606D01*
X660Y1606D02*
X679Y1606D01*
X860Y1606D02*
X879Y1606D01*
X960Y1606D02*
X979Y1606D01*
X1475Y1606D02*
X1482Y1606D01*
X0Y1605D02*
X7Y1605D01*
X258Y1605D02*
X277Y1605D01*
X660Y1605D02*
X679Y1605D01*
X860Y1605D02*
X879Y1605D01*
X960Y1605D02*
X979Y1605D01*
X1475Y1605D02*
X1482Y1605D01*
X0Y1604D02*
X7Y1604D01*
X258Y1604D02*
X277Y1604D01*
X660Y1604D02*
X679Y1604D01*
X860Y1604D02*
X879Y1604D01*
X960Y1604D02*
X979Y1604D01*
X1475Y1604D02*
X1482Y1604D01*
X0Y1603D02*
X7Y1603D01*
X258Y1603D02*
X277Y1603D01*
X660Y1603D02*
X679Y1603D01*
X860Y1603D02*
X879Y1603D01*
X960Y1603D02*
X979Y1603D01*
X1475Y1603D02*
X1482Y1603D01*
X0Y1602D02*
X7Y1602D01*
X259Y1602D02*
X277Y1602D01*
X660Y1602D02*
X679Y1602D01*
X860Y1602D02*
X879Y1602D01*
X960Y1602D02*
X979Y1602D01*
X1475Y1602D02*
X1482Y1602D01*
X0Y1601D02*
X7Y1601D01*
X259Y1601D02*
X277Y1601D01*
X660Y1601D02*
X679Y1601D01*
X860Y1601D02*
X879Y1601D01*
X961Y1601D02*
X978Y1601D01*
X1475Y1601D02*
X1482Y1601D01*
X0Y1600D02*
X7Y1600D01*
X260Y1600D02*
X276Y1600D01*
X661Y1600D02*
X679Y1600D01*
X860Y1600D02*
X879Y1600D01*
X962Y1600D02*
X977Y1600D01*
X1475Y1600D02*
X1482Y1600D01*
X0Y1599D02*
X7Y1599D01*
X262Y1599D02*
X274Y1599D01*
X661Y1599D02*
X679Y1599D01*
X861Y1599D02*
X879Y1599D01*
X963Y1599D02*
X976Y1599D01*
X1475Y1599D02*
X1482Y1599D01*
X0Y1598D02*
X7Y1598D01*
X662Y1598D02*
X678Y1598D01*
X862Y1598D02*
X878Y1598D01*
X1475Y1598D02*
X1482Y1598D01*
X0Y1597D02*
X7Y1597D01*
X663Y1597D02*
X677Y1597D01*
X863Y1597D02*
X876Y1597D01*
X1475Y1597D02*
X1482Y1597D01*
X0Y1596D02*
X7Y1596D01*
X1475Y1596D02*
X1482Y1596D01*
X0Y1595D02*
X7Y1595D01*
X1475Y1595D02*
X1482Y1595D01*
X0Y1594D02*
X7Y1594D01*
X1475Y1594D02*
X1482Y1594D01*
X0Y1593D02*
X7Y1593D01*
X1475Y1593D02*
X1482Y1593D01*
X0Y1592D02*
X7Y1592D01*
X1475Y1592D02*
X1482Y1592D01*
X0Y1591D02*
X7Y1591D01*
X1475Y1591D02*
X1482Y1591D01*
X0Y1590D02*
X7Y1590D01*
X1475Y1590D02*
X1482Y1590D01*
X0Y1589D02*
X7Y1589D01*
X1475Y1589D02*
X1482Y1589D01*
X0Y1588D02*
X7Y1588D01*
X1475Y1588D02*
X1482Y1588D01*
X0Y1587D02*
X7Y1587D01*
X1475Y1587D02*
X1482Y1587D01*
X0Y1586D02*
X7Y1586D01*
X1475Y1586D02*
X1482Y1586D01*
X0Y1585D02*
X7Y1585D01*
X1475Y1585D02*
X1482Y1585D01*
X0Y1584D02*
X7Y1584D01*
X1475Y1584D02*
X1482Y1584D01*
X0Y1583D02*
X7Y1583D01*
X1475Y1583D02*
X1482Y1583D01*
X0Y1582D02*
X7Y1582D01*
X1475Y1582D02*
X1482Y1582D01*
X0Y1581D02*
X7Y1581D01*
X1475Y1581D02*
X1482Y1581D01*
X0Y1580D02*
X7Y1580D01*
X1475Y1580D02*
X1482Y1580D01*
X0Y1579D02*
X7Y1579D01*
X1475Y1579D02*
X1482Y1579D01*
X0Y1578D02*
X7Y1578D01*
X1475Y1578D02*
X1482Y1578D01*
X0Y1577D02*
X7Y1577D01*
X1475Y1577D02*
X1482Y1577D01*
X0Y1576D02*
X7Y1576D01*
X1475Y1576D02*
X1482Y1576D01*
X0Y1575D02*
X7Y1575D01*
X1475Y1575D02*
X1482Y1575D01*
X0Y1574D02*
X7Y1574D01*
X1475Y1574D02*
X1482Y1574D01*
X0Y1573D02*
X7Y1573D01*
X1475Y1573D02*
X1482Y1573D01*
X0Y1572D02*
X7Y1572D01*
X1475Y1572D02*
X1482Y1572D01*
X0Y1571D02*
X7Y1571D01*
X1475Y1571D02*
X1482Y1571D01*
X0Y1570D02*
X7Y1570D01*
X1475Y1570D02*
X1482Y1570D01*
X0Y1569D02*
X7Y1569D01*
X1475Y1569D02*
X1482Y1569D01*
X0Y1568D02*
X7Y1568D01*
X1475Y1568D02*
X1482Y1568D01*
X0Y1567D02*
X7Y1567D01*
X1475Y1567D02*
X1482Y1567D01*
X0Y1566D02*
X7Y1566D01*
X1475Y1566D02*
X1482Y1566D01*
X0Y1565D02*
X7Y1565D01*
X1475Y1565D02*
X1482Y1565D01*
X0Y1564D02*
X7Y1564D01*
X1475Y1564D02*
X1482Y1564D01*
X0Y1563D02*
X7Y1563D01*
X1475Y1563D02*
X1482Y1563D01*
X0Y1562D02*
X7Y1562D01*
X1475Y1562D02*
X1482Y1562D01*
X0Y1561D02*
X7Y1561D01*
X1475Y1561D02*
X1482Y1561D01*
X0Y1560D02*
X7Y1560D01*
X1475Y1560D02*
X1482Y1560D01*
X0Y1559D02*
X7Y1559D01*
X1475Y1559D02*
X1482Y1559D01*
X0Y1558D02*
X7Y1558D01*
X1475Y1558D02*
X1482Y1558D01*
X0Y1557D02*
X7Y1557D01*
X1475Y1557D02*
X1482Y1557D01*
X0Y1556D02*
X7Y1556D01*
X1475Y1556D02*
X1482Y1556D01*
X0Y1555D02*
X7Y1555D01*
X1475Y1555D02*
X1482Y1555D01*
X0Y1554D02*
X7Y1554D01*
X1475Y1554D02*
X1482Y1554D01*
X0Y1553D02*
X7Y1553D01*
X1475Y1553D02*
X1482Y1553D01*
X0Y1552D02*
X7Y1552D01*
X1475Y1552D02*
X1482Y1552D01*
X0Y1551D02*
X7Y1551D01*
X1475Y1551D02*
X1482Y1551D01*
X0Y1550D02*
X7Y1550D01*
X1475Y1550D02*
X1482Y1550D01*
X0Y1549D02*
X7Y1549D01*
X1475Y1549D02*
X1482Y1549D01*
X0Y1548D02*
X7Y1548D01*
X1475Y1548D02*
X1482Y1548D01*
X0Y1547D02*
X7Y1547D01*
X1475Y1547D02*
X1482Y1547D01*
X0Y1546D02*
X7Y1546D01*
X1475Y1546D02*
X1482Y1546D01*
X0Y1545D02*
X7Y1545D01*
X1475Y1545D02*
X1482Y1545D01*
X0Y1544D02*
X7Y1544D01*
X1475Y1544D02*
X1482Y1544D01*
X0Y1543D02*
X7Y1543D01*
X1475Y1543D02*
X1482Y1543D01*
X0Y1542D02*
X7Y1542D01*
X1475Y1542D02*
X1482Y1542D01*
X0Y1541D02*
X7Y1541D01*
X1475Y1541D02*
X1482Y1541D01*
X0Y1540D02*
X7Y1540D01*
X1475Y1540D02*
X1482Y1540D01*
X0Y1539D02*
X7Y1539D01*
X1475Y1539D02*
X1482Y1539D01*
X0Y1538D02*
X7Y1538D01*
X1475Y1538D02*
X1482Y1538D01*
X0Y1537D02*
X7Y1537D01*
X1475Y1537D02*
X1482Y1537D01*
X0Y1536D02*
X7Y1536D01*
X1475Y1536D02*
X1482Y1536D01*
X0Y1535D02*
X7Y1535D01*
X1475Y1535D02*
X1482Y1535D01*
X0Y1534D02*
X7Y1534D01*
X1475Y1534D02*
X1482Y1534D01*
X0Y1533D02*
X7Y1533D01*
X1475Y1533D02*
X1482Y1533D01*
X0Y1532D02*
X7Y1532D01*
X1475Y1532D02*
X1482Y1532D01*
X0Y1531D02*
X7Y1531D01*
X1475Y1531D02*
X1482Y1531D01*
X0Y1530D02*
X7Y1530D01*
X1475Y1530D02*
X1482Y1530D01*
X0Y1529D02*
X7Y1529D01*
X1475Y1529D02*
X1482Y1529D01*
X0Y1528D02*
X7Y1528D01*
X1475Y1528D02*
X1482Y1528D01*
X0Y1527D02*
X7Y1527D01*
X1475Y1527D02*
X1482Y1527D01*
X0Y1526D02*
X7Y1526D01*
X1475Y1526D02*
X1482Y1526D01*
X0Y1525D02*
X7Y1525D01*
X1475Y1525D02*
X1482Y1525D01*
X0Y1524D02*
X7Y1524D01*
X1475Y1524D02*
X1482Y1524D01*
X0Y1523D02*
X7Y1523D01*
X1475Y1523D02*
X1482Y1523D01*
X0Y1522D02*
X7Y1522D01*
X1475Y1522D02*
X1482Y1522D01*
X0Y1521D02*
X7Y1521D01*
X1475Y1521D02*
X1482Y1521D01*
X0Y1520D02*
X7Y1520D01*
X1475Y1520D02*
X1482Y1520D01*
X0Y1519D02*
X7Y1519D01*
X1475Y1519D02*
X1482Y1519D01*
X0Y1518D02*
X7Y1518D01*
X1475Y1518D02*
X1482Y1518D01*
X0Y1517D02*
X7Y1517D01*
X1475Y1517D02*
X1482Y1517D01*
X0Y1516D02*
X7Y1516D01*
X1475Y1516D02*
X1482Y1516D01*
X0Y1515D02*
X7Y1515D01*
X1475Y1515D02*
X1482Y1515D01*
X0Y1514D02*
X7Y1514D01*
X1475Y1514D02*
X1482Y1514D01*
X0Y1513D02*
X7Y1513D01*
X1475Y1513D02*
X1482Y1513D01*
X0Y1512D02*
X7Y1512D01*
X1475Y1512D02*
X1482Y1512D01*
X0Y1511D02*
X7Y1511D01*
X1475Y1511D02*
X1482Y1511D01*
X0Y1510D02*
X7Y1510D01*
X1475Y1510D02*
X1482Y1510D01*
X0Y1509D02*
X7Y1509D01*
X1475Y1509D02*
X1482Y1509D01*
X0Y1508D02*
X7Y1508D01*
X1475Y1508D02*
X1482Y1508D01*
X0Y1507D02*
X7Y1507D01*
X1475Y1507D02*
X1482Y1507D01*
X0Y1506D02*
X7Y1506D01*
X1475Y1506D02*
X1482Y1506D01*
X0Y1505D02*
X7Y1505D01*
X1475Y1505D02*
X1482Y1505D01*
X0Y1504D02*
X7Y1504D01*
X1475Y1504D02*
X1482Y1504D01*
X0Y1503D02*
X7Y1503D01*
X1475Y1503D02*
X1482Y1503D01*
X0Y1502D02*
X7Y1502D01*
X1475Y1502D02*
X1482Y1502D01*
X0Y1501D02*
X7Y1501D01*
X1475Y1501D02*
X1482Y1501D01*
X0Y1500D02*
X7Y1500D01*
X1475Y1500D02*
X1482Y1500D01*
X0Y1499D02*
X7Y1499D01*
X1475Y1499D02*
X1482Y1499D01*
X0Y1498D02*
X7Y1498D01*
X1475Y1498D02*
X1482Y1498D01*
X0Y1497D02*
X7Y1497D01*
X1475Y1497D02*
X1482Y1497D01*
X0Y1496D02*
X7Y1496D01*
X1475Y1496D02*
X1482Y1496D01*
X0Y1495D02*
X7Y1495D01*
X1475Y1495D02*
X1482Y1495D01*
X0Y1494D02*
X7Y1494D01*
X1475Y1494D02*
X1482Y1494D01*
X0Y1493D02*
X7Y1493D01*
X1475Y1493D02*
X1482Y1493D01*
X0Y1492D02*
X7Y1492D01*
X1475Y1492D02*
X1482Y1492D01*
X0Y1491D02*
X7Y1491D01*
X1475Y1491D02*
X1482Y1491D01*
X0Y1490D02*
X7Y1490D01*
X1475Y1490D02*
X1482Y1490D01*
X0Y1489D02*
X7Y1489D01*
X1475Y1489D02*
X1482Y1489D01*
X0Y1488D02*
X7Y1488D01*
X1475Y1488D02*
X1482Y1488D01*
X0Y1487D02*
X7Y1487D01*
X1475Y1487D02*
X1482Y1487D01*
X0Y1486D02*
X7Y1486D01*
X1475Y1486D02*
X1482Y1486D01*
X0Y1485D02*
X7Y1485D01*
X1475Y1485D02*
X1482Y1485D01*
X0Y1484D02*
X7Y1484D01*
X1475Y1484D02*
X1482Y1484D01*
X0Y1483D02*
X7Y1483D01*
X1475Y1483D02*
X1482Y1483D01*
X0Y1482D02*
X7Y1482D01*
X1475Y1482D02*
X1482Y1482D01*
X0Y1481D02*
X7Y1481D01*
X1475Y1481D02*
X1482Y1481D01*
X0Y1480D02*
X7Y1480D01*
X1475Y1480D02*
X1482Y1480D01*
X0Y1479D02*
X7Y1479D01*
X1475Y1479D02*
X1482Y1479D01*
X0Y1478D02*
X7Y1478D01*
X1475Y1478D02*
X1482Y1478D01*
X0Y1477D02*
X7Y1477D01*
X1475Y1477D02*
X1482Y1477D01*
X0Y1476D02*
X7Y1476D01*
X1475Y1476D02*
X1482Y1476D01*
X0Y1475D02*
X7Y1475D01*
X1475Y1475D02*
X1482Y1475D01*
X0Y1474D02*
X7Y1474D01*
X1475Y1474D02*
X1482Y1474D01*
X0Y1473D02*
X7Y1473D01*
X1475Y1473D02*
X1482Y1473D01*
X0Y1472D02*
X7Y1472D01*
X1475Y1472D02*
X1482Y1472D01*
X0Y1471D02*
X7Y1471D01*
X1475Y1471D02*
X1482Y1471D01*
X0Y1470D02*
X7Y1470D01*
X1475Y1470D02*
X1482Y1470D01*
X0Y1469D02*
X7Y1469D01*
X1475Y1469D02*
X1482Y1469D01*
X0Y1468D02*
X7Y1468D01*
X1475Y1468D02*
X1482Y1468D01*
X0Y1467D02*
X7Y1467D01*
X1475Y1467D02*
X1482Y1467D01*
X0Y1466D02*
X7Y1466D01*
X1475Y1466D02*
X1482Y1466D01*
X0Y1465D02*
X7Y1465D01*
X1475Y1465D02*
X1482Y1465D01*
X0Y1464D02*
X7Y1464D01*
X1475Y1464D02*
X1482Y1464D01*
X0Y1463D02*
X7Y1463D01*
X1475Y1463D02*
X1482Y1463D01*
X0Y1462D02*
X7Y1462D01*
X1475Y1462D02*
X1482Y1462D01*
X0Y1461D02*
X7Y1461D01*
X1475Y1461D02*
X1482Y1461D01*
X0Y1460D02*
X7Y1460D01*
X1475Y1460D02*
X1482Y1460D01*
X0Y1459D02*
X7Y1459D01*
X1475Y1459D02*
X1482Y1459D01*
X0Y1458D02*
X7Y1458D01*
X1475Y1458D02*
X1482Y1458D01*
X0Y1457D02*
X7Y1457D01*
X1475Y1457D02*
X1482Y1457D01*
X0Y1456D02*
X7Y1456D01*
X1475Y1456D02*
X1482Y1456D01*
X0Y1455D02*
X7Y1455D01*
X1475Y1455D02*
X1482Y1455D01*
X0Y1454D02*
X7Y1454D01*
X1475Y1454D02*
X1482Y1454D01*
X0Y1453D02*
X7Y1453D01*
X1475Y1453D02*
X1482Y1453D01*
X0Y1452D02*
X7Y1452D01*
X1475Y1452D02*
X1482Y1452D01*
X0Y1451D02*
X7Y1451D01*
X1475Y1451D02*
X1482Y1451D01*
X0Y1450D02*
X7Y1450D01*
X1475Y1450D02*
X1482Y1450D01*
X0Y1449D02*
X7Y1449D01*
X1475Y1449D02*
X1482Y1449D01*
X0Y1448D02*
X7Y1448D01*
X1475Y1448D02*
X1482Y1448D01*
X0Y1447D02*
X7Y1447D01*
X1475Y1447D02*
X1482Y1447D01*
X0Y1446D02*
X7Y1446D01*
X1475Y1446D02*
X1482Y1446D01*
X0Y1445D02*
X7Y1445D01*
X1475Y1445D02*
X1482Y1445D01*
X0Y1444D02*
X7Y1444D01*
X1475Y1444D02*
X1482Y1444D01*
X0Y1443D02*
X7Y1443D01*
X1475Y1443D02*
X1482Y1443D01*
X0Y1442D02*
X7Y1442D01*
X1475Y1442D02*
X1482Y1442D01*
X0Y1441D02*
X7Y1441D01*
X1475Y1441D02*
X1482Y1441D01*
X0Y1440D02*
X7Y1440D01*
X1475Y1440D02*
X1482Y1440D01*
X0Y1439D02*
X7Y1439D01*
X1475Y1439D02*
X1482Y1439D01*
X0Y1438D02*
X7Y1438D01*
X1475Y1438D02*
X1482Y1438D01*
X0Y1437D02*
X7Y1437D01*
X1475Y1437D02*
X1482Y1437D01*
X0Y1436D02*
X7Y1436D01*
X1475Y1436D02*
X1482Y1436D01*
X0Y1435D02*
X7Y1435D01*
X1475Y1435D02*
X1482Y1435D01*
X0Y1434D02*
X7Y1434D01*
X1475Y1434D02*
X1482Y1434D01*
X0Y1433D02*
X7Y1433D01*
X1475Y1433D02*
X1482Y1433D01*
X0Y1432D02*
X7Y1432D01*
X1475Y1432D02*
X1482Y1432D01*
X0Y1431D02*
X7Y1431D01*
X1475Y1431D02*
X1482Y1431D01*
X0Y1430D02*
X7Y1430D01*
X1475Y1430D02*
X1482Y1430D01*
X0Y1429D02*
X7Y1429D01*
X1475Y1429D02*
X1482Y1429D01*
X0Y1428D02*
X7Y1428D01*
X1475Y1428D02*
X1482Y1428D01*
X0Y1427D02*
X7Y1427D01*
X1475Y1427D02*
X1482Y1427D01*
X0Y1426D02*
X7Y1426D01*
X664Y1426D02*
X675Y1426D01*
X1475Y1426D02*
X1482Y1426D01*
X0Y1425D02*
X7Y1425D01*
X662Y1425D02*
X677Y1425D01*
X1475Y1425D02*
X1482Y1425D01*
X0Y1424D02*
X7Y1424D01*
X661Y1424D02*
X678Y1424D01*
X1475Y1424D02*
X1482Y1424D01*
X0Y1423D02*
X7Y1423D01*
X565Y1423D02*
X579Y1423D01*
X661Y1423D02*
X679Y1423D01*
X1475Y1423D02*
X1482Y1423D01*
X0Y1422D02*
X7Y1422D01*
X564Y1422D02*
X581Y1422D01*
X660Y1422D02*
X679Y1422D01*
X1475Y1422D02*
X1482Y1422D01*
X0Y1421D02*
X7Y1421D01*
X462Y1421D02*
X476Y1421D01*
X563Y1421D02*
X581Y1421D01*
X660Y1421D02*
X679Y1421D01*
X1475Y1421D02*
X1482Y1421D01*
X0Y1420D02*
X7Y1420D01*
X461Y1420D02*
X477Y1420D01*
X563Y1420D02*
X581Y1420D01*
X660Y1420D02*
X679Y1420D01*
X1475Y1420D02*
X1482Y1420D01*
X0Y1419D02*
X7Y1419D01*
X460Y1419D02*
X478Y1419D01*
X563Y1419D02*
X582Y1419D01*
X660Y1419D02*
X679Y1419D01*
X1475Y1419D02*
X1482Y1419D01*
X0Y1418D02*
X7Y1418D01*
X460Y1418D02*
X478Y1418D01*
X563Y1418D02*
X582Y1418D01*
X660Y1418D02*
X679Y1418D01*
X1475Y1418D02*
X1482Y1418D01*
X0Y1417D02*
X7Y1417D01*
X131Y1417D02*
X133Y1417D01*
X459Y1417D02*
X478Y1417D01*
X563Y1417D02*
X582Y1417D01*
X660Y1417D02*
X679Y1417D01*
X1475Y1417D02*
X1482Y1417D01*
X0Y1416D02*
X7Y1416D01*
X131Y1416D02*
X136Y1416D01*
X459Y1416D02*
X478Y1416D01*
X563Y1416D02*
X582Y1416D01*
X660Y1416D02*
X679Y1416D01*
X1475Y1416D02*
X1482Y1416D01*
X0Y1415D02*
X7Y1415D01*
X130Y1415D02*
X136Y1415D01*
X459Y1415D02*
X478Y1415D01*
X563Y1415D02*
X582Y1415D01*
X660Y1415D02*
X679Y1415D01*
X1475Y1415D02*
X1482Y1415D01*
X0Y1414D02*
X7Y1414D01*
X130Y1414D02*
X137Y1414D01*
X459Y1414D02*
X478Y1414D01*
X563Y1414D02*
X582Y1414D01*
X660Y1414D02*
X679Y1414D01*
X1475Y1414D02*
X1482Y1414D01*
X0Y1413D02*
X7Y1413D01*
X129Y1413D02*
X137Y1413D01*
X459Y1413D02*
X478Y1413D01*
X563Y1413D02*
X582Y1413D01*
X660Y1413D02*
X679Y1413D01*
X1475Y1413D02*
X1482Y1413D01*
X0Y1412D02*
X7Y1412D01*
X129Y1412D02*
X138Y1412D01*
X459Y1412D02*
X478Y1412D01*
X563Y1412D02*
X582Y1412D01*
X660Y1412D02*
X679Y1412D01*
X1475Y1412D02*
X1482Y1412D01*
X0Y1411D02*
X7Y1411D01*
X128Y1411D02*
X138Y1411D01*
X459Y1411D02*
X478Y1411D01*
X563Y1411D02*
X582Y1411D01*
X661Y1411D02*
X679Y1411D01*
X1475Y1411D02*
X1482Y1411D01*
X0Y1410D02*
X7Y1410D01*
X128Y1410D02*
X139Y1410D01*
X459Y1410D02*
X478Y1410D01*
X563Y1410D02*
X582Y1410D01*
X661Y1410D02*
X679Y1410D01*
X1475Y1410D02*
X1482Y1410D01*
X0Y1409D02*
X7Y1409D01*
X127Y1409D02*
X139Y1409D01*
X459Y1409D02*
X478Y1409D01*
X563Y1409D02*
X581Y1409D01*
X662Y1409D02*
X678Y1409D01*
X1475Y1409D02*
X1482Y1409D01*
X0Y1408D02*
X7Y1408D01*
X127Y1408D02*
X140Y1408D01*
X459Y1408D02*
X478Y1408D01*
X563Y1408D02*
X581Y1408D01*
X663Y1408D02*
X676Y1408D01*
X1475Y1408D02*
X1482Y1408D01*
X0Y1407D02*
X7Y1407D01*
X126Y1407D02*
X140Y1407D01*
X460Y1407D02*
X478Y1407D01*
X564Y1407D02*
X580Y1407D01*
X1475Y1407D02*
X1482Y1407D01*
X0Y1406D02*
X7Y1406D01*
X126Y1406D02*
X141Y1406D01*
X460Y1406D02*
X478Y1406D01*
X565Y1406D02*
X579Y1406D01*
X1475Y1406D02*
X1482Y1406D01*
X0Y1405D02*
X7Y1405D01*
X125Y1405D02*
X132Y1405D01*
X134Y1405D02*
X141Y1405D01*
X461Y1405D02*
X477Y1405D01*
X1475Y1405D02*
X1482Y1405D01*
X0Y1404D02*
X7Y1404D01*
X125Y1404D02*
X132Y1404D01*
X135Y1404D02*
X142Y1404D01*
X462Y1404D02*
X476Y1404D01*
X1475Y1404D02*
X1482Y1404D01*
X0Y1403D02*
X7Y1403D01*
X124Y1403D02*
X131Y1403D01*
X135Y1403D02*
X142Y1403D01*
X1475Y1403D02*
X1482Y1403D01*
X0Y1402D02*
X7Y1402D01*
X124Y1402D02*
X131Y1402D01*
X136Y1402D02*
X143Y1402D01*
X1475Y1402D02*
X1482Y1402D01*
X0Y1401D02*
X7Y1401D01*
X123Y1401D02*
X130Y1401D01*
X136Y1401D02*
X143Y1401D01*
X1475Y1401D02*
X1482Y1401D01*
X0Y1400D02*
X7Y1400D01*
X123Y1400D02*
X130Y1400D01*
X137Y1400D02*
X144Y1400D01*
X1475Y1400D02*
X1482Y1400D01*
X0Y1399D02*
X7Y1399D01*
X122Y1399D02*
X129Y1399D01*
X137Y1399D02*
X144Y1399D01*
X1475Y1399D02*
X1482Y1399D01*
X0Y1398D02*
X7Y1398D01*
X122Y1398D02*
X129Y1398D01*
X138Y1398D02*
X145Y1398D01*
X1475Y1398D02*
X1482Y1398D01*
X0Y1397D02*
X7Y1397D01*
X121Y1397D02*
X128Y1397D01*
X138Y1397D02*
X145Y1397D01*
X1475Y1397D02*
X1482Y1397D01*
X0Y1396D02*
X7Y1396D01*
X121Y1396D02*
X128Y1396D01*
X139Y1396D02*
X146Y1396D01*
X1475Y1396D02*
X1482Y1396D01*
X0Y1395D02*
X7Y1395D01*
X120Y1395D02*
X127Y1395D01*
X139Y1395D02*
X146Y1395D01*
X1475Y1395D02*
X1482Y1395D01*
X0Y1394D02*
X7Y1394D01*
X120Y1394D02*
X127Y1394D01*
X140Y1394D02*
X147Y1394D01*
X1475Y1394D02*
X1482Y1394D01*
X0Y1393D02*
X7Y1393D01*
X119Y1393D02*
X126Y1393D01*
X140Y1393D02*
X147Y1393D01*
X1475Y1393D02*
X1482Y1393D01*
X0Y1392D02*
X7Y1392D01*
X119Y1392D02*
X126Y1392D01*
X141Y1392D02*
X148Y1392D01*
X1475Y1392D02*
X1482Y1392D01*
X0Y1391D02*
X7Y1391D01*
X118Y1391D02*
X125Y1391D01*
X141Y1391D02*
X148Y1391D01*
X1475Y1391D02*
X1482Y1391D01*
X0Y1390D02*
X7Y1390D01*
X118Y1390D02*
X125Y1390D01*
X142Y1390D02*
X149Y1390D01*
X1475Y1390D02*
X1482Y1390D01*
X0Y1389D02*
X7Y1389D01*
X117Y1389D02*
X124Y1389D01*
X142Y1389D02*
X149Y1389D01*
X1475Y1389D02*
X1482Y1389D01*
X0Y1388D02*
X7Y1388D01*
X117Y1388D02*
X124Y1388D01*
X143Y1388D02*
X150Y1388D01*
X1475Y1388D02*
X1482Y1388D01*
X0Y1387D02*
X7Y1387D01*
X116Y1387D02*
X123Y1387D01*
X143Y1387D02*
X150Y1387D01*
X1475Y1387D02*
X1482Y1387D01*
X0Y1386D02*
X7Y1386D01*
X116Y1386D02*
X123Y1386D01*
X144Y1386D02*
X151Y1386D01*
X1475Y1386D02*
X1482Y1386D01*
X0Y1385D02*
X7Y1385D01*
X115Y1385D02*
X122Y1385D01*
X144Y1385D02*
X151Y1385D01*
X1475Y1385D02*
X1482Y1385D01*
X0Y1384D02*
X7Y1384D01*
X115Y1384D02*
X122Y1384D01*
X145Y1384D02*
X152Y1384D01*
X1475Y1384D02*
X1482Y1384D01*
X0Y1383D02*
X7Y1383D01*
X114Y1383D02*
X121Y1383D01*
X145Y1383D02*
X152Y1383D01*
X1475Y1383D02*
X1482Y1383D01*
X0Y1382D02*
X7Y1382D01*
X114Y1382D02*
X121Y1382D01*
X146Y1382D02*
X153Y1382D01*
X1475Y1382D02*
X1482Y1382D01*
X0Y1381D02*
X7Y1381D01*
X113Y1381D02*
X120Y1381D01*
X146Y1381D02*
X153Y1381D01*
X1475Y1381D02*
X1482Y1381D01*
X0Y1380D02*
X7Y1380D01*
X113Y1380D02*
X120Y1380D01*
X147Y1380D02*
X154Y1380D01*
X1475Y1380D02*
X1482Y1380D01*
X0Y1379D02*
X7Y1379D01*
X112Y1379D02*
X119Y1379D01*
X147Y1379D02*
X154Y1379D01*
X1475Y1379D02*
X1482Y1379D01*
X0Y1378D02*
X7Y1378D01*
X112Y1378D02*
X119Y1378D01*
X148Y1378D02*
X155Y1378D01*
X1475Y1378D02*
X1482Y1378D01*
X0Y1377D02*
X7Y1377D01*
X111Y1377D02*
X118Y1377D01*
X148Y1377D02*
X155Y1377D01*
X1475Y1377D02*
X1482Y1377D01*
X0Y1376D02*
X7Y1376D01*
X111Y1376D02*
X118Y1376D01*
X149Y1376D02*
X156Y1376D01*
X1475Y1376D02*
X1482Y1376D01*
X0Y1375D02*
X7Y1375D01*
X110Y1375D02*
X117Y1375D01*
X149Y1375D02*
X156Y1375D01*
X1475Y1375D02*
X1482Y1375D01*
X0Y1374D02*
X7Y1374D01*
X110Y1374D02*
X117Y1374D01*
X150Y1374D02*
X157Y1374D01*
X1475Y1374D02*
X1482Y1374D01*
X0Y1373D02*
X7Y1373D01*
X109Y1373D02*
X116Y1373D01*
X150Y1373D02*
X157Y1373D01*
X1475Y1373D02*
X1482Y1373D01*
X0Y1372D02*
X7Y1372D01*
X109Y1372D02*
X116Y1372D01*
X151Y1372D02*
X158Y1372D01*
X1475Y1372D02*
X1482Y1372D01*
X0Y1371D02*
X7Y1371D01*
X108Y1371D02*
X115Y1371D01*
X151Y1371D02*
X158Y1371D01*
X1475Y1371D02*
X1482Y1371D01*
X0Y1370D02*
X7Y1370D01*
X108Y1370D02*
X115Y1370D01*
X152Y1370D02*
X159Y1370D01*
X1475Y1370D02*
X1482Y1370D01*
X0Y1369D02*
X7Y1369D01*
X1475Y1369D02*
X1482Y1369D01*
X0Y1368D02*
X7Y1368D01*
X1475Y1368D02*
X1482Y1368D01*
X0Y1367D02*
X7Y1367D01*
X1475Y1367D02*
X1482Y1367D01*
X0Y1366D02*
X7Y1366D01*
X1475Y1366D02*
X1482Y1366D01*
X0Y1365D02*
X7Y1365D01*
X1475Y1365D02*
X1482Y1365D01*
X0Y1364D02*
X7Y1364D01*
X1475Y1364D02*
X1482Y1364D01*
X0Y1363D02*
X7Y1363D01*
X1475Y1363D02*
X1482Y1363D01*
X0Y1362D02*
X7Y1362D01*
X1475Y1362D02*
X1482Y1362D01*
X0Y1361D02*
X7Y1361D01*
X1475Y1361D02*
X1482Y1361D01*
X0Y1360D02*
X7Y1360D01*
X1475Y1360D02*
X1482Y1360D01*
X0Y1359D02*
X7Y1359D01*
X1475Y1359D02*
X1482Y1359D01*
X0Y1358D02*
X7Y1358D01*
X1475Y1358D02*
X1482Y1358D01*
X0Y1357D02*
X7Y1357D01*
X1475Y1357D02*
X1482Y1357D01*
X0Y1356D02*
X7Y1356D01*
X1475Y1356D02*
X1482Y1356D01*
X0Y1355D02*
X7Y1355D01*
X1475Y1355D02*
X1482Y1355D01*
X0Y1354D02*
X7Y1354D01*
X1475Y1354D02*
X1482Y1354D01*
X0Y1353D02*
X7Y1353D01*
X1475Y1353D02*
X1482Y1353D01*
X0Y1352D02*
X7Y1352D01*
X1475Y1352D02*
X1482Y1352D01*
X0Y1351D02*
X7Y1351D01*
X1475Y1351D02*
X1482Y1351D01*
X0Y1350D02*
X7Y1350D01*
X1475Y1350D02*
X1482Y1350D01*
X0Y1349D02*
X7Y1349D01*
X1475Y1349D02*
X1482Y1349D01*
X0Y1348D02*
X7Y1348D01*
X1475Y1348D02*
X1482Y1348D01*
X0Y1347D02*
X7Y1347D01*
X1475Y1347D02*
X1482Y1347D01*
X0Y1346D02*
X7Y1346D01*
X1475Y1346D02*
X1482Y1346D01*
X0Y1345D02*
X7Y1345D01*
X1475Y1345D02*
X1482Y1345D01*
X0Y1344D02*
X7Y1344D01*
X1475Y1344D02*
X1482Y1344D01*
X0Y1343D02*
X7Y1343D01*
X1475Y1343D02*
X1482Y1343D01*
X0Y1342D02*
X7Y1342D01*
X1475Y1342D02*
X1482Y1342D01*
X0Y1341D02*
X7Y1341D01*
X1475Y1341D02*
X1482Y1341D01*
X0Y1340D02*
X7Y1340D01*
X1475Y1340D02*
X1482Y1340D01*
X0Y1339D02*
X7Y1339D01*
X1475Y1339D02*
X1482Y1339D01*
X0Y1338D02*
X7Y1338D01*
X1475Y1338D02*
X1482Y1338D01*
X0Y1337D02*
X7Y1337D01*
X1475Y1337D02*
X1482Y1337D01*
X0Y1336D02*
X7Y1336D01*
X1475Y1336D02*
X1482Y1336D01*
X0Y1335D02*
X7Y1335D01*
X1475Y1335D02*
X1482Y1335D01*
X0Y1334D02*
X7Y1334D01*
X1475Y1334D02*
X1482Y1334D01*
X0Y1333D02*
X7Y1333D01*
X1475Y1333D02*
X1482Y1333D01*
X0Y1332D02*
X7Y1332D01*
X1475Y1332D02*
X1482Y1332D01*
X0Y1331D02*
X7Y1331D01*
X1475Y1331D02*
X1482Y1331D01*
X0Y1330D02*
X7Y1330D01*
X1475Y1330D02*
X1482Y1330D01*
X0Y1329D02*
X7Y1329D01*
X1475Y1329D02*
X1482Y1329D01*
X0Y1328D02*
X7Y1328D01*
X1475Y1328D02*
X1482Y1328D01*
X0Y1327D02*
X7Y1327D01*
X1475Y1327D02*
X1482Y1327D01*
X0Y1326D02*
X7Y1326D01*
X1475Y1326D02*
X1482Y1326D01*
X0Y1325D02*
X7Y1325D01*
X1475Y1325D02*
X1482Y1325D01*
X0Y1324D02*
X7Y1324D01*
X1475Y1324D02*
X1482Y1324D01*
X0Y1323D02*
X7Y1323D01*
X1475Y1323D02*
X1482Y1323D01*
X0Y1322D02*
X7Y1322D01*
X1475Y1322D02*
X1482Y1322D01*
X0Y1321D02*
X7Y1321D01*
X1475Y1321D02*
X1482Y1321D01*
X0Y1320D02*
X7Y1320D01*
X1475Y1320D02*
X1482Y1320D01*
X0Y1319D02*
X7Y1319D01*
X1475Y1319D02*
X1482Y1319D01*
X0Y1318D02*
X7Y1318D01*
X1475Y1318D02*
X1482Y1318D01*
X0Y1317D02*
X7Y1317D01*
X1475Y1317D02*
X1482Y1317D01*
X0Y1316D02*
X7Y1316D01*
X1475Y1316D02*
X1482Y1316D01*
X0Y1315D02*
X7Y1315D01*
X1475Y1315D02*
X1482Y1315D01*
X0Y1314D02*
X7Y1314D01*
X1475Y1314D02*
X1482Y1314D01*
X0Y1313D02*
X7Y1313D01*
X1475Y1313D02*
X1482Y1313D01*
X0Y1312D02*
X7Y1312D01*
X1475Y1312D02*
X1482Y1312D01*
X0Y1311D02*
X7Y1311D01*
X1475Y1311D02*
X1482Y1311D01*
X0Y1310D02*
X7Y1310D01*
X1475Y1310D02*
X1482Y1310D01*
X0Y1309D02*
X7Y1309D01*
X1475Y1309D02*
X1482Y1309D01*
X0Y1308D02*
X7Y1308D01*
X1475Y1308D02*
X1482Y1308D01*
X0Y1307D02*
X7Y1307D01*
X1475Y1307D02*
X1482Y1307D01*
X0Y1306D02*
X7Y1306D01*
X1475Y1306D02*
X1482Y1306D01*
X0Y1305D02*
X7Y1305D01*
X1475Y1305D02*
X1482Y1305D01*
X0Y1304D02*
X7Y1304D01*
X1475Y1304D02*
X1482Y1304D01*
X0Y1303D02*
X7Y1303D01*
X1475Y1303D02*
X1482Y1303D01*
X0Y1302D02*
X7Y1302D01*
X1475Y1302D02*
X1482Y1302D01*
X0Y1301D02*
X7Y1301D01*
X1475Y1301D02*
X1482Y1301D01*
X0Y1300D02*
X7Y1300D01*
X1475Y1300D02*
X1482Y1300D01*
X0Y1299D02*
X7Y1299D01*
X1475Y1299D02*
X1482Y1299D01*
X0Y1298D02*
X7Y1298D01*
X1475Y1298D02*
X1482Y1298D01*
X0Y1297D02*
X7Y1297D01*
X1475Y1297D02*
X1482Y1297D01*
X0Y1296D02*
X7Y1296D01*
X1475Y1296D02*
X1482Y1296D01*
X0Y1295D02*
X7Y1295D01*
X1475Y1295D02*
X1482Y1295D01*
X0Y1294D02*
X7Y1294D01*
X1475Y1294D02*
X1482Y1294D01*
X0Y1293D02*
X7Y1293D01*
X1475Y1293D02*
X1482Y1293D01*
X0Y1292D02*
X7Y1292D01*
X1475Y1292D02*
X1482Y1292D01*
X0Y1291D02*
X7Y1291D01*
X1475Y1291D02*
X1482Y1291D01*
X0Y1290D02*
X7Y1290D01*
X1475Y1290D02*
X1482Y1290D01*
X0Y1289D02*
X7Y1289D01*
X1475Y1289D02*
X1482Y1289D01*
X0Y1288D02*
X7Y1288D01*
X1475Y1288D02*
X1482Y1288D01*
X0Y1287D02*
X7Y1287D01*
X1475Y1287D02*
X1482Y1287D01*
X0Y1286D02*
X7Y1286D01*
X1475Y1286D02*
X1482Y1286D01*
X0Y1285D02*
X7Y1285D01*
X1475Y1285D02*
X1482Y1285D01*
X0Y1284D02*
X7Y1284D01*
X1475Y1284D02*
X1482Y1284D01*
X0Y1283D02*
X7Y1283D01*
X1475Y1283D02*
X1482Y1283D01*
X0Y1282D02*
X7Y1282D01*
X1475Y1282D02*
X1482Y1282D01*
X0Y1281D02*
X7Y1281D01*
X1475Y1281D02*
X1482Y1281D01*
X0Y1280D02*
X7Y1280D01*
X1475Y1280D02*
X1482Y1280D01*
X0Y1279D02*
X7Y1279D01*
X1475Y1279D02*
X1482Y1279D01*
X0Y1278D02*
X7Y1278D01*
X1475Y1278D02*
X1482Y1278D01*
X0Y1277D02*
X7Y1277D01*
X1475Y1277D02*
X1482Y1277D01*
X0Y1276D02*
X7Y1276D01*
X1475Y1276D02*
X1482Y1276D01*
X0Y1275D02*
X7Y1275D01*
X1475Y1275D02*
X1482Y1275D01*
X0Y1274D02*
X7Y1274D01*
X1475Y1274D02*
X1482Y1274D01*
X0Y1273D02*
X7Y1273D01*
X1475Y1273D02*
X1482Y1273D01*
X0Y1272D02*
X7Y1272D01*
X1475Y1272D02*
X1482Y1272D01*
X0Y1271D02*
X7Y1271D01*
X1475Y1271D02*
X1482Y1271D01*
X0Y1270D02*
X7Y1270D01*
X1475Y1270D02*
X1482Y1270D01*
X0Y1269D02*
X7Y1269D01*
X1475Y1269D02*
X1482Y1269D01*
X0Y1268D02*
X7Y1268D01*
X1475Y1268D02*
X1482Y1268D01*
X0Y1267D02*
X7Y1267D01*
X1475Y1267D02*
X1482Y1267D01*
X0Y1266D02*
X7Y1266D01*
X1475Y1266D02*
X1482Y1266D01*
X0Y1265D02*
X7Y1265D01*
X1475Y1265D02*
X1482Y1265D01*
X0Y1264D02*
X7Y1264D01*
X1475Y1264D02*
X1482Y1264D01*
X0Y1263D02*
X7Y1263D01*
X1475Y1263D02*
X1482Y1263D01*
X0Y1262D02*
X7Y1262D01*
X1475Y1262D02*
X1482Y1262D01*
X0Y1261D02*
X7Y1261D01*
X1475Y1261D02*
X1482Y1261D01*
X0Y1260D02*
X7Y1260D01*
X1475Y1260D02*
X1482Y1260D01*
X0Y1259D02*
X7Y1259D01*
X1475Y1259D02*
X1482Y1259D01*
X0Y1258D02*
X7Y1258D01*
X1475Y1258D02*
X1482Y1258D01*
X0Y1257D02*
X7Y1257D01*
X1475Y1257D02*
X1482Y1257D01*
X0Y1256D02*
X7Y1256D01*
X1475Y1256D02*
X1482Y1256D01*
X0Y1255D02*
X7Y1255D01*
X1475Y1255D02*
X1482Y1255D01*
X0Y1254D02*
X7Y1254D01*
X1475Y1254D02*
X1482Y1254D01*
X0Y1253D02*
X7Y1253D01*
X1475Y1253D02*
X1482Y1253D01*
X0Y1252D02*
X7Y1252D01*
X1475Y1252D02*
X1482Y1252D01*
X0Y1251D02*
X7Y1251D01*
X1475Y1251D02*
X1482Y1251D01*
X0Y1250D02*
X7Y1250D01*
X1475Y1250D02*
X1482Y1250D01*
X0Y1249D02*
X7Y1249D01*
X1475Y1249D02*
X1482Y1249D01*
X0Y1248D02*
X7Y1248D01*
X1475Y1248D02*
X1482Y1248D01*
X0Y1247D02*
X7Y1247D01*
X1475Y1247D02*
X1482Y1247D01*
X0Y1246D02*
X7Y1246D01*
X1475Y1246D02*
X1482Y1246D01*
X0Y1245D02*
X7Y1245D01*
X1475Y1245D02*
X1482Y1245D01*
X0Y1244D02*
X7Y1244D01*
X1475Y1244D02*
X1482Y1244D01*
X0Y1243D02*
X7Y1243D01*
X1475Y1243D02*
X1482Y1243D01*
X0Y1242D02*
X7Y1242D01*
X1475Y1242D02*
X1482Y1242D01*
X0Y1241D02*
X7Y1241D01*
X1475Y1241D02*
X1482Y1241D01*
X0Y1240D02*
X7Y1240D01*
X1475Y1240D02*
X1482Y1240D01*
X0Y1239D02*
X7Y1239D01*
X1475Y1239D02*
X1482Y1239D01*
X0Y1238D02*
X7Y1238D01*
X1475Y1238D02*
X1482Y1238D01*
X0Y1237D02*
X7Y1237D01*
X1475Y1237D02*
X1482Y1237D01*
X0Y1236D02*
X7Y1236D01*
X1475Y1236D02*
X1482Y1236D01*
X0Y1235D02*
X7Y1235D01*
X1475Y1235D02*
X1482Y1235D01*
X0Y1234D02*
X7Y1234D01*
X1475Y1234D02*
X1482Y1234D01*
X0Y1233D02*
X7Y1233D01*
X1475Y1233D02*
X1482Y1233D01*
X0Y1232D02*
X7Y1232D01*
X1475Y1232D02*
X1482Y1232D01*
X0Y1231D02*
X7Y1231D01*
X1475Y1231D02*
X1482Y1231D01*
X0Y1230D02*
X7Y1230D01*
X1475Y1230D02*
X1482Y1230D01*
X0Y1229D02*
X7Y1229D01*
X1475Y1229D02*
X1482Y1229D01*
X0Y1228D02*
X7Y1228D01*
X1475Y1228D02*
X1482Y1228D01*
X0Y1227D02*
X7Y1227D01*
X1475Y1227D02*
X1482Y1227D01*
X0Y1226D02*
X7Y1226D01*
X1475Y1226D02*
X1482Y1226D01*
X0Y1225D02*
X7Y1225D01*
X1475Y1225D02*
X1482Y1225D01*
X0Y1224D02*
X7Y1224D01*
X1475Y1224D02*
X1482Y1224D01*
X0Y1223D02*
X7Y1223D01*
X1475Y1223D02*
X1482Y1223D01*
X0Y1222D02*
X7Y1222D01*
X1475Y1222D02*
X1482Y1222D01*
X0Y1221D02*
X7Y1221D01*
X1475Y1221D02*
X1482Y1221D01*
X0Y1220D02*
X7Y1220D01*
X1475Y1220D02*
X1482Y1220D01*
X0Y1219D02*
X7Y1219D01*
X1475Y1219D02*
X1482Y1219D01*
X0Y1218D02*
X7Y1218D01*
X1475Y1218D02*
X1482Y1218D01*
X0Y1217D02*
X7Y1217D01*
X1475Y1217D02*
X1482Y1217D01*
X0Y1216D02*
X7Y1216D01*
X1475Y1216D02*
X1482Y1216D01*
X0Y1215D02*
X7Y1215D01*
X1475Y1215D02*
X1482Y1215D01*
X0Y1214D02*
X7Y1214D01*
X1475Y1214D02*
X1482Y1214D01*
X0Y1213D02*
X7Y1213D01*
X1475Y1213D02*
X1482Y1213D01*
X0Y1212D02*
X7Y1212D01*
X1475Y1212D02*
X1482Y1212D01*
X0Y1211D02*
X7Y1211D01*
X1475Y1211D02*
X1482Y1211D01*
X0Y1210D02*
X7Y1210D01*
X1475Y1210D02*
X1482Y1210D01*
X0Y1209D02*
X7Y1209D01*
X1475Y1209D02*
X1482Y1209D01*
X0Y1208D02*
X7Y1208D01*
X1475Y1208D02*
X1482Y1208D01*
X0Y1207D02*
X7Y1207D01*
X1475Y1207D02*
X1482Y1207D01*
X0Y1206D02*
X7Y1206D01*
X1475Y1206D02*
X1482Y1206D01*
X0Y1205D02*
X7Y1205D01*
X1475Y1205D02*
X1482Y1205D01*
X0Y1204D02*
X7Y1204D01*
X1475Y1204D02*
X1482Y1204D01*
X0Y1203D02*
X7Y1203D01*
X1475Y1203D02*
X1482Y1203D01*
X0Y1202D02*
X7Y1202D01*
X1475Y1202D02*
X1482Y1202D01*
X0Y1201D02*
X7Y1201D01*
X1475Y1201D02*
X1482Y1201D01*
X0Y1200D02*
X7Y1200D01*
X1475Y1200D02*
X1482Y1200D01*
X0Y1199D02*
X7Y1199D01*
X1475Y1199D02*
X1482Y1199D01*
X0Y1198D02*
X7Y1198D01*
X1475Y1198D02*
X1482Y1198D01*
X0Y1197D02*
X7Y1197D01*
X1475Y1197D02*
X1482Y1197D01*
X0Y1196D02*
X7Y1196D01*
X1475Y1196D02*
X1482Y1196D01*
X0Y1195D02*
X7Y1195D01*
X1475Y1195D02*
X1482Y1195D01*
X0Y1194D02*
X7Y1194D01*
X1475Y1194D02*
X1482Y1194D01*
X0Y1193D02*
X7Y1193D01*
X1475Y1193D02*
X1482Y1193D01*
X0Y1192D02*
X7Y1192D01*
X1475Y1192D02*
X1482Y1192D01*
X0Y1191D02*
X7Y1191D01*
X1475Y1191D02*
X1482Y1191D01*
X0Y1190D02*
X7Y1190D01*
X1475Y1190D02*
X1482Y1190D01*
X0Y1189D02*
X7Y1189D01*
X1475Y1189D02*
X1482Y1189D01*
X0Y1188D02*
X7Y1188D01*
X1475Y1188D02*
X1482Y1188D01*
X0Y1187D02*
X7Y1187D01*
X1475Y1187D02*
X1482Y1187D01*
X0Y1186D02*
X7Y1186D01*
X1475Y1186D02*
X1482Y1186D01*
X0Y1185D02*
X7Y1185D01*
X1475Y1185D02*
X1482Y1185D01*
X0Y1184D02*
X7Y1184D01*
X1475Y1184D02*
X1482Y1184D01*
X0Y1183D02*
X7Y1183D01*
X1475Y1183D02*
X1482Y1183D01*
X0Y1182D02*
X7Y1182D01*
X1475Y1182D02*
X1482Y1182D01*
X0Y1181D02*
X7Y1181D01*
X1475Y1181D02*
X1482Y1181D01*
X0Y1180D02*
X7Y1180D01*
X1475Y1180D02*
X1482Y1180D01*
X0Y1179D02*
X7Y1179D01*
X1475Y1179D02*
X1482Y1179D01*
X0Y1178D02*
X7Y1178D01*
X1475Y1178D02*
X1482Y1178D01*
X0Y1177D02*
X7Y1177D01*
X1475Y1177D02*
X1482Y1177D01*
X0Y1176D02*
X7Y1176D01*
X1475Y1176D02*
X1482Y1176D01*
X0Y1175D02*
X7Y1175D01*
X1475Y1175D02*
X1482Y1175D01*
X0Y1174D02*
X7Y1174D01*
X1475Y1174D02*
X1482Y1174D01*
X0Y1173D02*
X7Y1173D01*
X1475Y1173D02*
X1482Y1173D01*
X0Y1172D02*
X7Y1172D01*
X1475Y1172D02*
X1482Y1172D01*
X0Y1171D02*
X7Y1171D01*
X1475Y1171D02*
X1482Y1171D01*
X0Y1170D02*
X7Y1170D01*
X1475Y1170D02*
X1482Y1170D01*
X0Y1169D02*
X7Y1169D01*
X1475Y1169D02*
X1482Y1169D01*
X0Y1168D02*
X7Y1168D01*
X1475Y1168D02*
X1482Y1168D01*
X0Y1167D02*
X7Y1167D01*
X1475Y1167D02*
X1482Y1167D01*
X0Y1166D02*
X7Y1166D01*
X1475Y1166D02*
X1482Y1166D01*
X0Y1165D02*
X7Y1165D01*
X1475Y1165D02*
X1482Y1165D01*
X0Y1164D02*
X7Y1164D01*
X1475Y1164D02*
X1482Y1164D01*
X0Y1163D02*
X7Y1163D01*
X1475Y1163D02*
X1482Y1163D01*
X0Y1162D02*
X7Y1162D01*
X1475Y1162D02*
X1482Y1162D01*
X0Y1161D02*
X7Y1161D01*
X1475Y1161D02*
X1482Y1161D01*
X0Y1160D02*
X7Y1160D01*
X1475Y1160D02*
X1482Y1160D01*
X0Y1159D02*
X7Y1159D01*
X1475Y1159D02*
X1482Y1159D01*
X0Y1158D02*
X7Y1158D01*
X1475Y1158D02*
X1482Y1158D01*
X0Y1157D02*
X7Y1157D01*
X1475Y1157D02*
X1482Y1157D01*
X0Y1156D02*
X7Y1156D01*
X1475Y1156D02*
X1482Y1156D01*
X0Y1155D02*
X7Y1155D01*
X1475Y1155D02*
X1482Y1155D01*
X0Y1154D02*
X7Y1154D01*
X1475Y1154D02*
X1482Y1154D01*
X0Y1153D02*
X7Y1153D01*
X1475Y1153D02*
X1482Y1153D01*
X0Y1152D02*
X7Y1152D01*
X1475Y1152D02*
X1482Y1152D01*
X0Y1151D02*
X7Y1151D01*
X1475Y1151D02*
X1482Y1151D01*
X0Y1150D02*
X7Y1150D01*
X1475Y1150D02*
X1482Y1150D01*
X0Y1149D02*
X7Y1149D01*
X1475Y1149D02*
X1482Y1149D01*
X0Y1148D02*
X7Y1148D01*
X1475Y1148D02*
X1482Y1148D01*
X0Y1147D02*
X7Y1147D01*
X1475Y1147D02*
X1482Y1147D01*
X0Y1146D02*
X7Y1146D01*
X1475Y1146D02*
X1482Y1146D01*
X0Y1145D02*
X7Y1145D01*
X1475Y1145D02*
X1482Y1145D01*
X0Y1144D02*
X7Y1144D01*
X1475Y1144D02*
X1482Y1144D01*
X0Y1143D02*
X7Y1143D01*
X1475Y1143D02*
X1482Y1143D01*
X0Y1142D02*
X7Y1142D01*
X1475Y1142D02*
X1482Y1142D01*
X0Y1141D02*
X7Y1141D01*
X1475Y1141D02*
X1482Y1141D01*
X0Y1140D02*
X7Y1140D01*
X1475Y1140D02*
X1482Y1140D01*
X0Y1139D02*
X7Y1139D01*
X1475Y1139D02*
X1482Y1139D01*
X0Y1138D02*
X7Y1138D01*
X1475Y1138D02*
X1482Y1138D01*
X0Y1137D02*
X7Y1137D01*
X1475Y1137D02*
X1482Y1137D01*
X0Y1136D02*
X7Y1136D01*
X1475Y1136D02*
X1482Y1136D01*
X0Y1135D02*
X7Y1135D01*
X1475Y1135D02*
X1482Y1135D01*
X0Y1134D02*
X7Y1134D01*
X1475Y1134D02*
X1482Y1134D01*
X0Y1133D02*
X7Y1133D01*
X1475Y1133D02*
X1482Y1133D01*
X0Y1132D02*
X7Y1132D01*
X1475Y1132D02*
X1482Y1132D01*
X0Y1131D02*
X7Y1131D01*
X1475Y1131D02*
X1482Y1131D01*
X0Y1130D02*
X7Y1130D01*
X1475Y1130D02*
X1482Y1130D01*
X0Y1129D02*
X7Y1129D01*
X1475Y1129D02*
X1482Y1129D01*
X0Y1128D02*
X7Y1128D01*
X1475Y1128D02*
X1482Y1128D01*
X0Y1127D02*
X7Y1127D01*
X1475Y1127D02*
X1482Y1127D01*
X0Y1126D02*
X7Y1126D01*
X1475Y1126D02*
X1482Y1126D01*
X0Y1125D02*
X7Y1125D01*
X1475Y1125D02*
X1482Y1125D01*
X0Y1124D02*
X7Y1124D01*
X1475Y1124D02*
X1482Y1124D01*
X0Y1123D02*
X7Y1123D01*
X1475Y1123D02*
X1482Y1123D01*
X0Y1122D02*
X7Y1122D01*
X1475Y1122D02*
X1482Y1122D01*
X0Y1121D02*
X7Y1121D01*
X1475Y1121D02*
X1482Y1121D01*
X0Y1120D02*
X7Y1120D01*
X1475Y1120D02*
X1482Y1120D01*
X0Y1119D02*
X7Y1119D01*
X1475Y1119D02*
X1482Y1119D01*
X0Y1118D02*
X7Y1118D01*
X1475Y1118D02*
X1482Y1118D01*
X0Y1117D02*
X7Y1117D01*
X1475Y1117D02*
X1482Y1117D01*
X0Y1116D02*
X7Y1116D01*
X1475Y1116D02*
X1482Y1116D01*
X0Y1115D02*
X7Y1115D01*
X1475Y1115D02*
X1482Y1115D01*
X0Y1114D02*
X7Y1114D01*
X1475Y1114D02*
X1482Y1114D01*
X0Y1113D02*
X7Y1113D01*
X1475Y1113D02*
X1482Y1113D01*
X0Y1112D02*
X7Y1112D01*
X1475Y1112D02*
X1482Y1112D01*
X0Y1111D02*
X7Y1111D01*
X1475Y1111D02*
X1482Y1111D01*
X0Y1110D02*
X7Y1110D01*
X1475Y1110D02*
X1482Y1110D01*
X0Y1109D02*
X7Y1109D01*
X1312Y1109D02*
X1321Y1109D01*
X1337Y1109D02*
X1346Y1109D01*
X1364Y1109D02*
X1382Y1109D01*
X1475Y1109D02*
X1482Y1109D01*
X0Y1108D02*
X7Y1108D01*
X1312Y1108D02*
X1321Y1108D01*
X1337Y1108D02*
X1346Y1108D01*
X1363Y1108D02*
X1382Y1108D01*
X1475Y1108D02*
X1482Y1108D01*
X0Y1107D02*
X7Y1107D01*
X1312Y1107D02*
X1322Y1107D01*
X1336Y1107D02*
X1346Y1107D01*
X1363Y1107D02*
X1382Y1107D01*
X1475Y1107D02*
X1482Y1107D01*
X0Y1106D02*
X7Y1106D01*
X1312Y1106D02*
X1323Y1106D01*
X1335Y1106D02*
X1346Y1106D01*
X1363Y1106D02*
X1382Y1106D01*
X1475Y1106D02*
X1482Y1106D01*
X0Y1105D02*
X7Y1105D01*
X1312Y1105D02*
X1323Y1105D01*
X1335Y1105D02*
X1346Y1105D01*
X1363Y1105D02*
X1382Y1105D01*
X1475Y1105D02*
X1482Y1105D01*
X0Y1104D02*
X7Y1104D01*
X1312Y1104D02*
X1324Y1104D01*
X1334Y1104D02*
X1346Y1104D01*
X1363Y1104D02*
X1382Y1104D01*
X1475Y1104D02*
X1482Y1104D01*
X0Y1103D02*
X7Y1103D01*
X1312Y1103D02*
X1325Y1103D01*
X1333Y1103D02*
X1346Y1103D01*
X1365Y1103D02*
X1382Y1103D01*
X1475Y1103D02*
X1482Y1103D01*
X0Y1102D02*
X7Y1102D01*
X1312Y1102D02*
X1326Y1102D01*
X1333Y1102D02*
X1346Y1102D01*
X1376Y1102D02*
X1382Y1102D01*
X1475Y1102D02*
X1482Y1102D01*
X0Y1101D02*
X7Y1101D01*
X1312Y1101D02*
X1326Y1101D01*
X1332Y1101D02*
X1346Y1101D01*
X1376Y1101D02*
X1382Y1101D01*
X1475Y1101D02*
X1482Y1101D01*
X0Y1100D02*
X7Y1100D01*
X1312Y1100D02*
X1327Y1100D01*
X1331Y1100D02*
X1346Y1100D01*
X1376Y1100D02*
X1382Y1100D01*
X1475Y1100D02*
X1482Y1100D01*
X0Y1099D02*
X7Y1099D01*
X904Y1099D02*
X935Y1099D01*
X967Y1099D02*
X985Y1099D01*
X1004Y1099D02*
X1023Y1099D01*
X1312Y1099D02*
X1318Y1099D01*
X1320Y1099D02*
X1328Y1099D01*
X1330Y1099D02*
X1338Y1099D01*
X1340Y1099D02*
X1346Y1099D01*
X1376Y1099D02*
X1382Y1099D01*
X1475Y1099D02*
X1482Y1099D01*
X0Y1098D02*
X7Y1098D01*
X903Y1098D02*
X936Y1098D01*
X965Y1098D02*
X986Y1098D01*
X1003Y1098D02*
X1023Y1098D01*
X1312Y1098D02*
X1318Y1098D01*
X1321Y1098D02*
X1337Y1098D01*
X1340Y1098D02*
X1346Y1098D01*
X1376Y1098D02*
X1382Y1098D01*
X1475Y1098D02*
X1482Y1098D01*
X0Y1097D02*
X7Y1097D01*
X903Y1097D02*
X936Y1097D01*
X964Y1097D02*
X986Y1097D01*
X1003Y1097D02*
X1023Y1097D01*
X1312Y1097D02*
X1318Y1097D01*
X1321Y1097D02*
X1337Y1097D01*
X1340Y1097D02*
X1346Y1097D01*
X1376Y1097D02*
X1382Y1097D01*
X1475Y1097D02*
X1482Y1097D01*
X0Y1096D02*
X7Y1096D01*
X903Y1096D02*
X936Y1096D01*
X963Y1096D02*
X986Y1096D01*
X1003Y1096D02*
X1023Y1096D01*
X1312Y1096D02*
X1318Y1096D01*
X1322Y1096D02*
X1336Y1096D01*
X1340Y1096D02*
X1346Y1096D01*
X1376Y1096D02*
X1382Y1096D01*
X1475Y1096D02*
X1482Y1096D01*
X0Y1095D02*
X7Y1095D01*
X903Y1095D02*
X936Y1095D01*
X962Y1095D02*
X986Y1095D01*
X1003Y1095D02*
X1023Y1095D01*
X1312Y1095D02*
X1318Y1095D01*
X1323Y1095D02*
X1335Y1095D01*
X1340Y1095D02*
X1346Y1095D01*
X1376Y1095D02*
X1382Y1095D01*
X1475Y1095D02*
X1482Y1095D01*
X0Y1094D02*
X7Y1094D01*
X903Y1094D02*
X935Y1094D01*
X961Y1094D02*
X985Y1094D01*
X1004Y1094D02*
X1023Y1094D01*
X1312Y1094D02*
X1318Y1094D01*
X1324Y1094D02*
X1334Y1094D01*
X1340Y1094D02*
X1346Y1094D01*
X1376Y1094D02*
X1382Y1094D01*
X1475Y1094D02*
X1482Y1094D01*
X0Y1093D02*
X7Y1093D01*
X905Y1093D02*
X933Y1093D01*
X961Y1093D02*
X984Y1093D01*
X1005Y1093D02*
X1023Y1093D01*
X1312Y1093D02*
X1318Y1093D01*
X1324Y1093D02*
X1334Y1093D01*
X1340Y1093D02*
X1346Y1093D01*
X1376Y1093D02*
X1382Y1093D01*
X1475Y1093D02*
X1482Y1093D01*
X0Y1092D02*
X7Y1092D01*
X916Y1092D02*
X922Y1092D01*
X960Y1092D02*
X968Y1092D01*
X1017Y1092D02*
X1023Y1092D01*
X1312Y1092D02*
X1318Y1092D01*
X1325Y1092D02*
X1333Y1092D01*
X1340Y1092D02*
X1346Y1092D01*
X1376Y1092D02*
X1382Y1092D01*
X1475Y1092D02*
X1482Y1092D01*
X0Y1091D02*
X7Y1091D01*
X916Y1091D02*
X922Y1091D01*
X960Y1091D02*
X967Y1091D01*
X1017Y1091D02*
X1023Y1091D01*
X1312Y1091D02*
X1318Y1091D01*
X1326Y1091D02*
X1332Y1091D01*
X1340Y1091D02*
X1346Y1091D01*
X1376Y1091D02*
X1382Y1091D01*
X1475Y1091D02*
X1482Y1091D01*
X0Y1090D02*
X7Y1090D01*
X916Y1090D02*
X922Y1090D01*
X959Y1090D02*
X966Y1090D01*
X1017Y1090D02*
X1023Y1090D01*
X1312Y1090D02*
X1318Y1090D01*
X1326Y1090D02*
X1332Y1090D01*
X1340Y1090D02*
X1346Y1090D01*
X1376Y1090D02*
X1382Y1090D01*
X1475Y1090D02*
X1482Y1090D01*
X0Y1089D02*
X7Y1089D01*
X916Y1089D02*
X922Y1089D01*
X959Y1089D02*
X966Y1089D01*
X1017Y1089D02*
X1023Y1089D01*
X1312Y1089D02*
X1318Y1089D01*
X1326Y1089D02*
X1332Y1089D01*
X1340Y1089D02*
X1346Y1089D01*
X1376Y1089D02*
X1382Y1089D01*
X1475Y1089D02*
X1482Y1089D01*
X0Y1088D02*
X7Y1088D01*
X916Y1088D02*
X922Y1088D01*
X958Y1088D02*
X965Y1088D01*
X1017Y1088D02*
X1023Y1088D01*
X1312Y1088D02*
X1318Y1088D01*
X1326Y1088D02*
X1332Y1088D01*
X1340Y1088D02*
X1346Y1088D01*
X1376Y1088D02*
X1382Y1088D01*
X1475Y1088D02*
X1482Y1088D01*
X0Y1087D02*
X7Y1087D01*
X916Y1087D02*
X922Y1087D01*
X958Y1087D02*
X965Y1087D01*
X1017Y1087D02*
X1023Y1087D01*
X1312Y1087D02*
X1318Y1087D01*
X1326Y1087D02*
X1332Y1087D01*
X1340Y1087D02*
X1346Y1087D01*
X1376Y1087D02*
X1382Y1087D01*
X1475Y1087D02*
X1482Y1087D01*
X0Y1086D02*
X7Y1086D01*
X916Y1086D02*
X922Y1086D01*
X957Y1086D02*
X964Y1086D01*
X1017Y1086D02*
X1023Y1086D01*
X1312Y1086D02*
X1318Y1086D01*
X1327Y1086D02*
X1331Y1086D01*
X1340Y1086D02*
X1346Y1086D01*
X1376Y1086D02*
X1382Y1086D01*
X1475Y1086D02*
X1482Y1086D01*
X0Y1085D02*
X7Y1085D01*
X916Y1085D02*
X922Y1085D01*
X957Y1085D02*
X964Y1085D01*
X1017Y1085D02*
X1023Y1085D01*
X1312Y1085D02*
X1318Y1085D01*
X1340Y1085D02*
X1346Y1085D01*
X1376Y1085D02*
X1382Y1085D01*
X1475Y1085D02*
X1482Y1085D01*
X0Y1084D02*
X7Y1084D01*
X916Y1084D02*
X922Y1084D01*
X956Y1084D02*
X963Y1084D01*
X1017Y1084D02*
X1023Y1084D01*
X1312Y1084D02*
X1318Y1084D01*
X1340Y1084D02*
X1346Y1084D01*
X1376Y1084D02*
X1382Y1084D01*
X1475Y1084D02*
X1482Y1084D01*
X0Y1083D02*
X7Y1083D01*
X916Y1083D02*
X922Y1083D01*
X956Y1083D02*
X963Y1083D01*
X1017Y1083D02*
X1023Y1083D01*
X1312Y1083D02*
X1318Y1083D01*
X1340Y1083D02*
X1346Y1083D01*
X1376Y1083D02*
X1382Y1083D01*
X1475Y1083D02*
X1482Y1083D01*
X0Y1082D02*
X7Y1082D01*
X916Y1082D02*
X922Y1082D01*
X955Y1082D02*
X962Y1082D01*
X1017Y1082D02*
X1023Y1082D01*
X1312Y1082D02*
X1318Y1082D01*
X1340Y1082D02*
X1346Y1082D01*
X1376Y1082D02*
X1382Y1082D01*
X1475Y1082D02*
X1482Y1082D01*
X0Y1081D02*
X7Y1081D01*
X916Y1081D02*
X922Y1081D01*
X955Y1081D02*
X962Y1081D01*
X1017Y1081D02*
X1023Y1081D01*
X1312Y1081D02*
X1318Y1081D01*
X1340Y1081D02*
X1346Y1081D01*
X1376Y1081D02*
X1382Y1081D01*
X1475Y1081D02*
X1482Y1081D01*
X0Y1080D02*
X7Y1080D01*
X916Y1080D02*
X922Y1080D01*
X954Y1080D02*
X961Y1080D01*
X1017Y1080D02*
X1023Y1080D01*
X1312Y1080D02*
X1318Y1080D01*
X1340Y1080D02*
X1346Y1080D01*
X1376Y1080D02*
X1382Y1080D01*
X1392Y1080D02*
X1394Y1080D01*
X1475Y1080D02*
X1482Y1080D01*
X0Y1079D02*
X7Y1079D01*
X916Y1079D02*
X922Y1079D01*
X954Y1079D02*
X961Y1079D01*
X1017Y1079D02*
X1023Y1079D01*
X1312Y1079D02*
X1318Y1079D01*
X1340Y1079D02*
X1346Y1079D01*
X1376Y1079D02*
X1382Y1079D01*
X1391Y1079D02*
X1395Y1079D01*
X1475Y1079D02*
X1482Y1079D01*
X0Y1078D02*
X7Y1078D01*
X916Y1078D02*
X922Y1078D01*
X954Y1078D02*
X960Y1078D01*
X1017Y1078D02*
X1023Y1078D01*
X1312Y1078D02*
X1318Y1078D01*
X1340Y1078D02*
X1346Y1078D01*
X1376Y1078D02*
X1382Y1078D01*
X1390Y1078D02*
X1396Y1078D01*
X1475Y1078D02*
X1482Y1078D01*
X0Y1077D02*
X7Y1077D01*
X916Y1077D02*
X922Y1077D01*
X953Y1077D02*
X960Y1077D01*
X1017Y1077D02*
X1023Y1077D01*
X1312Y1077D02*
X1318Y1077D01*
X1340Y1077D02*
X1346Y1077D01*
X1376Y1077D02*
X1382Y1077D01*
X1390Y1077D02*
X1396Y1077D01*
X1475Y1077D02*
X1482Y1077D01*
X0Y1076D02*
X7Y1076D01*
X916Y1076D02*
X922Y1076D01*
X953Y1076D02*
X959Y1076D01*
X1017Y1076D02*
X1023Y1076D01*
X1312Y1076D02*
X1318Y1076D01*
X1340Y1076D02*
X1346Y1076D01*
X1376Y1076D02*
X1382Y1076D01*
X1390Y1076D02*
X1396Y1076D01*
X1475Y1076D02*
X1482Y1076D01*
X0Y1075D02*
X7Y1075D01*
X916Y1075D02*
X922Y1075D01*
X953Y1075D02*
X959Y1075D01*
X1017Y1075D02*
X1023Y1075D01*
X1312Y1075D02*
X1318Y1075D01*
X1340Y1075D02*
X1346Y1075D01*
X1376Y1075D02*
X1382Y1075D01*
X1390Y1075D02*
X1396Y1075D01*
X1475Y1075D02*
X1482Y1075D01*
X0Y1074D02*
X7Y1074D01*
X916Y1074D02*
X922Y1074D01*
X953Y1074D02*
X959Y1074D01*
X1017Y1074D02*
X1023Y1074D01*
X1312Y1074D02*
X1318Y1074D01*
X1340Y1074D02*
X1346Y1074D01*
X1376Y1074D02*
X1382Y1074D01*
X1390Y1074D02*
X1396Y1074D01*
X1475Y1074D02*
X1482Y1074D01*
X0Y1073D02*
X7Y1073D01*
X916Y1073D02*
X922Y1073D01*
X953Y1073D02*
X959Y1073D01*
X1017Y1073D02*
X1023Y1073D01*
X1312Y1073D02*
X1318Y1073D01*
X1340Y1073D02*
X1346Y1073D01*
X1376Y1073D02*
X1382Y1073D01*
X1390Y1073D02*
X1396Y1073D01*
X1475Y1073D02*
X1482Y1073D01*
X0Y1072D02*
X7Y1072D01*
X916Y1072D02*
X922Y1072D01*
X953Y1072D02*
X959Y1072D01*
X1017Y1072D02*
X1023Y1072D01*
X1312Y1072D02*
X1318Y1072D01*
X1340Y1072D02*
X1346Y1072D01*
X1376Y1072D02*
X1382Y1072D01*
X1390Y1072D02*
X1396Y1072D01*
X1475Y1072D02*
X1482Y1072D01*
X0Y1071D02*
X7Y1071D01*
X916Y1071D02*
X922Y1071D01*
X953Y1071D02*
X959Y1071D01*
X1017Y1071D02*
X1023Y1071D01*
X1312Y1071D02*
X1318Y1071D01*
X1340Y1071D02*
X1346Y1071D01*
X1376Y1071D02*
X1382Y1071D01*
X1390Y1071D02*
X1396Y1071D01*
X1475Y1071D02*
X1482Y1071D01*
X0Y1070D02*
X7Y1070D01*
X916Y1070D02*
X922Y1070D01*
X953Y1070D02*
X959Y1070D01*
X1017Y1070D02*
X1023Y1070D01*
X1032Y1070D02*
X1034Y1070D01*
X1312Y1070D02*
X1318Y1070D01*
X1340Y1070D02*
X1346Y1070D01*
X1376Y1070D02*
X1382Y1070D01*
X1390Y1070D02*
X1396Y1070D01*
X1475Y1070D02*
X1482Y1070D01*
X0Y1069D02*
X7Y1069D01*
X916Y1069D02*
X922Y1069D01*
X953Y1069D02*
X960Y1069D01*
X1017Y1069D02*
X1023Y1069D01*
X1031Y1069D02*
X1036Y1069D01*
X1312Y1069D02*
X1318Y1069D01*
X1340Y1069D02*
X1346Y1069D01*
X1376Y1069D02*
X1382Y1069D01*
X1390Y1069D02*
X1396Y1069D01*
X1475Y1069D02*
X1482Y1069D01*
X0Y1068D02*
X7Y1068D01*
X916Y1068D02*
X922Y1068D01*
X953Y1068D02*
X960Y1068D01*
X1017Y1068D02*
X1023Y1068D01*
X1031Y1068D02*
X1036Y1068D01*
X1312Y1068D02*
X1318Y1068D01*
X1340Y1068D02*
X1346Y1068D01*
X1376Y1068D02*
X1382Y1068D01*
X1390Y1068D02*
X1396Y1068D01*
X1475Y1068D02*
X1482Y1068D01*
X0Y1067D02*
X7Y1067D01*
X916Y1067D02*
X922Y1067D01*
X954Y1067D02*
X960Y1067D01*
X1017Y1067D02*
X1023Y1067D01*
X1030Y1067D02*
X1036Y1067D01*
X1312Y1067D02*
X1318Y1067D01*
X1340Y1067D02*
X1346Y1067D01*
X1376Y1067D02*
X1382Y1067D01*
X1390Y1067D02*
X1396Y1067D01*
X1475Y1067D02*
X1482Y1067D01*
X0Y1066D02*
X7Y1066D01*
X916Y1066D02*
X922Y1066D01*
X954Y1066D02*
X961Y1066D01*
X1017Y1066D02*
X1023Y1066D01*
X1030Y1066D02*
X1036Y1066D01*
X1312Y1066D02*
X1318Y1066D01*
X1340Y1066D02*
X1346Y1066D01*
X1376Y1066D02*
X1382Y1066D01*
X1390Y1066D02*
X1396Y1066D01*
X1475Y1066D02*
X1482Y1066D01*
X0Y1065D02*
X7Y1065D01*
X916Y1065D02*
X922Y1065D01*
X955Y1065D02*
X961Y1065D01*
X1017Y1065D02*
X1023Y1065D01*
X1030Y1065D02*
X1036Y1065D01*
X1312Y1065D02*
X1318Y1065D01*
X1340Y1065D02*
X1346Y1065D01*
X1376Y1065D02*
X1382Y1065D01*
X1390Y1065D02*
X1396Y1065D01*
X1475Y1065D02*
X1482Y1065D01*
X0Y1064D02*
X7Y1064D01*
X916Y1064D02*
X922Y1064D01*
X955Y1064D02*
X962Y1064D01*
X1017Y1064D02*
X1023Y1064D01*
X1030Y1064D02*
X1036Y1064D01*
X1312Y1064D02*
X1318Y1064D01*
X1340Y1064D02*
X1346Y1064D01*
X1376Y1064D02*
X1382Y1064D01*
X1390Y1064D02*
X1396Y1064D01*
X1475Y1064D02*
X1482Y1064D01*
X0Y1063D02*
X7Y1063D01*
X916Y1063D02*
X922Y1063D01*
X956Y1063D02*
X962Y1063D01*
X1017Y1063D02*
X1023Y1063D01*
X1030Y1063D02*
X1036Y1063D01*
X1312Y1063D02*
X1318Y1063D01*
X1340Y1063D02*
X1346Y1063D01*
X1376Y1063D02*
X1382Y1063D01*
X1390Y1063D02*
X1396Y1063D01*
X1475Y1063D02*
X1482Y1063D01*
X0Y1062D02*
X7Y1062D01*
X916Y1062D02*
X922Y1062D01*
X956Y1062D02*
X963Y1062D01*
X1017Y1062D02*
X1023Y1062D01*
X1030Y1062D02*
X1036Y1062D01*
X1312Y1062D02*
X1318Y1062D01*
X1340Y1062D02*
X1346Y1062D01*
X1364Y1062D02*
X1396Y1062D01*
X1475Y1062D02*
X1482Y1062D01*
X0Y1061D02*
X7Y1061D01*
X916Y1061D02*
X922Y1061D01*
X957Y1061D02*
X964Y1061D01*
X1017Y1061D02*
X1023Y1061D01*
X1030Y1061D02*
X1036Y1061D01*
X1312Y1061D02*
X1318Y1061D01*
X1340Y1061D02*
X1346Y1061D01*
X1363Y1061D02*
X1396Y1061D01*
X1475Y1061D02*
X1482Y1061D01*
X0Y1060D02*
X7Y1060D01*
X916Y1060D02*
X922Y1060D01*
X957Y1060D02*
X964Y1060D01*
X1017Y1060D02*
X1023Y1060D01*
X1030Y1060D02*
X1036Y1060D01*
X1312Y1060D02*
X1318Y1060D01*
X1340Y1060D02*
X1346Y1060D01*
X1363Y1060D02*
X1396Y1060D01*
X1475Y1060D02*
X1482Y1060D01*
X0Y1059D02*
X7Y1059D01*
X916Y1059D02*
X922Y1059D01*
X958Y1059D02*
X965Y1059D01*
X1017Y1059D02*
X1023Y1059D01*
X1030Y1059D02*
X1036Y1059D01*
X1312Y1059D02*
X1318Y1059D01*
X1340Y1059D02*
X1346Y1059D01*
X1362Y1059D02*
X1396Y1059D01*
X1475Y1059D02*
X1482Y1059D01*
X0Y1058D02*
X7Y1058D01*
X916Y1058D02*
X922Y1058D01*
X958Y1058D02*
X965Y1058D01*
X1017Y1058D02*
X1023Y1058D01*
X1030Y1058D02*
X1036Y1058D01*
X1313Y1058D02*
X1318Y1058D01*
X1340Y1058D02*
X1346Y1058D01*
X1363Y1058D02*
X1396Y1058D01*
X1475Y1058D02*
X1482Y1058D01*
X0Y1057D02*
X7Y1057D01*
X916Y1057D02*
X922Y1057D01*
X959Y1057D02*
X966Y1057D01*
X1017Y1057D02*
X1023Y1057D01*
X1030Y1057D02*
X1036Y1057D01*
X1313Y1057D02*
X1317Y1057D01*
X1341Y1057D02*
X1345Y1057D01*
X1363Y1057D02*
X1395Y1057D01*
X1475Y1057D02*
X1482Y1057D01*
X0Y1056D02*
X7Y1056D01*
X916Y1056D02*
X922Y1056D01*
X959Y1056D02*
X966Y1056D01*
X1017Y1056D02*
X1023Y1056D01*
X1030Y1056D02*
X1036Y1056D01*
X1314Y1056D02*
X1316Y1056D01*
X1342Y1056D02*
X1344Y1056D01*
X1365Y1056D02*
X1394Y1056D01*
X1475Y1056D02*
X1482Y1056D01*
X0Y1055D02*
X7Y1055D01*
X916Y1055D02*
X922Y1055D01*
X960Y1055D02*
X967Y1055D01*
X1017Y1055D02*
X1023Y1055D01*
X1030Y1055D02*
X1036Y1055D01*
X1475Y1055D02*
X1482Y1055D01*
X0Y1054D02*
X7Y1054D01*
X916Y1054D02*
X922Y1054D01*
X960Y1054D02*
X967Y1054D01*
X1017Y1054D02*
X1023Y1054D01*
X1030Y1054D02*
X1036Y1054D01*
X1475Y1054D02*
X1482Y1054D01*
X0Y1053D02*
X7Y1053D01*
X916Y1053D02*
X922Y1053D01*
X961Y1053D02*
X968Y1053D01*
X1016Y1053D02*
X1023Y1053D01*
X1030Y1053D02*
X1036Y1053D01*
X1475Y1053D02*
X1482Y1053D01*
X0Y1052D02*
X7Y1052D01*
X904Y1052D02*
X935Y1052D01*
X961Y1052D02*
X985Y1052D01*
X1004Y1052D02*
X1036Y1052D01*
X1475Y1052D02*
X1482Y1052D01*
X0Y1051D02*
X7Y1051D01*
X903Y1051D02*
X935Y1051D01*
X962Y1051D02*
X986Y1051D01*
X1003Y1051D02*
X1036Y1051D01*
X1475Y1051D02*
X1482Y1051D01*
X0Y1050D02*
X7Y1050D01*
X903Y1050D02*
X936Y1050D01*
X962Y1050D02*
X986Y1050D01*
X1003Y1050D02*
X1036Y1050D01*
X1475Y1050D02*
X1482Y1050D01*
X0Y1049D02*
X7Y1049D01*
X903Y1049D02*
X936Y1049D01*
X963Y1049D02*
X986Y1049D01*
X1003Y1049D02*
X1036Y1049D01*
X1475Y1049D02*
X1482Y1049D01*
X0Y1048D02*
X7Y1048D01*
X903Y1048D02*
X936Y1048D01*
X964Y1048D02*
X986Y1048D01*
X1003Y1048D02*
X1036Y1048D01*
X1475Y1048D02*
X1482Y1048D01*
X0Y1047D02*
X7Y1047D01*
X903Y1047D02*
X935Y1047D01*
X966Y1047D02*
X985Y1047D01*
X1004Y1047D02*
X1036Y1047D01*
X1475Y1047D02*
X1482Y1047D01*
X0Y1046D02*
X7Y1046D01*
X905Y1046D02*
X934Y1046D01*
X968Y1046D02*
X984Y1046D01*
X1005Y1046D02*
X1034Y1046D01*
X1475Y1046D02*
X1482Y1046D01*
X0Y1045D02*
X7Y1045D01*
X1475Y1045D02*
X1482Y1045D01*
X0Y1044D02*
X7Y1044D01*
X1475Y1044D02*
X1482Y1044D01*
X0Y1043D02*
X7Y1043D01*
X1475Y1043D02*
X1482Y1043D01*
X0Y1042D02*
X7Y1042D01*
X1475Y1042D02*
X1482Y1042D01*
X0Y1041D02*
X7Y1041D01*
X1475Y1041D02*
X1482Y1041D01*
X0Y1040D02*
X7Y1040D01*
X1475Y1040D02*
X1482Y1040D01*
X0Y1039D02*
X7Y1039D01*
X1475Y1039D02*
X1482Y1039D01*
X0Y1038D02*
X7Y1038D01*
X1475Y1038D02*
X1482Y1038D01*
X0Y1037D02*
X7Y1037D01*
X1475Y1037D02*
X1482Y1037D01*
X0Y1036D02*
X7Y1036D01*
X1475Y1036D02*
X1482Y1036D01*
X0Y1035D02*
X7Y1035D01*
X1475Y1035D02*
X1482Y1035D01*
X0Y1034D02*
X7Y1034D01*
X1475Y1034D02*
X1482Y1034D01*
X0Y1033D02*
X7Y1033D01*
X1475Y1033D02*
X1482Y1033D01*
X0Y1032D02*
X7Y1032D01*
X1475Y1032D02*
X1482Y1032D01*
X0Y1031D02*
X7Y1031D01*
X1475Y1031D02*
X1482Y1031D01*
X0Y1030D02*
X7Y1030D01*
X1475Y1030D02*
X1482Y1030D01*
X0Y1029D02*
X7Y1029D01*
X1475Y1029D02*
X1482Y1029D01*
X0Y1028D02*
X7Y1028D01*
X1475Y1028D02*
X1482Y1028D01*
X0Y1027D02*
X7Y1027D01*
X1475Y1027D02*
X1482Y1027D01*
X0Y1026D02*
X7Y1026D01*
X1475Y1026D02*
X1482Y1026D01*
X0Y1025D02*
X7Y1025D01*
X1475Y1025D02*
X1482Y1025D01*
X0Y1024D02*
X7Y1024D01*
X1475Y1024D02*
X1482Y1024D01*
X0Y1023D02*
X7Y1023D01*
X1475Y1023D02*
X1482Y1023D01*
X0Y1022D02*
X7Y1022D01*
X1475Y1022D02*
X1482Y1022D01*
X0Y1021D02*
X7Y1021D01*
X1475Y1021D02*
X1482Y1021D01*
X0Y1020D02*
X7Y1020D01*
X1475Y1020D02*
X1482Y1020D01*
X0Y1019D02*
X7Y1019D01*
X1475Y1019D02*
X1482Y1019D01*
X0Y1018D02*
X7Y1018D01*
X1475Y1018D02*
X1482Y1018D01*
X0Y1017D02*
X7Y1017D01*
X1475Y1017D02*
X1482Y1017D01*
X0Y1016D02*
X7Y1016D01*
X1475Y1016D02*
X1482Y1016D01*
X0Y1015D02*
X7Y1015D01*
X1475Y1015D02*
X1482Y1015D01*
X0Y1014D02*
X7Y1014D01*
X1475Y1014D02*
X1482Y1014D01*
X0Y1013D02*
X7Y1013D01*
X1475Y1013D02*
X1482Y1013D01*
X0Y1012D02*
X7Y1012D01*
X1475Y1012D02*
X1482Y1012D01*
X0Y1011D02*
X7Y1011D01*
X1475Y1011D02*
X1482Y1011D01*
X0Y1010D02*
X7Y1010D01*
X1475Y1010D02*
X1482Y1010D01*
X0Y1009D02*
X7Y1009D01*
X1475Y1009D02*
X1482Y1009D01*
X0Y1008D02*
X7Y1008D01*
X1475Y1008D02*
X1482Y1008D01*
X0Y1007D02*
X7Y1007D01*
X1475Y1007D02*
X1482Y1007D01*
X0Y1006D02*
X7Y1006D01*
X1475Y1006D02*
X1482Y1006D01*
X0Y1005D02*
X7Y1005D01*
X1475Y1005D02*
X1482Y1005D01*
X0Y1004D02*
X7Y1004D01*
X1475Y1004D02*
X1482Y1004D01*
X0Y1003D02*
X7Y1003D01*
X1475Y1003D02*
X1482Y1003D01*
X0Y1002D02*
X7Y1002D01*
X1475Y1002D02*
X1482Y1002D01*
X0Y1001D02*
X7Y1001D01*
X1475Y1001D02*
X1482Y1001D01*
X0Y1000D02*
X7Y1000D01*
X1475Y1000D02*
X1482Y1000D01*
X0Y999D02*
X7Y999D01*
X1475Y999D02*
X1482Y999D01*
X0Y998D02*
X7Y998D01*
X1475Y998D02*
X1482Y998D01*
X0Y997D02*
X7Y997D01*
X1475Y997D02*
X1482Y997D01*
X0Y996D02*
X7Y996D01*
X1475Y996D02*
X1482Y996D01*
X0Y995D02*
X7Y995D01*
X1475Y995D02*
X1482Y995D01*
X0Y994D02*
X7Y994D01*
X1475Y994D02*
X1482Y994D01*
X0Y993D02*
X7Y993D01*
X1475Y993D02*
X1482Y993D01*
X0Y992D02*
X7Y992D01*
X1475Y992D02*
X1482Y992D01*
X0Y991D02*
X7Y991D01*
X1475Y991D02*
X1482Y991D01*
X0Y990D02*
X7Y990D01*
X1475Y990D02*
X1482Y990D01*
X0Y989D02*
X7Y989D01*
X1475Y989D02*
X1482Y989D01*
X0Y988D02*
X7Y988D01*
X1475Y988D02*
X1482Y988D01*
X0Y987D02*
X7Y987D01*
X1475Y987D02*
X1482Y987D01*
X0Y986D02*
X7Y986D01*
X1475Y986D02*
X1482Y986D01*
X0Y985D02*
X7Y985D01*
X1475Y985D02*
X1482Y985D01*
X0Y984D02*
X7Y984D01*
X1475Y984D02*
X1482Y984D01*
X0Y983D02*
X7Y983D01*
X1475Y983D02*
X1482Y983D01*
X0Y982D02*
X7Y982D01*
X1475Y982D02*
X1482Y982D01*
X0Y981D02*
X7Y981D01*
X1475Y981D02*
X1482Y981D01*
X0Y980D02*
X7Y980D01*
X1475Y980D02*
X1482Y980D01*
X0Y979D02*
X7Y979D01*
X1475Y979D02*
X1482Y979D01*
X0Y978D02*
X7Y978D01*
X1475Y978D02*
X1482Y978D01*
X0Y977D02*
X7Y977D01*
X1475Y977D02*
X1482Y977D01*
X0Y976D02*
X7Y976D01*
X1475Y976D02*
X1482Y976D01*
X0Y975D02*
X7Y975D01*
X1475Y975D02*
X1482Y975D01*
X0Y974D02*
X7Y974D01*
X1475Y974D02*
X1482Y974D01*
X0Y973D02*
X7Y973D01*
X1475Y973D02*
X1482Y973D01*
X0Y972D02*
X7Y972D01*
X1475Y972D02*
X1482Y972D01*
X0Y971D02*
X7Y971D01*
X1475Y971D02*
X1482Y971D01*
X0Y970D02*
X7Y970D01*
X1475Y970D02*
X1482Y970D01*
X0Y969D02*
X7Y969D01*
X1475Y969D02*
X1482Y969D01*
X0Y968D02*
X7Y968D01*
X1475Y968D02*
X1482Y968D01*
X0Y967D02*
X7Y967D01*
X1475Y967D02*
X1482Y967D01*
X0Y966D02*
X7Y966D01*
X1475Y966D02*
X1482Y966D01*
X0Y965D02*
X7Y965D01*
X1475Y965D02*
X1482Y965D01*
X0Y964D02*
X7Y964D01*
X1475Y964D02*
X1482Y964D01*
X0Y963D02*
X7Y963D01*
X1475Y963D02*
X1482Y963D01*
X0Y962D02*
X7Y962D01*
X1475Y962D02*
X1482Y962D01*
X0Y961D02*
X7Y961D01*
X1475Y961D02*
X1482Y961D01*
X0Y960D02*
X7Y960D01*
X1475Y960D02*
X1482Y960D01*
X0Y959D02*
X7Y959D01*
X1475Y959D02*
X1482Y959D01*
X0Y958D02*
X7Y958D01*
X1475Y958D02*
X1482Y958D01*
X0Y957D02*
X7Y957D01*
X1475Y957D02*
X1482Y957D01*
X0Y956D02*
X7Y956D01*
X1475Y956D02*
X1482Y956D01*
X0Y955D02*
X7Y955D01*
X1475Y955D02*
X1482Y955D01*
X0Y954D02*
X7Y954D01*
X1475Y954D02*
X1482Y954D01*
X0Y953D02*
X7Y953D01*
X1475Y953D02*
X1482Y953D01*
X0Y952D02*
X7Y952D01*
X1475Y952D02*
X1482Y952D01*
X0Y951D02*
X7Y951D01*
X1475Y951D02*
X1482Y951D01*
X0Y950D02*
X7Y950D01*
X1475Y950D02*
X1482Y950D01*
X0Y949D02*
X7Y949D01*
X1475Y949D02*
X1482Y949D01*
X0Y948D02*
X7Y948D01*
X1475Y948D02*
X1482Y948D01*
X0Y947D02*
X7Y947D01*
X1475Y947D02*
X1482Y947D01*
X0Y946D02*
X7Y946D01*
X1475Y946D02*
X1482Y946D01*
X0Y945D02*
X7Y945D01*
X1475Y945D02*
X1482Y945D01*
X0Y944D02*
X7Y944D01*
X1475Y944D02*
X1482Y944D01*
X0Y943D02*
X7Y943D01*
X1475Y943D02*
X1482Y943D01*
X0Y942D02*
X7Y942D01*
X1475Y942D02*
X1482Y942D01*
X0Y941D02*
X7Y941D01*
X1475Y941D02*
X1482Y941D01*
X0Y940D02*
X7Y940D01*
X1475Y940D02*
X1482Y940D01*
X0Y939D02*
X7Y939D01*
X1475Y939D02*
X1482Y939D01*
X0Y938D02*
X7Y938D01*
X1475Y938D02*
X1482Y938D01*
X0Y937D02*
X7Y937D01*
X1475Y937D02*
X1482Y937D01*
X0Y936D02*
X7Y936D01*
X1475Y936D02*
X1482Y936D01*
X0Y935D02*
X7Y935D01*
X1475Y935D02*
X1482Y935D01*
X0Y934D02*
X7Y934D01*
X1475Y934D02*
X1482Y934D01*
X0Y933D02*
X7Y933D01*
X1475Y933D02*
X1482Y933D01*
X0Y932D02*
X7Y932D01*
X1475Y932D02*
X1482Y932D01*
X0Y931D02*
X7Y931D01*
X1475Y931D02*
X1482Y931D01*
X0Y930D02*
X7Y930D01*
X1475Y930D02*
X1482Y930D01*
X0Y929D02*
X7Y929D01*
X1475Y929D02*
X1482Y929D01*
X0Y928D02*
X7Y928D01*
X1475Y928D02*
X1482Y928D01*
X0Y927D02*
X7Y927D01*
X1475Y927D02*
X1482Y927D01*
X0Y926D02*
X7Y926D01*
X1475Y926D02*
X1482Y926D01*
X0Y925D02*
X7Y925D01*
X1475Y925D02*
X1482Y925D01*
X0Y924D02*
X7Y924D01*
X1475Y924D02*
X1482Y924D01*
X0Y923D02*
X7Y923D01*
X1475Y923D02*
X1482Y923D01*
X0Y922D02*
X7Y922D01*
X1475Y922D02*
X1482Y922D01*
X0Y921D02*
X7Y921D01*
X1475Y921D02*
X1482Y921D01*
X0Y920D02*
X7Y920D01*
X1475Y920D02*
X1482Y920D01*
X0Y919D02*
X7Y919D01*
X1475Y919D02*
X1482Y919D01*
X0Y918D02*
X7Y918D01*
X1475Y918D02*
X1482Y918D01*
X0Y917D02*
X7Y917D01*
X1475Y917D02*
X1482Y917D01*
X0Y916D02*
X7Y916D01*
X1475Y916D02*
X1482Y916D01*
X0Y915D02*
X7Y915D01*
X1475Y915D02*
X1482Y915D01*
X0Y914D02*
X7Y914D01*
X1475Y914D02*
X1482Y914D01*
X0Y913D02*
X7Y913D01*
X1475Y913D02*
X1482Y913D01*
X0Y912D02*
X7Y912D01*
X1475Y912D02*
X1482Y912D01*
X0Y911D02*
X7Y911D01*
X1475Y911D02*
X1482Y911D01*
X0Y910D02*
X7Y910D01*
X1475Y910D02*
X1482Y910D01*
X0Y909D02*
X7Y909D01*
X1475Y909D02*
X1482Y909D01*
X0Y908D02*
X7Y908D01*
X1475Y908D02*
X1482Y908D01*
X0Y907D02*
X7Y907D01*
X1475Y907D02*
X1482Y907D01*
X0Y906D02*
X7Y906D01*
X1475Y906D02*
X1482Y906D01*
X0Y905D02*
X7Y905D01*
X1475Y905D02*
X1482Y905D01*
X0Y904D02*
X7Y904D01*
X1475Y904D02*
X1482Y904D01*
X0Y903D02*
X7Y903D01*
X1475Y903D02*
X1482Y903D01*
X0Y902D02*
X7Y902D01*
X1475Y902D02*
X1482Y902D01*
X0Y901D02*
X7Y901D01*
X1475Y901D02*
X1482Y901D01*
X0Y900D02*
X7Y900D01*
X1475Y900D02*
X1482Y900D01*
X0Y899D02*
X7Y899D01*
X1475Y899D02*
X1482Y899D01*
X0Y898D02*
X7Y898D01*
X1475Y898D02*
X1482Y898D01*
X0Y897D02*
X7Y897D01*
X1475Y897D02*
X1482Y897D01*
X0Y896D02*
X7Y896D01*
X1475Y896D02*
X1482Y896D01*
X0Y895D02*
X7Y895D01*
X1475Y895D02*
X1482Y895D01*
X0Y894D02*
X7Y894D01*
X1475Y894D02*
X1482Y894D01*
X0Y893D02*
X7Y893D01*
X1475Y893D02*
X1482Y893D01*
X0Y892D02*
X7Y892D01*
X1475Y892D02*
X1482Y892D01*
X0Y891D02*
X7Y891D01*
X1475Y891D02*
X1482Y891D01*
X0Y890D02*
X7Y890D01*
X1475Y890D02*
X1482Y890D01*
X0Y889D02*
X7Y889D01*
X1475Y889D02*
X1482Y889D01*
X0Y888D02*
X7Y888D01*
X1475Y888D02*
X1482Y888D01*
X0Y887D02*
X7Y887D01*
X1475Y887D02*
X1482Y887D01*
X0Y886D02*
X7Y886D01*
X1475Y886D02*
X1482Y886D01*
X0Y885D02*
X7Y885D01*
X1475Y885D02*
X1482Y885D01*
X0Y884D02*
X7Y884D01*
X1475Y884D02*
X1482Y884D01*
X0Y883D02*
X7Y883D01*
X1475Y883D02*
X1482Y883D01*
X0Y882D02*
X7Y882D01*
X1475Y882D02*
X1482Y882D01*
X0Y881D02*
X7Y881D01*
X1475Y881D02*
X1482Y881D01*
X0Y880D02*
X7Y880D01*
X1475Y880D02*
X1482Y880D01*
X0Y879D02*
X7Y879D01*
X1475Y879D02*
X1482Y879D01*
X0Y878D02*
X7Y878D01*
X1475Y878D02*
X1482Y878D01*
X0Y877D02*
X7Y877D01*
X1475Y877D02*
X1482Y877D01*
X0Y876D02*
X7Y876D01*
X1475Y876D02*
X1482Y876D01*
X0Y875D02*
X7Y875D01*
X1475Y875D02*
X1482Y875D01*
X0Y874D02*
X7Y874D01*
X1475Y874D02*
X1482Y874D01*
X0Y873D02*
X7Y873D01*
X1475Y873D02*
X1482Y873D01*
X0Y872D02*
X7Y872D01*
X1475Y872D02*
X1482Y872D01*
X0Y871D02*
X7Y871D01*
X1475Y871D02*
X1482Y871D01*
X0Y870D02*
X7Y870D01*
X1475Y870D02*
X1482Y870D01*
X0Y869D02*
X7Y869D01*
X1475Y869D02*
X1482Y869D01*
X0Y868D02*
X7Y868D01*
X1475Y868D02*
X1482Y868D01*
X0Y867D02*
X7Y867D01*
X1475Y867D02*
X1482Y867D01*
X0Y866D02*
X7Y866D01*
X1475Y866D02*
X1482Y866D01*
X0Y865D02*
X7Y865D01*
X1475Y865D02*
X1482Y865D01*
X0Y864D02*
X7Y864D01*
X1475Y864D02*
X1482Y864D01*
X0Y863D02*
X7Y863D01*
X1475Y863D02*
X1482Y863D01*
X0Y862D02*
X7Y862D01*
X1475Y862D02*
X1482Y862D01*
X0Y861D02*
X7Y861D01*
X1475Y861D02*
X1482Y861D01*
X0Y860D02*
X7Y860D01*
X1475Y860D02*
X1482Y860D01*
X0Y859D02*
X7Y859D01*
X1475Y859D02*
X1482Y859D01*
X0Y858D02*
X7Y858D01*
X1475Y858D02*
X1482Y858D01*
X0Y857D02*
X7Y857D01*
X1475Y857D02*
X1482Y857D01*
X0Y856D02*
X7Y856D01*
X1475Y856D02*
X1482Y856D01*
X0Y855D02*
X7Y855D01*
X1475Y855D02*
X1482Y855D01*
X0Y854D02*
X7Y854D01*
X1475Y854D02*
X1482Y854D01*
X0Y853D02*
X7Y853D01*
X1475Y853D02*
X1482Y853D01*
X0Y852D02*
X7Y852D01*
X1475Y852D02*
X1482Y852D01*
X0Y851D02*
X7Y851D01*
X1475Y851D02*
X1482Y851D01*
X0Y850D02*
X7Y850D01*
X1475Y850D02*
X1482Y850D01*
X0Y849D02*
X7Y849D01*
X1475Y849D02*
X1482Y849D01*
X0Y848D02*
X7Y848D01*
X1475Y848D02*
X1482Y848D01*
X0Y847D02*
X7Y847D01*
X1475Y847D02*
X1482Y847D01*
X0Y846D02*
X7Y846D01*
X1475Y846D02*
X1482Y846D01*
X0Y845D02*
X7Y845D01*
X1475Y845D02*
X1482Y845D01*
X0Y844D02*
X7Y844D01*
X1475Y844D02*
X1482Y844D01*
X0Y843D02*
X7Y843D01*
X1475Y843D02*
X1482Y843D01*
X0Y842D02*
X7Y842D01*
X1475Y842D02*
X1482Y842D01*
X0Y841D02*
X7Y841D01*
X1475Y841D02*
X1482Y841D01*
X0Y840D02*
X7Y840D01*
X1475Y840D02*
X1482Y840D01*
X0Y839D02*
X7Y839D01*
X1475Y839D02*
X1482Y839D01*
X0Y838D02*
X7Y838D01*
X1475Y838D02*
X1482Y838D01*
X0Y837D02*
X7Y837D01*
X1475Y837D02*
X1482Y837D01*
X0Y836D02*
X7Y836D01*
X1475Y836D02*
X1482Y836D01*
X0Y835D02*
X7Y835D01*
X1475Y835D02*
X1482Y835D01*
X0Y834D02*
X7Y834D01*
X1475Y834D02*
X1482Y834D01*
X0Y833D02*
X7Y833D01*
X1475Y833D02*
X1482Y833D01*
X0Y832D02*
X7Y832D01*
X1475Y832D02*
X1482Y832D01*
X0Y831D02*
X7Y831D01*
X1475Y831D02*
X1482Y831D01*
X0Y830D02*
X7Y830D01*
X1475Y830D02*
X1482Y830D01*
X0Y829D02*
X7Y829D01*
X1475Y829D02*
X1482Y829D01*
X0Y828D02*
X7Y828D01*
X1475Y828D02*
X1482Y828D01*
X0Y827D02*
X7Y827D01*
X1475Y827D02*
X1482Y827D01*
X0Y826D02*
X7Y826D01*
X1475Y826D02*
X1482Y826D01*
X0Y825D02*
X7Y825D01*
X1475Y825D02*
X1482Y825D01*
X0Y824D02*
X7Y824D01*
X1475Y824D02*
X1482Y824D01*
X0Y823D02*
X7Y823D01*
X1475Y823D02*
X1482Y823D01*
X0Y822D02*
X7Y822D01*
X1475Y822D02*
X1482Y822D01*
X0Y821D02*
X7Y821D01*
X1475Y821D02*
X1482Y821D01*
X0Y820D02*
X7Y820D01*
X1475Y820D02*
X1482Y820D01*
X0Y819D02*
X7Y819D01*
X1475Y819D02*
X1482Y819D01*
X0Y818D02*
X7Y818D01*
X1475Y818D02*
X1482Y818D01*
X0Y817D02*
X7Y817D01*
X1475Y817D02*
X1482Y817D01*
X0Y816D02*
X7Y816D01*
X1475Y816D02*
X1482Y816D01*
X0Y815D02*
X7Y815D01*
X1475Y815D02*
X1482Y815D01*
X0Y814D02*
X7Y814D01*
X1475Y814D02*
X1482Y814D01*
X0Y813D02*
X7Y813D01*
X1475Y813D02*
X1482Y813D01*
X0Y812D02*
X7Y812D01*
X1475Y812D02*
X1482Y812D01*
X0Y811D02*
X7Y811D01*
X1475Y811D02*
X1482Y811D01*
X0Y810D02*
X7Y810D01*
X1475Y810D02*
X1482Y810D01*
X0Y809D02*
X7Y809D01*
X1475Y809D02*
X1482Y809D01*
X0Y808D02*
X7Y808D01*
X1475Y808D02*
X1482Y808D01*
X0Y807D02*
X7Y807D01*
X1475Y807D02*
X1482Y807D01*
X0Y806D02*
X7Y806D01*
X1475Y806D02*
X1482Y806D01*
X0Y805D02*
X7Y805D01*
X1475Y805D02*
X1482Y805D01*
X0Y804D02*
X7Y804D01*
X1475Y804D02*
X1482Y804D01*
X0Y803D02*
X7Y803D01*
X1475Y803D02*
X1482Y803D01*
X0Y802D02*
X7Y802D01*
X1475Y802D02*
X1482Y802D01*
X0Y801D02*
X7Y801D01*
X1475Y801D02*
X1482Y801D01*
X0Y800D02*
X7Y800D01*
X1475Y800D02*
X1482Y800D01*
X0Y799D02*
X7Y799D01*
X1475Y799D02*
X1482Y799D01*
X0Y798D02*
X7Y798D01*
X1475Y798D02*
X1482Y798D01*
X0Y797D02*
X7Y797D01*
X1475Y797D02*
X1482Y797D01*
X0Y796D02*
X7Y796D01*
X1475Y796D02*
X1482Y796D01*
X0Y795D02*
X7Y795D01*
X1475Y795D02*
X1482Y795D01*
X0Y794D02*
X7Y794D01*
X1475Y794D02*
X1482Y794D01*
X0Y793D02*
X7Y793D01*
X1475Y793D02*
X1482Y793D01*
X0Y792D02*
X7Y792D01*
X1475Y792D02*
X1482Y792D01*
X0Y791D02*
X7Y791D01*
X1475Y791D02*
X1482Y791D01*
X0Y790D02*
X7Y790D01*
X1475Y790D02*
X1482Y790D01*
X0Y789D02*
X7Y789D01*
X1475Y789D02*
X1482Y789D01*
X0Y788D02*
X7Y788D01*
X1475Y788D02*
X1482Y788D01*
X0Y787D02*
X7Y787D01*
X1475Y787D02*
X1482Y787D01*
X0Y786D02*
X7Y786D01*
X1475Y786D02*
X1482Y786D01*
X0Y785D02*
X7Y785D01*
X1475Y785D02*
X1482Y785D01*
X0Y784D02*
X7Y784D01*
X1475Y784D02*
X1482Y784D01*
X0Y783D02*
X7Y783D01*
X1475Y783D02*
X1482Y783D01*
X0Y782D02*
X7Y782D01*
X1475Y782D02*
X1482Y782D01*
X0Y781D02*
X7Y781D01*
X1475Y781D02*
X1482Y781D01*
X0Y780D02*
X7Y780D01*
X1475Y780D02*
X1482Y780D01*
X0Y779D02*
X7Y779D01*
X1475Y779D02*
X1482Y779D01*
X0Y778D02*
X7Y778D01*
X1475Y778D02*
X1482Y778D01*
X0Y777D02*
X7Y777D01*
X1475Y777D02*
X1482Y777D01*
X0Y776D02*
X7Y776D01*
X1475Y776D02*
X1482Y776D01*
X0Y775D02*
X7Y775D01*
X1475Y775D02*
X1482Y775D01*
X0Y774D02*
X7Y774D01*
X1475Y774D02*
X1482Y774D01*
X0Y773D02*
X7Y773D01*
X1475Y773D02*
X1482Y773D01*
X0Y772D02*
X7Y772D01*
X1475Y772D02*
X1482Y772D01*
X0Y771D02*
X7Y771D01*
X1475Y771D02*
X1482Y771D01*
X0Y770D02*
X7Y770D01*
X1475Y770D02*
X1482Y770D01*
X0Y769D02*
X7Y769D01*
X1475Y769D02*
X1482Y769D01*
X0Y768D02*
X7Y768D01*
X1475Y768D02*
X1482Y768D01*
X0Y767D02*
X7Y767D01*
X1475Y767D02*
X1482Y767D01*
X0Y766D02*
X7Y766D01*
X1475Y766D02*
X1482Y766D01*
X0Y765D02*
X7Y765D01*
X1475Y765D02*
X1482Y765D01*
X0Y764D02*
X7Y764D01*
X1475Y764D02*
X1482Y764D01*
X0Y763D02*
X7Y763D01*
X1475Y763D02*
X1482Y763D01*
X0Y762D02*
X7Y762D01*
X1475Y762D02*
X1482Y762D01*
X0Y761D02*
X7Y761D01*
X1475Y761D02*
X1482Y761D01*
X0Y760D02*
X7Y760D01*
X1475Y760D02*
X1482Y760D01*
X0Y759D02*
X7Y759D01*
X1475Y759D02*
X1482Y759D01*
X0Y758D02*
X7Y758D01*
X1475Y758D02*
X1482Y758D01*
X0Y757D02*
X7Y757D01*
X1475Y757D02*
X1482Y757D01*
X0Y756D02*
X7Y756D01*
X1475Y756D02*
X1482Y756D01*
X0Y755D02*
X7Y755D01*
X1475Y755D02*
X1482Y755D01*
X0Y754D02*
X7Y754D01*
X1475Y754D02*
X1482Y754D01*
X0Y753D02*
X7Y753D01*
X1475Y753D02*
X1482Y753D01*
X0Y752D02*
X7Y752D01*
X1475Y752D02*
X1482Y752D01*
X0Y751D02*
X7Y751D01*
X1475Y751D02*
X1482Y751D01*
X0Y750D02*
X7Y750D01*
X1475Y750D02*
X1482Y750D01*
X0Y749D02*
X7Y749D01*
X1475Y749D02*
X1482Y749D01*
X0Y748D02*
X7Y748D01*
X1475Y748D02*
X1482Y748D01*
X0Y747D02*
X7Y747D01*
X1475Y747D02*
X1482Y747D01*
X0Y746D02*
X7Y746D01*
X1475Y746D02*
X1482Y746D01*
X0Y745D02*
X7Y745D01*
X1475Y745D02*
X1482Y745D01*
X0Y744D02*
X7Y744D01*
X1475Y744D02*
X1482Y744D01*
X0Y743D02*
X7Y743D01*
X1475Y743D02*
X1482Y743D01*
X0Y742D02*
X7Y742D01*
X1475Y742D02*
X1482Y742D01*
X0Y741D02*
X7Y741D01*
X1475Y741D02*
X1482Y741D01*
X0Y740D02*
X7Y740D01*
X1475Y740D02*
X1482Y740D01*
X0Y739D02*
X7Y739D01*
X1475Y739D02*
X1482Y739D01*
X0Y738D02*
X7Y738D01*
X1475Y738D02*
X1482Y738D01*
X0Y737D02*
X7Y737D01*
X1475Y737D02*
X1482Y737D01*
X0Y736D02*
X7Y736D01*
X1475Y736D02*
X1482Y736D01*
X0Y735D02*
X7Y735D01*
X1475Y735D02*
X1482Y735D01*
X0Y734D02*
X7Y734D01*
X1475Y734D02*
X1482Y734D01*
X0Y733D02*
X7Y733D01*
X1475Y733D02*
X1482Y733D01*
X0Y732D02*
X7Y732D01*
X1475Y732D02*
X1482Y732D01*
X0Y731D02*
X7Y731D01*
X1475Y731D02*
X1482Y731D01*
X0Y730D02*
X7Y730D01*
X1475Y730D02*
X1482Y730D01*
X0Y729D02*
X7Y729D01*
X1475Y729D02*
X1482Y729D01*
X0Y728D02*
X7Y728D01*
X1475Y728D02*
X1482Y728D01*
X0Y727D02*
X7Y727D01*
X1475Y727D02*
X1482Y727D01*
X0Y726D02*
X7Y726D01*
X1475Y726D02*
X1482Y726D01*
X0Y725D02*
X7Y725D01*
X1475Y725D02*
X1482Y725D01*
X0Y724D02*
X7Y724D01*
X1475Y724D02*
X1482Y724D01*
X0Y723D02*
X7Y723D01*
X1475Y723D02*
X1482Y723D01*
X0Y722D02*
X7Y722D01*
X1475Y722D02*
X1482Y722D01*
X0Y721D02*
X7Y721D01*
X1475Y721D02*
X1482Y721D01*
X0Y720D02*
X7Y720D01*
X1475Y720D02*
X1482Y720D01*
X0Y719D02*
X7Y719D01*
X1475Y719D02*
X1482Y719D01*
X0Y718D02*
X7Y718D01*
X1475Y718D02*
X1482Y718D01*
X0Y717D02*
X7Y717D01*
X1475Y717D02*
X1482Y717D01*
X0Y716D02*
X7Y716D01*
X1475Y716D02*
X1482Y716D01*
X0Y715D02*
X7Y715D01*
X1475Y715D02*
X1482Y715D01*
X0Y714D02*
X7Y714D01*
X1475Y714D02*
X1482Y714D01*
X0Y713D02*
X7Y713D01*
X1475Y713D02*
X1482Y713D01*
X0Y712D02*
X7Y712D01*
X1475Y712D02*
X1482Y712D01*
X0Y711D02*
X7Y711D01*
X1475Y711D02*
X1482Y711D01*
X0Y710D02*
X7Y710D01*
X1475Y710D02*
X1482Y710D01*
X0Y709D02*
X7Y709D01*
X1475Y709D02*
X1482Y709D01*
X0Y708D02*
X7Y708D01*
X1475Y708D02*
X1482Y708D01*
X0Y707D02*
X7Y707D01*
X1475Y707D02*
X1482Y707D01*
X0Y706D02*
X7Y706D01*
X1475Y706D02*
X1482Y706D01*
X0Y705D02*
X7Y705D01*
X1475Y705D02*
X1482Y705D01*
X0Y704D02*
X7Y704D01*
X1475Y704D02*
X1482Y704D01*
X0Y703D02*
X7Y703D01*
X1475Y703D02*
X1482Y703D01*
X0Y702D02*
X7Y702D01*
X1475Y702D02*
X1482Y702D01*
X0Y701D02*
X7Y701D01*
X1475Y701D02*
X1482Y701D01*
X0Y700D02*
X7Y700D01*
X1475Y700D02*
X1482Y700D01*
X0Y699D02*
X7Y699D01*
X1475Y699D02*
X1482Y699D01*
X0Y698D02*
X7Y698D01*
X1475Y698D02*
X1482Y698D01*
X0Y697D02*
X7Y697D01*
X1475Y697D02*
X1482Y697D01*
X0Y696D02*
X7Y696D01*
X1475Y696D02*
X1482Y696D01*
X0Y695D02*
X7Y695D01*
X1475Y695D02*
X1482Y695D01*
X0Y694D02*
X7Y694D01*
X1475Y694D02*
X1482Y694D01*
X0Y693D02*
X7Y693D01*
X1475Y693D02*
X1482Y693D01*
X0Y692D02*
X7Y692D01*
X1475Y692D02*
X1482Y692D01*
X0Y691D02*
X7Y691D01*
X1475Y691D02*
X1482Y691D01*
X0Y690D02*
X7Y690D01*
X1475Y690D02*
X1482Y690D01*
X0Y689D02*
X7Y689D01*
X1475Y689D02*
X1482Y689D01*
X0Y688D02*
X7Y688D01*
X1475Y688D02*
X1482Y688D01*
X0Y687D02*
X7Y687D01*
X1475Y687D02*
X1482Y687D01*
X0Y686D02*
X7Y686D01*
X1475Y686D02*
X1482Y686D01*
X0Y685D02*
X7Y685D01*
X1475Y685D02*
X1482Y685D01*
X0Y684D02*
X7Y684D01*
X1475Y684D02*
X1482Y684D01*
X0Y683D02*
X7Y683D01*
X1475Y683D02*
X1482Y683D01*
X0Y682D02*
X7Y682D01*
X1475Y682D02*
X1482Y682D01*
X0Y681D02*
X7Y681D01*
X1475Y681D02*
X1482Y681D01*
X0Y680D02*
X7Y680D01*
X1475Y680D02*
X1482Y680D01*
X0Y679D02*
X7Y679D01*
X1475Y679D02*
X1482Y679D01*
X0Y678D02*
X7Y678D01*
X1475Y678D02*
X1482Y678D01*
X0Y677D02*
X7Y677D01*
X1475Y677D02*
X1482Y677D01*
X0Y676D02*
X7Y676D01*
X1475Y676D02*
X1482Y676D01*
X0Y675D02*
X7Y675D01*
X1475Y675D02*
X1482Y675D01*
X0Y674D02*
X7Y674D01*
X1475Y674D02*
X1482Y674D01*
X0Y673D02*
X7Y673D01*
X1475Y673D02*
X1482Y673D01*
X0Y672D02*
X7Y672D01*
X1475Y672D02*
X1482Y672D01*
X0Y671D02*
X7Y671D01*
X1475Y671D02*
X1482Y671D01*
X0Y670D02*
X7Y670D01*
X1475Y670D02*
X1482Y670D01*
X0Y669D02*
X7Y669D01*
X1475Y669D02*
X1482Y669D01*
X0Y668D02*
X7Y668D01*
X1475Y668D02*
X1482Y668D01*
X0Y667D02*
X7Y667D01*
X1475Y667D02*
X1482Y667D01*
X0Y666D02*
X7Y666D01*
X1475Y666D02*
X1482Y666D01*
X0Y665D02*
X7Y665D01*
X1475Y665D02*
X1482Y665D01*
X0Y664D02*
X7Y664D01*
X1475Y664D02*
X1482Y664D01*
X0Y663D02*
X7Y663D01*
X1475Y663D02*
X1482Y663D01*
X0Y662D02*
X7Y662D01*
X1475Y662D02*
X1482Y662D01*
X0Y661D02*
X7Y661D01*
X1475Y661D02*
X1482Y661D01*
X0Y660D02*
X7Y660D01*
X1475Y660D02*
X1482Y660D01*
X0Y659D02*
X7Y659D01*
X1475Y659D02*
X1482Y659D01*
X0Y658D02*
X7Y658D01*
X1475Y658D02*
X1482Y658D01*
X0Y657D02*
X7Y657D01*
X1475Y657D02*
X1482Y657D01*
X0Y656D02*
X7Y656D01*
X1475Y656D02*
X1482Y656D01*
X0Y655D02*
X7Y655D01*
X1475Y655D02*
X1482Y655D01*
X0Y654D02*
X7Y654D01*
X1475Y654D02*
X1482Y654D01*
X0Y653D02*
X7Y653D01*
X1475Y653D02*
X1482Y653D01*
X0Y652D02*
X7Y652D01*
X1475Y652D02*
X1482Y652D01*
X0Y651D02*
X7Y651D01*
X1475Y651D02*
X1482Y651D01*
X0Y650D02*
X7Y650D01*
X1475Y650D02*
X1482Y650D01*
X0Y649D02*
X7Y649D01*
X1475Y649D02*
X1482Y649D01*
X0Y648D02*
X7Y648D01*
X1475Y648D02*
X1482Y648D01*
X0Y647D02*
X7Y647D01*
X1475Y647D02*
X1482Y647D01*
X0Y646D02*
X7Y646D01*
X1475Y646D02*
X1482Y646D01*
X0Y645D02*
X7Y645D01*
X1475Y645D02*
X1482Y645D01*
X0Y644D02*
X7Y644D01*
X1475Y644D02*
X1482Y644D01*
X0Y643D02*
X7Y643D01*
X1475Y643D02*
X1482Y643D01*
X0Y642D02*
X7Y642D01*
X36Y642D02*
X51Y642D01*
X68Y642D02*
X83Y642D01*
X1475Y642D02*
X1482Y642D01*
X0Y641D02*
X7Y641D01*
X33Y641D02*
X56Y641D01*
X64Y641D02*
X87Y641D01*
X1475Y641D02*
X1482Y641D01*
X0Y640D02*
X7Y640D01*
X31Y640D02*
X58Y640D01*
X62Y640D02*
X88Y640D01*
X1475Y640D02*
X1482Y640D01*
X0Y639D02*
X7Y639D01*
X30Y639D02*
X89Y639D01*
X1475Y639D02*
X1482Y639D01*
X0Y638D02*
X7Y638D01*
X30Y638D02*
X90Y638D01*
X1475Y638D02*
X1482Y638D01*
X0Y637D02*
X7Y637D01*
X29Y637D02*
X90Y637D01*
X1475Y637D02*
X1482Y637D01*
X0Y636D02*
X7Y636D01*
X29Y636D02*
X91Y636D01*
X1475Y636D02*
X1482Y636D01*
X0Y635D02*
X7Y635D01*
X29Y635D02*
X91Y635D01*
X1475Y635D02*
X1482Y635D01*
X0Y634D02*
X7Y634D01*
X28Y634D02*
X91Y634D01*
X1475Y634D02*
X1482Y634D01*
X0Y633D02*
X7Y633D01*
X28Y633D02*
X36Y633D01*
X54Y633D02*
X65Y633D01*
X84Y633D02*
X91Y633D01*
X1475Y633D02*
X1482Y633D01*
X0Y632D02*
X7Y632D01*
X28Y632D02*
X36Y632D01*
X55Y632D02*
X64Y632D01*
X84Y632D02*
X91Y632D01*
X1475Y632D02*
X1482Y632D01*
X0Y631D02*
X7Y631D01*
X28Y631D02*
X36Y631D01*
X56Y631D02*
X64Y631D01*
X84Y631D02*
X91Y631D01*
X1475Y631D02*
X1482Y631D01*
X0Y630D02*
X7Y630D01*
X28Y630D02*
X36Y630D01*
X56Y630D02*
X63Y630D01*
X84Y630D02*
X91Y630D01*
X1475Y630D02*
X1482Y630D01*
X0Y629D02*
X7Y629D01*
X28Y629D02*
X36Y629D01*
X56Y629D02*
X63Y629D01*
X84Y629D02*
X91Y629D01*
X1475Y629D02*
X1482Y629D01*
X0Y628D02*
X7Y628D01*
X28Y628D02*
X36Y628D01*
X56Y628D02*
X63Y628D01*
X84Y628D02*
X91Y628D01*
X1475Y628D02*
X1482Y628D01*
X0Y627D02*
X7Y627D01*
X28Y627D02*
X36Y627D01*
X56Y627D02*
X63Y627D01*
X84Y627D02*
X91Y627D01*
X1475Y627D02*
X1482Y627D01*
X0Y626D02*
X7Y626D01*
X28Y626D02*
X36Y626D01*
X56Y626D02*
X63Y626D01*
X84Y626D02*
X91Y626D01*
X1475Y626D02*
X1482Y626D01*
X0Y625D02*
X7Y625D01*
X28Y625D02*
X36Y625D01*
X56Y625D02*
X63Y625D01*
X84Y625D02*
X91Y625D01*
X1475Y625D02*
X1482Y625D01*
X0Y624D02*
X7Y624D01*
X28Y624D02*
X36Y624D01*
X56Y624D02*
X63Y624D01*
X84Y624D02*
X91Y624D01*
X1475Y624D02*
X1482Y624D01*
X0Y623D02*
X7Y623D01*
X28Y623D02*
X36Y623D01*
X56Y623D02*
X63Y623D01*
X84Y623D02*
X91Y623D01*
X1475Y623D02*
X1482Y623D01*
X0Y622D02*
X7Y622D01*
X28Y622D02*
X36Y622D01*
X56Y622D02*
X63Y622D01*
X84Y622D02*
X91Y622D01*
X1475Y622D02*
X1482Y622D01*
X0Y621D02*
X7Y621D01*
X28Y621D02*
X36Y621D01*
X56Y621D02*
X63Y621D01*
X84Y621D02*
X91Y621D01*
X1475Y621D02*
X1482Y621D01*
X0Y620D02*
X7Y620D01*
X28Y620D02*
X36Y620D01*
X56Y620D02*
X63Y620D01*
X84Y620D02*
X91Y620D01*
X1475Y620D02*
X1482Y620D01*
X0Y619D02*
X7Y619D01*
X28Y619D02*
X36Y619D01*
X56Y619D02*
X63Y619D01*
X84Y619D02*
X91Y619D01*
X1475Y619D02*
X1482Y619D01*
X0Y618D02*
X7Y618D01*
X28Y618D02*
X36Y618D01*
X56Y618D02*
X63Y618D01*
X84Y618D02*
X91Y618D01*
X1475Y618D02*
X1482Y618D01*
X0Y617D02*
X7Y617D01*
X28Y617D02*
X36Y617D01*
X56Y617D02*
X63Y617D01*
X84Y617D02*
X91Y617D01*
X1475Y617D02*
X1482Y617D01*
X0Y616D02*
X7Y616D01*
X28Y616D02*
X36Y616D01*
X56Y616D02*
X63Y616D01*
X84Y616D02*
X91Y616D01*
X1475Y616D02*
X1482Y616D01*
X0Y615D02*
X7Y615D01*
X28Y615D02*
X36Y615D01*
X56Y615D02*
X63Y615D01*
X84Y615D02*
X91Y615D01*
X1475Y615D02*
X1482Y615D01*
X0Y614D02*
X7Y614D01*
X28Y614D02*
X36Y614D01*
X56Y614D02*
X63Y614D01*
X84Y614D02*
X91Y614D01*
X1475Y614D02*
X1482Y614D01*
X0Y613D02*
X7Y613D01*
X28Y613D02*
X36Y613D01*
X56Y613D02*
X63Y613D01*
X84Y613D02*
X91Y613D01*
X1475Y613D02*
X1482Y613D01*
X0Y612D02*
X7Y612D01*
X28Y612D02*
X36Y612D01*
X56Y612D02*
X63Y612D01*
X84Y612D02*
X91Y612D01*
X1475Y612D02*
X1482Y612D01*
X0Y611D02*
X7Y611D01*
X28Y611D02*
X36Y611D01*
X57Y611D02*
X62Y611D01*
X84Y611D02*
X91Y611D01*
X1475Y611D02*
X1482Y611D01*
X0Y610D02*
X7Y610D01*
X28Y610D02*
X36Y610D01*
X58Y610D02*
X61Y610D01*
X84Y610D02*
X91Y610D01*
X1475Y610D02*
X1482Y610D01*
X0Y609D02*
X7Y609D01*
X28Y609D02*
X36Y609D01*
X84Y609D02*
X91Y609D01*
X1475Y609D02*
X1482Y609D01*
X0Y608D02*
X7Y608D01*
X28Y608D02*
X36Y608D01*
X84Y608D02*
X91Y608D01*
X1475Y608D02*
X1482Y608D01*
X0Y607D02*
X7Y607D01*
X28Y607D02*
X36Y607D01*
X84Y607D02*
X91Y607D01*
X1475Y607D02*
X1482Y607D01*
X0Y606D02*
X7Y606D01*
X28Y606D02*
X36Y606D01*
X84Y606D02*
X91Y606D01*
X1475Y606D02*
X1482Y606D01*
X0Y605D02*
X7Y605D01*
X29Y605D02*
X36Y605D01*
X84Y605D02*
X91Y605D01*
X1475Y605D02*
X1482Y605D01*
X0Y604D02*
X7Y604D01*
X29Y604D02*
X35Y604D01*
X84Y604D02*
X91Y604D01*
X1475Y604D02*
X1482Y604D01*
X0Y603D02*
X7Y603D01*
X29Y603D02*
X35Y603D01*
X85Y603D02*
X90Y603D01*
X1475Y603D02*
X1482Y603D01*
X0Y602D02*
X7Y602D01*
X31Y602D02*
X34Y602D01*
X86Y602D02*
X89Y602D01*
X1475Y602D02*
X1482Y602D01*
X0Y601D02*
X7Y601D01*
X1475Y601D02*
X1482Y601D01*
X0Y600D02*
X7Y600D01*
X1475Y600D02*
X1482Y600D01*
X0Y599D02*
X7Y599D01*
X1475Y599D02*
X1482Y599D01*
X0Y598D02*
X7Y598D01*
X1475Y598D02*
X1482Y598D01*
X0Y597D02*
X7Y597D01*
X1475Y597D02*
X1482Y597D01*
X0Y596D02*
X7Y596D01*
X1475Y596D02*
X1482Y596D01*
X0Y595D02*
X7Y595D01*
X1475Y595D02*
X1482Y595D01*
X0Y594D02*
X7Y594D01*
X1475Y594D02*
X1482Y594D01*
X0Y593D02*
X7Y593D01*
X1475Y593D02*
X1482Y593D01*
X0Y592D02*
X7Y592D01*
X1475Y592D02*
X1482Y592D01*
X0Y591D02*
X7Y591D01*
X1475Y591D02*
X1482Y591D01*
X0Y590D02*
X7Y590D01*
X1475Y590D02*
X1482Y590D01*
X0Y589D02*
X7Y589D01*
X1475Y589D02*
X1482Y589D01*
X0Y588D02*
X7Y588D01*
X1475Y588D02*
X1482Y588D01*
X0Y587D02*
X7Y587D01*
X1475Y587D02*
X1482Y587D01*
X0Y586D02*
X7Y586D01*
X1475Y586D02*
X1482Y586D01*
X0Y585D02*
X7Y585D01*
X1475Y585D02*
X1482Y585D01*
X0Y584D02*
X7Y584D01*
X1475Y584D02*
X1482Y584D01*
X0Y583D02*
X7Y583D01*
X49Y583D02*
X56Y583D01*
X1475Y583D02*
X1482Y583D01*
X0Y582D02*
X7Y582D01*
X47Y582D02*
X59Y582D01*
X1475Y582D02*
X1482Y582D01*
X0Y581D02*
X7Y581D01*
X46Y581D02*
X61Y581D01*
X1475Y581D02*
X1482Y581D01*
X0Y580D02*
X7Y580D01*
X46Y580D02*
X64Y580D01*
X1475Y580D02*
X1482Y580D01*
X0Y579D02*
X7Y579D01*
X46Y579D02*
X66Y579D01*
X1475Y579D02*
X1482Y579D01*
X0Y578D02*
X7Y578D01*
X46Y578D02*
X68Y578D01*
X1475Y578D02*
X1482Y578D01*
X0Y577D02*
X7Y577D01*
X46Y577D02*
X70Y577D01*
X1475Y577D02*
X1482Y577D01*
X0Y576D02*
X7Y576D01*
X47Y576D02*
X73Y576D01*
X1475Y576D02*
X1482Y576D01*
X0Y575D02*
X7Y575D01*
X49Y575D02*
X75Y575D01*
X1475Y575D02*
X1482Y575D01*
X0Y574D02*
X7Y574D01*
X58Y574D02*
X77Y574D01*
X1475Y574D02*
X1482Y574D01*
X0Y573D02*
X7Y573D01*
X60Y573D02*
X80Y573D01*
X1475Y573D02*
X1482Y573D01*
X0Y572D02*
X7Y572D01*
X62Y572D02*
X82Y572D01*
X1475Y572D02*
X1482Y572D01*
X0Y571D02*
X7Y571D01*
X65Y571D02*
X84Y571D01*
X1475Y571D02*
X1482Y571D01*
X0Y570D02*
X7Y570D01*
X67Y570D02*
X86Y570D01*
X1475Y570D02*
X1482Y570D01*
X0Y569D02*
X7Y569D01*
X69Y569D02*
X89Y569D01*
X1475Y569D02*
X1482Y569D01*
X0Y568D02*
X7Y568D01*
X71Y568D02*
X90Y568D01*
X1475Y568D02*
X1482Y568D01*
X0Y567D02*
X7Y567D01*
X74Y567D02*
X91Y567D01*
X1475Y567D02*
X1482Y567D01*
X0Y566D02*
X7Y566D01*
X76Y566D02*
X91Y566D01*
X1475Y566D02*
X1482Y566D01*
X0Y565D02*
X7Y565D01*
X78Y565D02*
X91Y565D01*
X1475Y565D02*
X1482Y565D01*
X0Y564D02*
X7Y564D01*
X81Y564D02*
X91Y564D01*
X1475Y564D02*
X1482Y564D01*
X0Y563D02*
X7Y563D01*
X83Y563D02*
X91Y563D01*
X1475Y563D02*
X1482Y563D01*
X0Y562D02*
X7Y562D01*
X82Y562D02*
X91Y562D01*
X1475Y562D02*
X1482Y562D01*
X0Y561D02*
X7Y561D01*
X80Y561D02*
X91Y561D01*
X1475Y561D02*
X1482Y561D01*
X0Y560D02*
X7Y560D01*
X77Y560D02*
X91Y560D01*
X1475Y560D02*
X1482Y560D01*
X0Y559D02*
X7Y559D01*
X75Y559D02*
X91Y559D01*
X1475Y559D02*
X1482Y559D01*
X0Y558D02*
X7Y558D01*
X73Y558D02*
X90Y558D01*
X1475Y558D02*
X1482Y558D01*
X0Y557D02*
X7Y557D01*
X70Y557D02*
X89Y557D01*
X1475Y557D02*
X1482Y557D01*
X0Y556D02*
X7Y556D01*
X68Y556D02*
X88Y556D01*
X1475Y556D02*
X1482Y556D01*
X0Y555D02*
X7Y555D01*
X66Y555D02*
X85Y555D01*
X1475Y555D02*
X1482Y555D01*
X0Y554D02*
X7Y554D01*
X63Y554D02*
X83Y554D01*
X1475Y554D02*
X1482Y554D01*
X0Y553D02*
X7Y553D01*
X61Y553D02*
X81Y553D01*
X1475Y553D02*
X1482Y553D01*
X0Y552D02*
X7Y552D01*
X59Y552D02*
X78Y552D01*
X1475Y552D02*
X1482Y552D01*
X0Y551D02*
X7Y551D01*
X57Y551D02*
X76Y551D01*
X1475Y551D02*
X1482Y551D01*
X0Y550D02*
X7Y550D01*
X48Y550D02*
X74Y550D01*
X1475Y550D02*
X1482Y550D01*
X0Y549D02*
X7Y549D01*
X47Y549D02*
X72Y549D01*
X1475Y549D02*
X1482Y549D01*
X0Y548D02*
X7Y548D01*
X46Y548D02*
X69Y548D01*
X1475Y548D02*
X1482Y548D01*
X0Y547D02*
X7Y547D01*
X46Y547D02*
X67Y547D01*
X1475Y547D02*
X1482Y547D01*
X0Y546D02*
X7Y546D01*
X46Y546D02*
X65Y546D01*
X1475Y546D02*
X1482Y546D01*
X0Y545D02*
X7Y545D01*
X46Y545D02*
X62Y545D01*
X1475Y545D02*
X1482Y545D01*
X0Y544D02*
X7Y544D01*
X47Y544D02*
X60Y544D01*
X1475Y544D02*
X1482Y544D01*
X0Y543D02*
X7Y543D01*
X48Y543D02*
X58Y543D01*
X1475Y543D02*
X1482Y543D01*
X0Y542D02*
X7Y542D01*
X1475Y542D02*
X1482Y542D01*
X0Y541D02*
X7Y541D01*
X1475Y541D02*
X1482Y541D01*
X0Y540D02*
X7Y540D01*
X1475Y540D02*
X1482Y540D01*
X0Y539D02*
X7Y539D01*
X1475Y539D02*
X1482Y539D01*
X0Y538D02*
X7Y538D01*
X1475Y538D02*
X1482Y538D01*
X0Y537D02*
X7Y537D01*
X1475Y537D02*
X1482Y537D01*
X0Y536D02*
X7Y536D01*
X1475Y536D02*
X1482Y536D01*
X0Y535D02*
X7Y535D01*
X1475Y535D02*
X1482Y535D01*
X0Y534D02*
X7Y534D01*
X1475Y534D02*
X1482Y534D01*
X0Y533D02*
X7Y533D01*
X1475Y533D02*
X1482Y533D01*
X0Y532D02*
X7Y532D01*
X1475Y532D02*
X1482Y532D01*
X0Y531D02*
X7Y531D01*
X1475Y531D02*
X1482Y531D01*
X0Y530D02*
X7Y530D01*
X1475Y530D02*
X1482Y530D01*
X0Y529D02*
X7Y529D01*
X1475Y529D02*
X1482Y529D01*
X0Y528D02*
X7Y528D01*
X1475Y528D02*
X1482Y528D01*
X0Y527D02*
X7Y527D01*
X1475Y527D02*
X1482Y527D01*
X0Y526D02*
X7Y526D01*
X1475Y526D02*
X1482Y526D01*
X0Y525D02*
X7Y525D01*
X1475Y525D02*
X1482Y525D01*
X0Y524D02*
X7Y524D01*
X1475Y524D02*
X1482Y524D01*
X0Y523D02*
X7Y523D01*
X1475Y523D02*
X1482Y523D01*
X0Y522D02*
X7Y522D01*
X1475Y522D02*
X1482Y522D01*
X0Y521D02*
X7Y521D01*
X1475Y521D02*
X1482Y521D01*
X0Y520D02*
X7Y520D01*
X1475Y520D02*
X1482Y520D01*
X0Y519D02*
X7Y519D01*
X1475Y519D02*
X1482Y519D01*
X0Y518D02*
X7Y518D01*
X1475Y518D02*
X1482Y518D01*
X0Y517D02*
X7Y517D01*
X1475Y517D02*
X1482Y517D01*
X0Y516D02*
X7Y516D01*
X1475Y516D02*
X1482Y516D01*
X0Y515D02*
X7Y515D01*
X1475Y515D02*
X1482Y515D01*
X0Y514D02*
X7Y514D01*
X1475Y514D02*
X1482Y514D01*
X0Y513D02*
X7Y513D01*
X1475Y513D02*
X1482Y513D01*
X0Y512D02*
X7Y512D01*
X1475Y512D02*
X1482Y512D01*
X0Y511D02*
X7Y511D01*
X1475Y511D02*
X1482Y511D01*
X0Y510D02*
X7Y510D01*
X1475Y510D02*
X1482Y510D01*
X0Y509D02*
X7Y509D01*
X1475Y509D02*
X1482Y509D01*
X0Y508D02*
X7Y508D01*
X1475Y508D02*
X1482Y508D01*
X0Y507D02*
X7Y507D01*
X1475Y507D02*
X1482Y507D01*
X0Y506D02*
X7Y506D01*
X1475Y506D02*
X1482Y506D01*
X0Y505D02*
X7Y505D01*
X1475Y505D02*
X1482Y505D01*
X0Y504D02*
X7Y504D01*
X1475Y504D02*
X1482Y504D01*
X0Y503D02*
X7Y503D01*
X1475Y503D02*
X1482Y503D01*
X0Y502D02*
X7Y502D01*
X1475Y502D02*
X1482Y502D01*
X0Y501D02*
X7Y501D01*
X1475Y501D02*
X1482Y501D01*
X0Y500D02*
X7Y500D01*
X1475Y500D02*
X1482Y500D01*
X0Y499D02*
X7Y499D01*
X1475Y499D02*
X1482Y499D01*
X0Y498D02*
X7Y498D01*
X1475Y498D02*
X1482Y498D01*
X0Y497D02*
X7Y497D01*
X1475Y497D02*
X1482Y497D01*
X0Y496D02*
X7Y496D01*
X1475Y496D02*
X1482Y496D01*
X0Y495D02*
X7Y495D01*
X1475Y495D02*
X1482Y495D01*
X0Y494D02*
X7Y494D01*
X1475Y494D02*
X1482Y494D01*
X0Y493D02*
X7Y493D01*
X1475Y493D02*
X1482Y493D01*
X0Y492D02*
X7Y492D01*
X1475Y492D02*
X1482Y492D01*
X0Y491D02*
X7Y491D01*
X1475Y491D02*
X1482Y491D01*
X0Y490D02*
X7Y490D01*
X1475Y490D02*
X1482Y490D01*
X0Y489D02*
X7Y489D01*
X1475Y489D02*
X1482Y489D01*
X0Y488D02*
X7Y488D01*
X1475Y488D02*
X1482Y488D01*
X0Y487D02*
X7Y487D01*
X1475Y487D02*
X1482Y487D01*
X0Y486D02*
X7Y486D01*
X1475Y486D02*
X1482Y486D01*
X0Y485D02*
X7Y485D01*
X1475Y485D02*
X1482Y485D01*
X0Y484D02*
X7Y484D01*
X1475Y484D02*
X1482Y484D01*
X0Y483D02*
X7Y483D01*
X1475Y483D02*
X1482Y483D01*
X0Y482D02*
X7Y482D01*
X1475Y482D02*
X1482Y482D01*
X0Y481D02*
X7Y481D01*
X1475Y481D02*
X1482Y481D01*
X0Y480D02*
X7Y480D01*
X1475Y480D02*
X1482Y480D01*
X0Y479D02*
X7Y479D01*
X1475Y479D02*
X1482Y479D01*
X0Y478D02*
X7Y478D01*
X1475Y478D02*
X1482Y478D01*
X0Y477D02*
X7Y477D01*
X1475Y477D02*
X1482Y477D01*
X0Y476D02*
X7Y476D01*
X1475Y476D02*
X1482Y476D01*
X0Y475D02*
X7Y475D01*
X1475Y475D02*
X1482Y475D01*
X0Y474D02*
X7Y474D01*
X1475Y474D02*
X1482Y474D01*
X0Y473D02*
X7Y473D01*
X1475Y473D02*
X1482Y473D01*
X0Y472D02*
X7Y472D01*
X1475Y472D02*
X1482Y472D01*
X0Y471D02*
X7Y471D01*
X1475Y471D02*
X1482Y471D01*
X0Y470D02*
X7Y470D01*
X1475Y470D02*
X1482Y470D01*
X0Y469D02*
X7Y469D01*
X1475Y469D02*
X1482Y469D01*
X0Y468D02*
X7Y468D01*
X1475Y468D02*
X1482Y468D01*
X0Y467D02*
X7Y467D01*
X1475Y467D02*
X1482Y467D01*
X0Y466D02*
X7Y466D01*
X1475Y466D02*
X1482Y466D01*
X0Y465D02*
X7Y465D01*
X1475Y465D02*
X1482Y465D01*
X0Y464D02*
X7Y464D01*
X1475Y464D02*
X1482Y464D01*
X0Y463D02*
X7Y463D01*
X32Y463D02*
X32Y463D01*
X1475Y463D02*
X1482Y463D01*
X0Y462D02*
X7Y462D01*
X30Y462D02*
X34Y462D01*
X1475Y462D02*
X1482Y462D01*
X0Y461D02*
X7Y461D01*
X29Y461D02*
X35Y461D01*
X1475Y461D02*
X1482Y461D01*
X0Y460D02*
X7Y460D01*
X29Y460D02*
X35Y460D01*
X1475Y460D02*
X1482Y460D01*
X0Y459D02*
X7Y459D01*
X28Y459D02*
X36Y459D01*
X1475Y459D02*
X1482Y459D01*
X0Y458D02*
X7Y458D01*
X28Y458D02*
X36Y458D01*
X1475Y458D02*
X1482Y458D01*
X0Y457D02*
X7Y457D01*
X28Y457D02*
X36Y457D01*
X1475Y457D02*
X1482Y457D01*
X0Y456D02*
X7Y456D01*
X28Y456D02*
X36Y456D01*
X1475Y456D02*
X1482Y456D01*
X0Y455D02*
X7Y455D01*
X28Y455D02*
X36Y455D01*
X1475Y455D02*
X1482Y455D01*
X0Y454D02*
X7Y454D01*
X28Y454D02*
X36Y454D01*
X47Y454D02*
X51Y454D01*
X1475Y454D02*
X1482Y454D01*
X0Y453D02*
X7Y453D01*
X28Y453D02*
X36Y453D01*
X46Y453D02*
X52Y453D01*
X1475Y453D02*
X1482Y453D01*
X0Y452D02*
X7Y452D01*
X28Y452D02*
X36Y452D01*
X46Y452D02*
X53Y452D01*
X1475Y452D02*
X1482Y452D01*
X0Y451D02*
X7Y451D01*
X28Y451D02*
X36Y451D01*
X46Y451D02*
X53Y451D01*
X1475Y451D02*
X1482Y451D01*
X0Y450D02*
X7Y450D01*
X28Y450D02*
X36Y450D01*
X46Y450D02*
X53Y450D01*
X1475Y450D02*
X1482Y450D01*
X0Y449D02*
X7Y449D01*
X28Y449D02*
X36Y449D01*
X46Y449D02*
X53Y449D01*
X1475Y449D02*
X1482Y449D01*
X0Y448D02*
X7Y448D01*
X29Y448D02*
X36Y448D01*
X46Y448D02*
X53Y448D01*
X1475Y448D02*
X1482Y448D01*
X0Y447D02*
X7Y447D01*
X29Y447D02*
X36Y447D01*
X46Y447D02*
X53Y447D01*
X1475Y447D02*
X1482Y447D01*
X0Y446D02*
X7Y446D01*
X29Y446D02*
X37Y446D01*
X46Y446D02*
X53Y446D01*
X1282Y446D02*
X1283Y446D01*
X1475Y446D02*
X1482Y446D01*
X0Y445D02*
X7Y445D01*
X29Y445D02*
X37Y445D01*
X46Y445D02*
X53Y445D01*
X1281Y445D02*
X1284Y445D01*
X1475Y445D02*
X1482Y445D01*
X0Y444D02*
X7Y444D01*
X29Y444D02*
X38Y444D01*
X46Y444D02*
X53Y444D01*
X1280Y444D02*
X1285Y444D01*
X1475Y444D02*
X1482Y444D01*
X0Y443D02*
X7Y443D01*
X30Y443D02*
X41Y443D01*
X45Y443D02*
X53Y443D01*
X1279Y443D02*
X1285Y443D01*
X1475Y443D02*
X1482Y443D01*
X0Y442D02*
X7Y442D01*
X30Y442D02*
X89Y442D01*
X1278Y442D02*
X1284Y442D01*
X1475Y442D02*
X1482Y442D01*
X0Y441D02*
X7Y441D01*
X31Y441D02*
X90Y441D01*
X1278Y441D02*
X1283Y441D01*
X1475Y441D02*
X1482Y441D01*
X0Y440D02*
X7Y440D01*
X32Y440D02*
X91Y440D01*
X1278Y440D02*
X1282Y440D01*
X1475Y440D02*
X1482Y440D01*
X0Y439D02*
X7Y439D01*
X33Y439D02*
X91Y439D01*
X1278Y439D02*
X1281Y439D01*
X1475Y439D02*
X1482Y439D01*
X0Y438D02*
X7Y438D01*
X34Y438D02*
X91Y438D01*
X1278Y438D02*
X1280Y438D01*
X1475Y438D02*
X1482Y438D01*
X0Y437D02*
X7Y437D01*
X35Y437D02*
X91Y437D01*
X1278Y437D02*
X1279Y437D01*
X1475Y437D02*
X1482Y437D01*
X0Y436D02*
X7Y436D01*
X37Y436D02*
X90Y436D01*
X1278Y436D02*
X1278Y436D01*
X1475Y436D02*
X1482Y436D01*
X0Y435D02*
X7Y435D01*
X40Y435D02*
X88Y435D01*
X1475Y435D02*
X1482Y435D01*
X0Y434D02*
X7Y434D01*
X46Y434D02*
X53Y434D01*
X1475Y434D02*
X1482Y434D01*
X0Y433D02*
X7Y433D01*
X46Y433D02*
X53Y433D01*
X1475Y433D02*
X1482Y433D01*
X0Y432D02*
X7Y432D01*
X46Y432D02*
X53Y432D01*
X1475Y432D02*
X1482Y432D01*
X0Y431D02*
X7Y431D01*
X46Y431D02*
X53Y431D01*
X1475Y431D02*
X1482Y431D01*
X0Y430D02*
X7Y430D01*
X46Y430D02*
X53Y430D01*
X1475Y430D02*
X1482Y430D01*
X0Y429D02*
X7Y429D01*
X46Y429D02*
X53Y429D01*
X1475Y429D02*
X1482Y429D01*
X0Y428D02*
X7Y428D01*
X47Y428D02*
X52Y428D01*
X1475Y428D02*
X1482Y428D01*
X0Y427D02*
X7Y427D01*
X48Y427D02*
X51Y427D01*
X1475Y427D02*
X1482Y427D01*
X0Y426D02*
X7Y426D01*
X1475Y426D02*
X1482Y426D01*
X0Y425D02*
X7Y425D01*
X1475Y425D02*
X1482Y425D01*
X0Y424D02*
X7Y424D01*
X1475Y424D02*
X1482Y424D01*
X0Y423D02*
X7Y423D01*
X1475Y423D02*
X1482Y423D01*
X0Y422D02*
X7Y422D01*
X1475Y422D02*
X1482Y422D01*
X0Y421D02*
X7Y421D01*
X1475Y421D02*
X1482Y421D01*
X0Y420D02*
X7Y420D01*
X1475Y420D02*
X1482Y420D01*
X0Y419D02*
X7Y419D01*
X1475Y419D02*
X1482Y419D01*
X0Y418D02*
X7Y418D01*
X1475Y418D02*
X1482Y418D01*
X0Y417D02*
X7Y417D01*
X1475Y417D02*
X1482Y417D01*
X0Y416D02*
X7Y416D01*
X1252Y416D02*
X1258Y416D01*
X1475Y416D02*
X1482Y416D01*
X0Y415D02*
X7Y415D01*
X1251Y415D02*
X1257Y415D01*
X1475Y415D02*
X1482Y415D01*
X0Y414D02*
X7Y414D01*
X1250Y414D02*
X1256Y414D01*
X1475Y414D02*
X1482Y414D01*
X0Y413D02*
X7Y413D01*
X1249Y413D02*
X1255Y413D01*
X1475Y413D02*
X1482Y413D01*
X0Y412D02*
X7Y412D01*
X1248Y412D02*
X1254Y412D01*
X1475Y412D02*
X1482Y412D01*
X0Y411D02*
X7Y411D01*
X1249Y411D02*
X1253Y411D01*
X1475Y411D02*
X1482Y411D01*
X0Y410D02*
X7Y410D01*
X1250Y410D02*
X1252Y410D01*
X1475Y410D02*
X1482Y410D01*
X0Y409D02*
X7Y409D01*
X1251Y409D02*
X1251Y409D01*
X1475Y409D02*
X1482Y409D01*
X0Y408D02*
X7Y408D01*
X1475Y408D02*
X1482Y408D01*
X0Y407D02*
X7Y407D01*
X1475Y407D02*
X1482Y407D01*
X0Y406D02*
X7Y406D01*
X1475Y406D02*
X1482Y406D01*
X0Y405D02*
X7Y405D01*
X1475Y405D02*
X1482Y405D01*
X0Y404D02*
X7Y404D01*
X1475Y404D02*
X1482Y404D01*
X0Y403D02*
X7Y403D01*
X1475Y403D02*
X1482Y403D01*
X0Y402D02*
X7Y402D01*
X87Y402D02*
X88Y402D01*
X1475Y402D02*
X1482Y402D01*
X0Y401D02*
X7Y401D01*
X85Y401D02*
X90Y401D01*
X1475Y401D02*
X1482Y401D01*
X0Y400D02*
X7Y400D01*
X84Y400D02*
X90Y400D01*
X1475Y400D02*
X1482Y400D01*
X0Y399D02*
X7Y399D01*
X84Y399D02*
X91Y399D01*
X1475Y399D02*
X1482Y399D01*
X0Y398D02*
X7Y398D01*
X84Y398D02*
X91Y398D01*
X1475Y398D02*
X1482Y398D01*
X0Y397D02*
X7Y397D01*
X84Y397D02*
X91Y397D01*
X1475Y397D02*
X1482Y397D01*
X0Y396D02*
X7Y396D01*
X84Y396D02*
X91Y396D01*
X1475Y396D02*
X1482Y396D01*
X0Y395D02*
X7Y395D01*
X84Y395D02*
X91Y395D01*
X1475Y395D02*
X1482Y395D01*
X0Y394D02*
X7Y394D01*
X84Y394D02*
X91Y394D01*
X1475Y394D02*
X1482Y394D01*
X0Y393D02*
X7Y393D01*
X84Y393D02*
X91Y393D01*
X1475Y393D02*
X1482Y393D01*
X0Y392D02*
X7Y392D01*
X84Y392D02*
X91Y392D01*
X1475Y392D02*
X1482Y392D01*
X0Y391D02*
X7Y391D01*
X84Y391D02*
X91Y391D01*
X1475Y391D02*
X1482Y391D01*
X0Y390D02*
X7Y390D01*
X32Y390D02*
X91Y390D01*
X1475Y390D02*
X1482Y390D01*
X0Y389D02*
X7Y389D01*
X30Y389D02*
X91Y389D01*
X1475Y389D02*
X1482Y389D01*
X0Y388D02*
X7Y388D01*
X29Y388D02*
X91Y388D01*
X1475Y388D02*
X1482Y388D01*
X0Y387D02*
X7Y387D01*
X29Y387D02*
X91Y387D01*
X1475Y387D02*
X1482Y387D01*
X0Y386D02*
X7Y386D01*
X28Y386D02*
X91Y386D01*
X1475Y386D02*
X1482Y386D01*
X0Y385D02*
X7Y385D01*
X28Y385D02*
X91Y385D01*
X1475Y385D02*
X1482Y385D01*
X0Y384D02*
X7Y384D01*
X28Y384D02*
X91Y384D01*
X1475Y384D02*
X1482Y384D01*
X0Y383D02*
X7Y383D01*
X28Y383D02*
X91Y383D01*
X1475Y383D02*
X1482Y383D01*
X0Y382D02*
X7Y382D01*
X28Y382D02*
X91Y382D01*
X1475Y382D02*
X1482Y382D01*
X0Y381D02*
X7Y381D01*
X28Y381D02*
X36Y381D01*
X84Y381D02*
X91Y381D01*
X1475Y381D02*
X1482Y381D01*
X0Y380D02*
X7Y380D01*
X28Y380D02*
X36Y380D01*
X84Y380D02*
X91Y380D01*
X1475Y380D02*
X1482Y380D01*
X0Y379D02*
X7Y379D01*
X28Y379D02*
X36Y379D01*
X84Y379D02*
X91Y379D01*
X1475Y379D02*
X1482Y379D01*
X0Y378D02*
X7Y378D01*
X28Y378D02*
X36Y378D01*
X84Y378D02*
X91Y378D01*
X1475Y378D02*
X1482Y378D01*
X0Y377D02*
X7Y377D01*
X28Y377D02*
X36Y377D01*
X84Y377D02*
X91Y377D01*
X1475Y377D02*
X1482Y377D01*
X0Y376D02*
X7Y376D01*
X28Y376D02*
X36Y376D01*
X84Y376D02*
X91Y376D01*
X1475Y376D02*
X1482Y376D01*
X0Y375D02*
X7Y375D01*
X28Y375D02*
X36Y375D01*
X84Y375D02*
X91Y375D01*
X1475Y375D02*
X1482Y375D01*
X0Y374D02*
X7Y374D01*
X28Y374D02*
X36Y374D01*
X84Y374D02*
X91Y374D01*
X1475Y374D02*
X1482Y374D01*
X0Y373D02*
X7Y373D01*
X29Y373D02*
X35Y373D01*
X84Y373D02*
X91Y373D01*
X1475Y373D02*
X1482Y373D01*
X0Y372D02*
X7Y372D01*
X29Y372D02*
X35Y372D01*
X84Y372D02*
X91Y372D01*
X1475Y372D02*
X1482Y372D01*
X0Y371D02*
X7Y371D01*
X30Y371D02*
X34Y371D01*
X85Y371D02*
X90Y371D01*
X1475Y371D02*
X1482Y371D01*
X0Y370D02*
X7Y370D01*
X31Y370D02*
X33Y370D01*
X86Y370D02*
X88Y370D01*
X1475Y370D02*
X1482Y370D01*
X0Y369D02*
X7Y369D01*
X1475Y369D02*
X1482Y369D01*
X0Y368D02*
X7Y368D01*
X1475Y368D02*
X1482Y368D01*
X0Y367D02*
X7Y367D01*
X1475Y367D02*
X1482Y367D01*
X0Y366D02*
X7Y366D01*
X1475Y366D02*
X1482Y366D01*
X0Y365D02*
X7Y365D01*
X1475Y365D02*
X1482Y365D01*
X0Y364D02*
X7Y364D01*
X1475Y364D02*
X1482Y364D01*
X0Y363D02*
X7Y363D01*
X1475Y363D02*
X1482Y363D01*
X0Y362D02*
X7Y362D01*
X1475Y362D02*
X1482Y362D01*
X0Y361D02*
X7Y361D01*
X1475Y361D02*
X1482Y361D01*
X0Y360D02*
X7Y360D01*
X1475Y360D02*
X1482Y360D01*
X0Y359D02*
X7Y359D01*
X1475Y359D02*
X1482Y359D01*
X0Y358D02*
X7Y358D01*
X1475Y358D02*
X1482Y358D01*
X0Y357D02*
X7Y357D01*
X1475Y357D02*
X1482Y357D01*
X0Y356D02*
X7Y356D01*
X1475Y356D02*
X1482Y356D01*
X0Y355D02*
X7Y355D01*
X1475Y355D02*
X1482Y355D01*
X0Y354D02*
X7Y354D01*
X1475Y354D02*
X1482Y354D01*
X0Y353D02*
X7Y353D01*
X1475Y353D02*
X1482Y353D01*
X0Y352D02*
X7Y352D01*
X1475Y352D02*
X1482Y352D01*
X0Y351D02*
X7Y351D01*
X1475Y351D02*
X1482Y351D01*
X0Y350D02*
X7Y350D01*
X1475Y350D02*
X1482Y350D01*
X0Y349D02*
X7Y349D01*
X1475Y349D02*
X1482Y349D01*
X0Y348D02*
X7Y348D01*
X1475Y348D02*
X1482Y348D01*
X0Y347D02*
X7Y347D01*
X58Y347D02*
X79Y347D01*
X1475Y347D02*
X1482Y347D01*
X0Y346D02*
X7Y346D01*
X55Y346D02*
X82Y346D01*
X1475Y346D02*
X1482Y346D01*
X0Y345D02*
X7Y345D01*
X53Y345D02*
X83Y345D01*
X1475Y345D02*
X1482Y345D01*
X0Y344D02*
X7Y344D01*
X52Y344D02*
X84Y344D01*
X1475Y344D02*
X1482Y344D01*
X0Y343D02*
X7Y343D01*
X51Y343D02*
X85Y343D01*
X1475Y343D02*
X1482Y343D01*
X0Y342D02*
X7Y342D01*
X50Y342D02*
X86Y342D01*
X1475Y342D02*
X1482Y342D01*
X0Y341D02*
X7Y341D01*
X49Y341D02*
X87Y341D01*
X1475Y341D02*
X1482Y341D01*
X0Y340D02*
X7Y340D01*
X49Y340D02*
X88Y340D01*
X1475Y340D02*
X1482Y340D01*
X0Y339D02*
X7Y339D01*
X48Y339D02*
X59Y339D01*
X78Y339D02*
X89Y339D01*
X1475Y339D02*
X1482Y339D01*
X0Y338D02*
X7Y338D01*
X47Y338D02*
X57Y338D01*
X80Y338D02*
X89Y338D01*
X1475Y338D02*
X1482Y338D01*
X0Y337D02*
X7Y337D01*
X47Y337D02*
X56Y337D01*
X81Y337D02*
X90Y337D01*
X1475Y337D02*
X1482Y337D01*
X0Y336D02*
X7Y336D01*
X46Y336D02*
X55Y336D01*
X82Y336D02*
X90Y336D01*
X1475Y336D02*
X1482Y336D01*
X0Y335D02*
X7Y335D01*
X46Y335D02*
X54Y335D01*
X83Y335D02*
X91Y335D01*
X1475Y335D02*
X1482Y335D01*
X0Y334D02*
X7Y334D01*
X46Y334D02*
X53Y334D01*
X83Y334D02*
X91Y334D01*
X1475Y334D02*
X1482Y334D01*
X0Y333D02*
X7Y333D01*
X46Y333D02*
X53Y333D01*
X84Y333D02*
X91Y333D01*
X1475Y333D02*
X1482Y333D01*
X0Y332D02*
X7Y332D01*
X46Y332D02*
X53Y332D01*
X84Y332D02*
X91Y332D01*
X1475Y332D02*
X1482Y332D01*
X0Y331D02*
X7Y331D01*
X46Y331D02*
X53Y331D01*
X84Y331D02*
X91Y331D01*
X1475Y331D02*
X1482Y331D01*
X0Y330D02*
X7Y330D01*
X46Y330D02*
X53Y330D01*
X84Y330D02*
X91Y330D01*
X1475Y330D02*
X1482Y330D01*
X0Y329D02*
X7Y329D01*
X46Y329D02*
X53Y329D01*
X84Y329D02*
X91Y329D01*
X1475Y329D02*
X1482Y329D01*
X0Y328D02*
X7Y328D01*
X46Y328D02*
X53Y328D01*
X84Y328D02*
X91Y328D01*
X1475Y328D02*
X1482Y328D01*
X0Y327D02*
X7Y327D01*
X46Y327D02*
X53Y327D01*
X84Y327D02*
X91Y327D01*
X1475Y327D02*
X1482Y327D01*
X0Y326D02*
X7Y326D01*
X46Y326D02*
X53Y326D01*
X84Y326D02*
X91Y326D01*
X1475Y326D02*
X1482Y326D01*
X0Y325D02*
X7Y325D01*
X46Y325D02*
X53Y325D01*
X84Y325D02*
X91Y325D01*
X1475Y325D02*
X1482Y325D01*
X0Y324D02*
X7Y324D01*
X46Y324D02*
X53Y324D01*
X84Y324D02*
X91Y324D01*
X1475Y324D02*
X1482Y324D01*
X0Y323D02*
X7Y323D01*
X46Y323D02*
X53Y323D01*
X84Y323D02*
X91Y323D01*
X1475Y323D02*
X1482Y323D01*
X0Y322D02*
X7Y322D01*
X46Y322D02*
X53Y322D01*
X84Y322D02*
X91Y322D01*
X1475Y322D02*
X1482Y322D01*
X0Y321D02*
X7Y321D01*
X46Y321D02*
X53Y321D01*
X84Y321D02*
X91Y321D01*
X1475Y321D02*
X1482Y321D01*
X0Y320D02*
X7Y320D01*
X46Y320D02*
X53Y320D01*
X83Y320D02*
X91Y320D01*
X1475Y320D02*
X1482Y320D01*
X0Y319D02*
X7Y319D01*
X46Y319D02*
X54Y319D01*
X83Y319D02*
X91Y319D01*
X1475Y319D02*
X1482Y319D01*
X0Y318D02*
X7Y318D01*
X46Y318D02*
X55Y318D01*
X82Y318D02*
X90Y318D01*
X1475Y318D02*
X1482Y318D01*
X0Y317D02*
X7Y317D01*
X47Y317D02*
X56Y317D01*
X81Y317D02*
X90Y317D01*
X1475Y317D02*
X1482Y317D01*
X0Y316D02*
X7Y316D01*
X47Y316D02*
X57Y316D01*
X80Y316D02*
X89Y316D01*
X1475Y316D02*
X1482Y316D01*
X0Y315D02*
X7Y315D01*
X48Y315D02*
X59Y315D01*
X78Y315D02*
X89Y315D01*
X1475Y315D02*
X1482Y315D01*
X0Y314D02*
X7Y314D01*
X49Y314D02*
X88Y314D01*
X1475Y314D02*
X1482Y314D01*
X0Y313D02*
X7Y313D01*
X49Y313D02*
X87Y313D01*
X1475Y313D02*
X1482Y313D01*
X0Y312D02*
X7Y312D01*
X50Y312D02*
X86Y312D01*
X1475Y312D02*
X1482Y312D01*
X0Y311D02*
X7Y311D01*
X51Y311D02*
X86Y311D01*
X1475Y311D02*
X1482Y311D01*
X0Y310D02*
X7Y310D01*
X52Y310D02*
X85Y310D01*
X1475Y310D02*
X1482Y310D01*
X0Y309D02*
X7Y309D01*
X53Y309D02*
X83Y309D01*
X1475Y309D02*
X1482Y309D01*
X0Y308D02*
X7Y308D01*
X55Y308D02*
X82Y308D01*
X1475Y308D02*
X1482Y308D01*
X0Y307D02*
X7Y307D01*
X58Y307D02*
X79Y307D01*
X1475Y307D02*
X1482Y307D01*
X0Y306D02*
X7Y306D01*
X1475Y306D02*
X1482Y306D01*
X0Y305D02*
X7Y305D01*
X1475Y305D02*
X1482Y305D01*
X0Y304D02*
X7Y304D01*
X1475Y304D02*
X1482Y304D01*
X0Y303D02*
X7Y303D01*
X1475Y303D02*
X1482Y303D01*
X0Y302D02*
X7Y302D01*
X1475Y302D02*
X1482Y302D01*
X0Y301D02*
X7Y301D01*
X1475Y301D02*
X1482Y301D01*
X0Y300D02*
X7Y300D01*
X1475Y300D02*
X1482Y300D01*
X0Y299D02*
X7Y299D01*
X1475Y299D02*
X1482Y299D01*
X0Y298D02*
X7Y298D01*
X1475Y298D02*
X1482Y298D01*
X0Y297D02*
X7Y297D01*
X1475Y297D02*
X1482Y297D01*
X0Y296D02*
X7Y296D01*
X1475Y296D02*
X1482Y296D01*
X0Y295D02*
X7Y295D01*
X1475Y295D02*
X1482Y295D01*
X0Y294D02*
X7Y294D01*
X1475Y294D02*
X1482Y294D01*
X0Y293D02*
X7Y293D01*
X1475Y293D02*
X1482Y293D01*
X0Y292D02*
X7Y292D01*
X1475Y292D02*
X1482Y292D01*
X0Y291D02*
X7Y291D01*
X1475Y291D02*
X1482Y291D01*
X0Y290D02*
X7Y290D01*
X1475Y290D02*
X1482Y290D01*
X0Y289D02*
X7Y289D01*
X49Y289D02*
X54Y289D01*
X1475Y289D02*
X1482Y289D01*
X0Y288D02*
X7Y288D01*
X47Y288D02*
X75Y288D01*
X1475Y288D02*
X1482Y288D01*
X0Y287D02*
X7Y287D01*
X46Y287D02*
X78Y287D01*
X1475Y287D02*
X1482Y287D01*
X0Y286D02*
X7Y286D01*
X46Y286D02*
X82Y286D01*
X1475Y286D02*
X1482Y286D01*
X0Y285D02*
X7Y285D01*
X46Y285D02*
X85Y285D01*
X1475Y285D02*
X1482Y285D01*
X0Y284D02*
X7Y284D01*
X46Y284D02*
X88Y284D01*
X1475Y284D02*
X1482Y284D01*
X0Y283D02*
X7Y283D01*
X46Y283D02*
X90Y283D01*
X1475Y283D02*
X1482Y283D01*
X0Y282D02*
X7Y282D01*
X47Y282D02*
X90Y282D01*
X1475Y282D02*
X1482Y282D01*
X0Y281D02*
X7Y281D01*
X49Y281D02*
X91Y281D01*
X1475Y281D02*
X1482Y281D01*
X0Y280D02*
X7Y280D01*
X74Y280D02*
X91Y280D01*
X1475Y280D02*
X1482Y280D01*
X0Y279D02*
X7Y279D01*
X77Y279D02*
X91Y279D01*
X1475Y279D02*
X1482Y279D01*
X0Y278D02*
X7Y278D01*
X81Y278D02*
X91Y278D01*
X1475Y278D02*
X1482Y278D01*
X0Y277D02*
X7Y277D01*
X81Y277D02*
X91Y277D01*
X1475Y277D02*
X1482Y277D01*
X0Y276D02*
X7Y276D01*
X80Y276D02*
X91Y276D01*
X1475Y276D02*
X1482Y276D01*
X0Y275D02*
X7Y275D01*
X78Y275D02*
X91Y275D01*
X1475Y275D02*
X1482Y275D01*
X0Y274D02*
X7Y274D01*
X76Y274D02*
X90Y274D01*
X1475Y274D02*
X1482Y274D01*
X0Y273D02*
X7Y273D01*
X74Y273D02*
X90Y273D01*
X1475Y273D02*
X1482Y273D01*
X0Y272D02*
X7Y272D01*
X63Y272D02*
X88Y272D01*
X1475Y272D02*
X1482Y272D01*
X0Y271D02*
X7Y271D01*
X61Y271D02*
X86Y271D01*
X1475Y271D02*
X1482Y271D01*
X0Y270D02*
X7Y270D01*
X60Y270D02*
X85Y270D01*
X1475Y270D02*
X1482Y270D01*
X0Y269D02*
X7Y269D01*
X60Y269D02*
X83Y269D01*
X1475Y269D02*
X1482Y269D01*
X0Y268D02*
X7Y268D01*
X60Y268D02*
X82Y268D01*
X1475Y268D02*
X1482Y268D01*
X0Y267D02*
X7Y267D01*
X60Y267D02*
X83Y267D01*
X1475Y267D02*
X1482Y267D01*
X0Y266D02*
X7Y266D01*
X60Y266D02*
X85Y266D01*
X1475Y266D02*
X1482Y266D01*
X0Y265D02*
X7Y265D01*
X61Y265D02*
X86Y265D01*
X1475Y265D02*
X1482Y265D01*
X0Y264D02*
X7Y264D01*
X63Y264D02*
X88Y264D01*
X1475Y264D02*
X1482Y264D01*
X0Y263D02*
X7Y263D01*
X74Y263D02*
X90Y263D01*
X1475Y263D02*
X1482Y263D01*
X0Y262D02*
X7Y262D01*
X76Y262D02*
X90Y262D01*
X1475Y262D02*
X1482Y262D01*
X0Y261D02*
X7Y261D01*
X78Y261D02*
X91Y261D01*
X1475Y261D02*
X1482Y261D01*
X0Y260D02*
X7Y260D01*
X80Y260D02*
X91Y260D01*
X1475Y260D02*
X1482Y260D01*
X0Y259D02*
X7Y259D01*
X81Y259D02*
X91Y259D01*
X1475Y259D02*
X1482Y259D01*
X0Y258D02*
X7Y258D01*
X80Y258D02*
X91Y258D01*
X1475Y258D02*
X1482Y258D01*
X0Y257D02*
X7Y257D01*
X77Y257D02*
X91Y257D01*
X1475Y257D02*
X1482Y257D01*
X0Y256D02*
X7Y256D01*
X74Y256D02*
X91Y256D01*
X1475Y256D02*
X1482Y256D01*
X0Y255D02*
X7Y255D01*
X49Y255D02*
X91Y255D01*
X1475Y255D02*
X1482Y255D01*
X0Y254D02*
X7Y254D01*
X47Y254D02*
X90Y254D01*
X1475Y254D02*
X1482Y254D01*
X0Y253D02*
X7Y253D01*
X46Y253D02*
X90Y253D01*
X1475Y253D02*
X1482Y253D01*
X0Y252D02*
X7Y252D01*
X46Y252D02*
X88Y252D01*
X1475Y252D02*
X1482Y252D01*
X0Y251D02*
X7Y251D01*
X46Y251D02*
X85Y251D01*
X1475Y251D02*
X1482Y251D01*
X0Y250D02*
X7Y250D01*
X46Y250D02*
X81Y250D01*
X1475Y250D02*
X1482Y250D01*
X0Y249D02*
X7Y249D01*
X46Y249D02*
X78Y249D01*
X1475Y249D02*
X1482Y249D01*
X0Y248D02*
X7Y248D01*
X47Y248D02*
X74Y248D01*
X1475Y248D02*
X1482Y248D01*
X0Y247D02*
X7Y247D01*
X49Y247D02*
X53Y247D01*
X1475Y247D02*
X1482Y247D01*
X0Y246D02*
X7Y246D01*
X1475Y246D02*
X1482Y246D01*
X0Y245D02*
X7Y245D01*
X1475Y245D02*
X1482Y245D01*
X0Y244D02*
X7Y244D01*
X1475Y244D02*
X1482Y244D01*
X0Y243D02*
X7Y243D01*
X1475Y243D02*
X1482Y243D01*
X0Y242D02*
X7Y242D01*
X1475Y242D02*
X1482Y242D01*
X0Y241D02*
X7Y241D01*
X1475Y241D02*
X1482Y241D01*
X0Y240D02*
X7Y240D01*
X1475Y240D02*
X1482Y240D01*
X0Y239D02*
X7Y239D01*
X1475Y239D02*
X1482Y239D01*
X0Y238D02*
X7Y238D01*
X1475Y238D02*
X1482Y238D01*
X0Y237D02*
X7Y237D01*
X1475Y237D02*
X1482Y237D01*
X0Y236D02*
X7Y236D01*
X1475Y236D02*
X1482Y236D01*
X0Y235D02*
X7Y235D01*
X1475Y235D02*
X1482Y235D01*
X0Y234D02*
X7Y234D01*
X1475Y234D02*
X1482Y234D01*
X0Y233D02*
X7Y233D01*
X1475Y233D02*
X1482Y233D01*
X0Y232D02*
X7Y232D01*
X1475Y232D02*
X1482Y232D01*
X0Y231D02*
X7Y231D01*
X1475Y231D02*
X1482Y231D01*
X0Y230D02*
X7Y230D01*
X1475Y230D02*
X1482Y230D01*
X0Y229D02*
X7Y229D01*
X31Y229D02*
X89Y229D01*
X1475Y229D02*
X1482Y229D01*
X0Y228D02*
X7Y228D01*
X30Y228D02*
X90Y228D01*
X1475Y228D02*
X1482Y228D01*
X0Y227D02*
X7Y227D01*
X29Y227D02*
X91Y227D01*
X1475Y227D02*
X1482Y227D01*
X0Y226D02*
X7Y226D01*
X29Y226D02*
X91Y226D01*
X1475Y226D02*
X1482Y226D01*
X0Y225D02*
X7Y225D01*
X28Y225D02*
X91Y225D01*
X1475Y225D02*
X1482Y225D01*
X0Y224D02*
X7Y224D01*
X29Y224D02*
X91Y224D01*
X1475Y224D02*
X1482Y224D01*
X0Y223D02*
X7Y223D01*
X29Y223D02*
X90Y223D01*
X1475Y223D02*
X1482Y223D01*
X0Y222D02*
X7Y222D01*
X30Y222D02*
X89Y222D01*
X1475Y222D02*
X1482Y222D01*
X0Y221D02*
X7Y221D01*
X51Y221D02*
X62Y221D01*
X75Y221D02*
X86Y221D01*
X1475Y221D02*
X1482Y221D01*
X0Y220D02*
X7Y220D01*
X50Y220D02*
X60Y220D01*
X76Y220D02*
X87Y220D01*
X1475Y220D02*
X1482Y220D01*
X0Y219D02*
X7Y219D01*
X49Y219D02*
X59Y219D01*
X77Y219D02*
X87Y219D01*
X1475Y219D02*
X1482Y219D01*
X0Y218D02*
X7Y218D01*
X49Y218D02*
X58Y218D01*
X78Y218D02*
X88Y218D01*
X1475Y218D02*
X1482Y218D01*
X0Y217D02*
X7Y217D01*
X48Y217D02*
X58Y217D01*
X79Y217D02*
X89Y217D01*
X1475Y217D02*
X1482Y217D01*
X0Y216D02*
X7Y216D01*
X47Y216D02*
X57Y216D01*
X80Y216D02*
X90Y216D01*
X1475Y216D02*
X1482Y216D01*
X0Y215D02*
X7Y215D01*
X47Y215D02*
X56Y215D01*
X81Y215D02*
X90Y215D01*
X1475Y215D02*
X1482Y215D01*
X0Y214D02*
X7Y214D01*
X46Y214D02*
X55Y214D01*
X82Y214D02*
X90Y214D01*
X1475Y214D02*
X1482Y214D01*
X0Y213D02*
X7Y213D01*
X46Y213D02*
X54Y213D01*
X83Y213D02*
X91Y213D01*
X1475Y213D02*
X1482Y213D01*
X0Y212D02*
X7Y212D01*
X46Y212D02*
X53Y212D01*
X83Y212D02*
X91Y212D01*
X1475Y212D02*
X1482Y212D01*
X0Y211D02*
X7Y211D01*
X46Y211D02*
X53Y211D01*
X84Y211D02*
X91Y211D01*
X1475Y211D02*
X1482Y211D01*
X0Y210D02*
X7Y210D01*
X46Y210D02*
X53Y210D01*
X84Y210D02*
X91Y210D01*
X1475Y210D02*
X1482Y210D01*
X0Y209D02*
X7Y209D01*
X46Y209D02*
X53Y209D01*
X84Y209D02*
X91Y209D01*
X1475Y209D02*
X1482Y209D01*
X0Y208D02*
X7Y208D01*
X46Y208D02*
X53Y208D01*
X84Y208D02*
X91Y208D01*
X1475Y208D02*
X1482Y208D01*
X0Y207D02*
X7Y207D01*
X46Y207D02*
X53Y207D01*
X84Y207D02*
X91Y207D01*
X1475Y207D02*
X1482Y207D01*
X0Y206D02*
X7Y206D01*
X46Y206D02*
X53Y206D01*
X84Y206D02*
X91Y206D01*
X1475Y206D02*
X1482Y206D01*
X0Y205D02*
X7Y205D01*
X46Y205D02*
X53Y205D01*
X84Y205D02*
X91Y205D01*
X1475Y205D02*
X1482Y205D01*
X0Y204D02*
X7Y204D01*
X46Y204D02*
X53Y204D01*
X84Y204D02*
X91Y204D01*
X1475Y204D02*
X1482Y204D01*
X0Y203D02*
X7Y203D01*
X46Y203D02*
X53Y203D01*
X84Y203D02*
X91Y203D01*
X1475Y203D02*
X1482Y203D01*
X0Y202D02*
X7Y202D01*
X46Y202D02*
X53Y202D01*
X83Y202D02*
X91Y202D01*
X1475Y202D02*
X1482Y202D01*
X0Y201D02*
X7Y201D01*
X46Y201D02*
X54Y201D01*
X82Y201D02*
X91Y201D01*
X1475Y201D02*
X1482Y201D01*
X0Y200D02*
X7Y200D01*
X46Y200D02*
X55Y200D01*
X82Y200D02*
X90Y200D01*
X1475Y200D02*
X1482Y200D01*
X0Y199D02*
X7Y199D01*
X47Y199D02*
X56Y199D01*
X81Y199D02*
X90Y199D01*
X1475Y199D02*
X1482Y199D01*
X0Y198D02*
X7Y198D01*
X47Y198D02*
X57Y198D01*
X80Y198D02*
X89Y198D01*
X1475Y198D02*
X1482Y198D01*
X0Y197D02*
X7Y197D01*
X48Y197D02*
X89Y197D01*
X1475Y197D02*
X1482Y197D01*
X0Y196D02*
X7Y196D01*
X49Y196D02*
X88Y196D01*
X1475Y196D02*
X1482Y196D01*
X0Y195D02*
X7Y195D01*
X49Y195D02*
X87Y195D01*
X1475Y195D02*
X1482Y195D01*
X0Y194D02*
X7Y194D01*
X50Y194D02*
X86Y194D01*
X1475Y194D02*
X1482Y194D01*
X0Y193D02*
X7Y193D01*
X51Y193D02*
X85Y193D01*
X1475Y193D02*
X1482Y193D01*
X0Y192D02*
X7Y192D01*
X52Y192D02*
X84Y192D01*
X1475Y192D02*
X1482Y192D01*
X0Y191D02*
X7Y191D01*
X54Y191D02*
X83Y191D01*
X1475Y191D02*
X1482Y191D01*
X0Y190D02*
X7Y190D01*
X55Y190D02*
X82Y190D01*
X1475Y190D02*
X1482Y190D01*
X0Y189D02*
X7Y189D01*
X58Y189D02*
X78Y189D01*
X1475Y189D02*
X1482Y189D01*
X0Y188D02*
X7Y188D01*
X1475Y188D02*
X1482Y188D01*
X0Y187D02*
X7Y187D01*
X1475Y187D02*
X1482Y187D01*
X0Y186D02*
X7Y186D01*
X1475Y186D02*
X1482Y186D01*
X0Y185D02*
X7Y185D01*
X1475Y185D02*
X1482Y185D01*
X0Y184D02*
X7Y184D01*
X1475Y184D02*
X1482Y184D01*
X0Y183D02*
X7Y183D01*
X1475Y183D02*
X1482Y183D01*
X0Y182D02*
X7Y182D01*
X1475Y182D02*
X1482Y182D01*
X0Y181D02*
X7Y181D01*
X1475Y181D02*
X1482Y181D01*
X0Y180D02*
X7Y180D01*
X1475Y180D02*
X1482Y180D01*
X0Y179D02*
X7Y179D01*
X1475Y179D02*
X1482Y179D01*
X0Y178D02*
X7Y178D01*
X1475Y178D02*
X1482Y178D01*
X0Y177D02*
X7Y177D01*
X1475Y177D02*
X1482Y177D01*
X0Y176D02*
X7Y176D01*
X1475Y176D02*
X1482Y176D01*
X0Y175D02*
X7Y175D01*
X1475Y175D02*
X1482Y175D01*
X0Y174D02*
X7Y174D01*
X1475Y174D02*
X1482Y174D01*
X0Y173D02*
X7Y173D01*
X1475Y173D02*
X1482Y173D01*
X0Y172D02*
X7Y172D01*
X1475Y172D02*
X1482Y172D01*
X0Y171D02*
X7Y171D01*
X1475Y171D02*
X1482Y171D01*
X0Y170D02*
X7Y170D01*
X74Y170D02*
X89Y170D01*
X1475Y170D02*
X1482Y170D01*
X0Y169D02*
X7Y169D01*
X55Y169D02*
X90Y169D01*
X1475Y169D02*
X1482Y169D01*
X0Y168D02*
X7Y168D01*
X52Y168D02*
X91Y168D01*
X1475Y168D02*
X1482Y168D01*
X0Y167D02*
X7Y167D01*
X51Y167D02*
X91Y167D01*
X1475Y167D02*
X1482Y167D01*
X0Y166D02*
X7Y166D01*
X49Y166D02*
X91Y166D01*
X1475Y166D02*
X1482Y166D01*
X0Y165D02*
X7Y165D01*
X49Y165D02*
X91Y165D01*
X1475Y165D02*
X1482Y165D01*
X0Y164D02*
X7Y164D01*
X48Y164D02*
X90Y164D01*
X1475Y164D02*
X1482Y164D01*
X0Y163D02*
X7Y163D01*
X47Y163D02*
X89Y163D01*
X1475Y163D02*
X1482Y163D01*
X0Y162D02*
X7Y162D01*
X47Y162D02*
X87Y162D01*
X1475Y162D02*
X1482Y162D01*
X0Y161D02*
X7Y161D01*
X46Y161D02*
X57Y161D01*
X63Y161D02*
X72Y161D01*
X79Y161D02*
X88Y161D01*
X1475Y161D02*
X1482Y161D01*
X0Y160D02*
X7Y160D01*
X46Y160D02*
X54Y160D01*
X63Y160D02*
X71Y160D01*
X80Y160D02*
X88Y160D01*
X1475Y160D02*
X1482Y160D01*
X0Y159D02*
X7Y159D01*
X46Y159D02*
X53Y159D01*
X63Y159D02*
X70Y159D01*
X80Y159D02*
X89Y159D01*
X1475Y159D02*
X1482Y159D01*
X0Y158D02*
X7Y158D01*
X46Y158D02*
X53Y158D01*
X63Y158D02*
X70Y158D01*
X81Y158D02*
X89Y158D01*
X1475Y158D02*
X1482Y158D01*
X0Y157D02*
X7Y157D01*
X46Y157D02*
X53Y157D01*
X63Y157D02*
X70Y157D01*
X81Y157D02*
X90Y157D01*
X1475Y157D02*
X1482Y157D01*
X0Y156D02*
X7Y156D01*
X46Y156D02*
X53Y156D01*
X63Y156D02*
X70Y156D01*
X82Y156D02*
X91Y156D01*
X1475Y156D02*
X1482Y156D01*
X0Y155D02*
X7Y155D01*
X46Y155D02*
X53Y155D01*
X63Y155D02*
X70Y155D01*
X83Y155D02*
X91Y155D01*
X1475Y155D02*
X1482Y155D01*
X0Y154D02*
X7Y154D01*
X46Y154D02*
X53Y154D01*
X63Y154D02*
X70Y154D01*
X83Y154D02*
X91Y154D01*
X1475Y154D02*
X1482Y154D01*
X0Y153D02*
X7Y153D01*
X46Y153D02*
X53Y153D01*
X63Y153D02*
X70Y153D01*
X84Y153D02*
X91Y153D01*
X1475Y153D02*
X1482Y153D01*
X0Y152D02*
X7Y152D01*
X46Y152D02*
X53Y152D01*
X63Y152D02*
X70Y152D01*
X84Y152D02*
X91Y152D01*
X1475Y152D02*
X1482Y152D01*
X0Y151D02*
X7Y151D01*
X46Y151D02*
X53Y151D01*
X63Y151D02*
X70Y151D01*
X84Y151D02*
X91Y151D01*
X1475Y151D02*
X1482Y151D01*
X0Y150D02*
X7Y150D01*
X46Y150D02*
X53Y150D01*
X63Y150D02*
X70Y150D01*
X84Y150D02*
X91Y150D01*
X1475Y150D02*
X1482Y150D01*
X0Y149D02*
X7Y149D01*
X46Y149D02*
X53Y149D01*
X63Y149D02*
X70Y149D01*
X84Y149D02*
X91Y149D01*
X1475Y149D02*
X1482Y149D01*
X0Y148D02*
X7Y148D01*
X46Y148D02*
X53Y148D01*
X63Y148D02*
X70Y148D01*
X84Y148D02*
X91Y148D01*
X1475Y148D02*
X1482Y148D01*
X0Y147D02*
X7Y147D01*
X46Y147D02*
X53Y147D01*
X63Y147D02*
X70Y147D01*
X84Y147D02*
X91Y147D01*
X1475Y147D02*
X1482Y147D01*
X0Y146D02*
X7Y146D01*
X46Y146D02*
X53Y146D01*
X63Y146D02*
X70Y146D01*
X84Y146D02*
X91Y146D01*
X1475Y146D02*
X1482Y146D01*
X0Y145D02*
X7Y145D01*
X46Y145D02*
X53Y145D01*
X63Y145D02*
X70Y145D01*
X84Y145D02*
X91Y145D01*
X1475Y145D02*
X1482Y145D01*
X0Y144D02*
X7Y144D01*
X46Y144D02*
X53Y144D01*
X63Y144D02*
X70Y144D01*
X84Y144D02*
X91Y144D01*
X1475Y144D02*
X1482Y144D01*
X0Y143D02*
X7Y143D01*
X46Y143D02*
X53Y143D01*
X63Y143D02*
X70Y143D01*
X84Y143D02*
X91Y143D01*
X1475Y143D02*
X1482Y143D01*
X0Y142D02*
X7Y142D01*
X46Y142D02*
X53Y142D01*
X63Y142D02*
X70Y142D01*
X84Y142D02*
X91Y142D01*
X1475Y142D02*
X1482Y142D01*
X0Y141D02*
X7Y141D01*
X46Y141D02*
X53Y141D01*
X63Y141D02*
X70Y141D01*
X84Y141D02*
X91Y141D01*
X1475Y141D02*
X1482Y141D01*
X0Y140D02*
X7Y140D01*
X46Y140D02*
X52Y140D01*
X63Y140D02*
X71Y140D01*
X83Y140D02*
X91Y140D01*
X1475Y140D02*
X1482Y140D01*
X0Y139D02*
X7Y139D01*
X47Y139D02*
X52Y139D01*
X63Y139D02*
X72Y139D01*
X82Y139D02*
X91Y139D01*
X1475Y139D02*
X1482Y139D01*
X0Y138D02*
X7Y138D01*
X64Y138D02*
X90Y138D01*
X1475Y138D02*
X1482Y138D01*
X0Y137D02*
X7Y137D01*
X64Y137D02*
X90Y137D01*
X1475Y137D02*
X1482Y137D01*
X0Y136D02*
X7Y136D01*
X65Y136D02*
X89Y136D01*
X1475Y136D02*
X1482Y136D01*
X0Y135D02*
X7Y135D01*
X65Y135D02*
X89Y135D01*
X1475Y135D02*
X1482Y135D01*
X0Y134D02*
X7Y134D01*
X66Y134D02*
X88Y134D01*
X1475Y134D02*
X1482Y134D01*
X0Y133D02*
X7Y133D01*
X67Y133D02*
X87Y133D01*
X1475Y133D02*
X1482Y133D01*
X0Y132D02*
X7Y132D01*
X68Y132D02*
X86Y132D01*
X1475Y132D02*
X1482Y132D01*
X0Y131D02*
X7Y131D01*
X70Y131D02*
X84Y131D01*
X1475Y131D02*
X1482Y131D01*
X0Y130D02*
X7Y130D01*
X74Y130D02*
X80Y130D01*
X1475Y130D02*
X1482Y130D01*
X0Y129D02*
X7Y129D01*
X1475Y129D02*
X1482Y129D01*
X0Y128D02*
X7Y128D01*
X1475Y128D02*
X1482Y128D01*
X0Y127D02*
X7Y127D01*
X1475Y127D02*
X1482Y127D01*
X0Y126D02*
X7Y126D01*
X1475Y126D02*
X1482Y126D01*
X0Y125D02*
X7Y125D01*
X1475Y125D02*
X1482Y125D01*
X0Y124D02*
X7Y124D01*
X1475Y124D02*
X1482Y124D01*
X0Y123D02*
X7Y123D01*
X1475Y123D02*
X1482Y123D01*
X0Y122D02*
X7Y122D01*
X1475Y122D02*
X1482Y122D01*
X0Y121D02*
X7Y121D01*
X1475Y121D02*
X1482Y121D01*
X0Y120D02*
X7Y120D01*
X1475Y120D02*
X1482Y120D01*
X0Y119D02*
X7Y119D01*
X1475Y119D02*
X1482Y119D01*
X0Y118D02*
X7Y118D01*
X1475Y118D02*
X1482Y118D01*
X0Y117D02*
X7Y117D01*
X1475Y117D02*
X1482Y117D01*
X0Y116D02*
X7Y116D01*
X1475Y116D02*
X1482Y116D01*
X0Y115D02*
X7Y115D01*
X1475Y115D02*
X1482Y115D01*
X0Y114D02*
X7Y114D01*
X1475Y114D02*
X1482Y114D01*
X0Y113D02*
X7Y113D01*
X1475Y113D02*
X1482Y113D01*
X0Y112D02*
X7Y112D01*
X1475Y112D02*
X1482Y112D01*
X0Y111D02*
X7Y111D01*
X57Y111D02*
X80Y111D01*
X1475Y111D02*
X1482Y111D01*
X0Y110D02*
X7Y110D01*
X55Y110D02*
X82Y110D01*
X1475Y110D02*
X1482Y110D01*
X0Y109D02*
X7Y109D01*
X53Y109D02*
X83Y109D01*
X1475Y109D02*
X1482Y109D01*
X0Y108D02*
X7Y108D01*
X52Y108D02*
X85Y108D01*
X1475Y108D02*
X1482Y108D01*
X0Y107D02*
X7Y107D01*
X51Y107D02*
X86Y107D01*
X1475Y107D02*
X1482Y107D01*
X0Y106D02*
X7Y106D01*
X50Y106D02*
X87Y106D01*
X1475Y106D02*
X1482Y106D01*
X0Y105D02*
X7Y105D01*
X49Y105D02*
X87Y105D01*
X1475Y105D02*
X1482Y105D01*
X0Y104D02*
X7Y104D01*
X48Y104D02*
X88Y104D01*
X1475Y104D02*
X1482Y104D01*
X0Y103D02*
X7Y103D01*
X48Y103D02*
X58Y103D01*
X79Y103D02*
X89Y103D01*
X1475Y103D02*
X1482Y103D01*
X0Y102D02*
X7Y102D01*
X47Y102D02*
X57Y102D01*
X80Y102D02*
X90Y102D01*
X1475Y102D02*
X1482Y102D01*
X0Y101D02*
X7Y101D01*
X47Y101D02*
X56Y101D01*
X81Y101D02*
X90Y101D01*
X1475Y101D02*
X1482Y101D01*
X0Y100D02*
X7Y100D01*
X46Y100D02*
X55Y100D01*
X82Y100D02*
X90Y100D01*
X1475Y100D02*
X1482Y100D01*
X0Y99D02*
X7Y99D01*
X46Y99D02*
X54Y99D01*
X83Y99D02*
X91Y99D01*
X1475Y99D02*
X1482Y99D01*
X0Y98D02*
X7Y98D01*
X46Y98D02*
X53Y98D01*
X83Y98D02*
X91Y98D01*
X1475Y98D02*
X1482Y98D01*
X0Y97D02*
X7Y97D01*
X46Y97D02*
X53Y97D01*
X84Y97D02*
X91Y97D01*
X1475Y97D02*
X1482Y97D01*
X0Y96D02*
X7Y96D01*
X46Y96D02*
X53Y96D01*
X84Y96D02*
X91Y96D01*
X1475Y96D02*
X1482Y96D01*
X0Y95D02*
X7Y95D01*
X46Y95D02*
X53Y95D01*
X84Y95D02*
X91Y95D01*
X1475Y95D02*
X1482Y95D01*
X0Y94D02*
X7Y94D01*
X46Y94D02*
X53Y94D01*
X84Y94D02*
X91Y94D01*
X1475Y94D02*
X1482Y94D01*
X0Y93D02*
X7Y93D01*
X46Y93D02*
X53Y93D01*
X84Y93D02*
X91Y93D01*
X1475Y93D02*
X1482Y93D01*
X0Y92D02*
X7Y92D01*
X46Y92D02*
X53Y92D01*
X84Y92D02*
X91Y92D01*
X1475Y92D02*
X1482Y92D01*
X0Y91D02*
X7Y91D01*
X46Y91D02*
X53Y91D01*
X84Y91D02*
X91Y91D01*
X1475Y91D02*
X1482Y91D01*
X0Y90D02*
X7Y90D01*
X46Y90D02*
X53Y90D01*
X84Y90D02*
X91Y90D01*
X1475Y90D02*
X1482Y90D01*
X0Y89D02*
X7Y89D01*
X46Y89D02*
X53Y89D01*
X84Y89D02*
X91Y89D01*
X1475Y89D02*
X1482Y89D01*
X0Y88D02*
X7Y88D01*
X46Y88D02*
X54Y88D01*
X83Y88D02*
X91Y88D01*
X1475Y88D02*
X1482Y88D01*
X0Y87D02*
X7Y87D01*
X46Y87D02*
X54Y87D01*
X82Y87D02*
X91Y87D01*
X1475Y87D02*
X1482Y87D01*
X0Y86D02*
X7Y86D01*
X47Y86D02*
X55Y86D01*
X81Y86D02*
X90Y86D01*
X1475Y86D02*
X1482Y86D01*
X0Y85D02*
X7Y85D01*
X47Y85D02*
X56Y85D01*
X81Y85D02*
X90Y85D01*
X1475Y85D02*
X1482Y85D01*
X0Y84D02*
X7Y84D01*
X47Y84D02*
X57Y84D01*
X80Y84D02*
X89Y84D01*
X1475Y84D02*
X1482Y84D01*
X0Y83D02*
X7Y83D01*
X48Y83D02*
X58Y83D01*
X79Y83D02*
X89Y83D01*
X1475Y83D02*
X1482Y83D01*
X0Y82D02*
X7Y82D01*
X49Y82D02*
X59Y82D01*
X78Y82D02*
X88Y82D01*
X1475Y82D02*
X1482Y82D01*
X0Y81D02*
X7Y81D01*
X49Y81D02*
X60Y81D01*
X77Y81D02*
X87Y81D01*
X1475Y81D02*
X1482Y81D01*
X0Y80D02*
X7Y80D01*
X50Y80D02*
X61Y80D01*
X76Y80D02*
X86Y80D01*
X1475Y80D02*
X1482Y80D01*
X0Y79D02*
X7Y79D01*
X32Y79D02*
X88Y79D01*
X1475Y79D02*
X1482Y79D01*
X0Y78D02*
X7Y78D01*
X30Y78D02*
X90Y78D01*
X1475Y78D02*
X1482Y78D01*
X0Y77D02*
X7Y77D01*
X29Y77D02*
X90Y77D01*
X1475Y77D02*
X1482Y77D01*
X0Y76D02*
X7Y76D01*
X29Y76D02*
X91Y76D01*
X1475Y76D02*
X1482Y76D01*
X0Y75D02*
X7Y75D01*
X28Y75D02*
X91Y75D01*
X1475Y75D02*
X1482Y75D01*
X0Y74D02*
X7Y74D01*
X29Y74D02*
X91Y74D01*
X1475Y74D02*
X1482Y74D01*
X0Y73D02*
X7Y73D01*
X29Y73D02*
X90Y73D01*
X1475Y73D02*
X1482Y73D01*
X0Y72D02*
X7Y72D01*
X30Y72D02*
X90Y72D01*
X1475Y72D02*
X1482Y72D01*
X0Y71D02*
X7Y71D01*
X32Y71D02*
X87Y71D01*
X1475Y71D02*
X1482Y71D01*
X0Y70D02*
X7Y70D01*
X1475Y70D02*
X1482Y70D01*
X0Y69D02*
X7Y69D01*
X1475Y69D02*
X1482Y69D01*
X0Y68D02*
X7Y68D01*
X1475Y68D02*
X1482Y68D01*
X0Y67D02*
X7Y67D01*
X1475Y67D02*
X1482Y67D01*
X0Y66D02*
X7Y66D01*
X1475Y66D02*
X1482Y66D01*
X0Y65D02*
X7Y65D01*
X1475Y65D02*
X1482Y65D01*
X0Y64D02*
X7Y64D01*
X1475Y64D02*
X1482Y64D01*
X0Y63D02*
X7Y63D01*
X1475Y63D02*
X1482Y63D01*
X0Y62D02*
X7Y62D01*
X1475Y62D02*
X1482Y62D01*
X0Y61D02*
X7Y61D01*
X1475Y61D02*
X1482Y61D01*
X0Y60D02*
X7Y60D01*
X1475Y60D02*
X1482Y60D01*
X0Y59D02*
X7Y59D01*
X1475Y59D02*
X1482Y59D01*
X0Y58D02*
X7Y58D01*
X1475Y58D02*
X1482Y58D01*
X0Y57D02*
X7Y57D01*
X1475Y57D02*
X1482Y57D01*
X0Y56D02*
X7Y56D01*
X1475Y56D02*
X1482Y56D01*
X0Y55D02*
X7Y55D01*
X1475Y55D02*
X1482Y55D01*
X0Y54D02*
X7Y54D01*
X1475Y54D02*
X1482Y54D01*
X0Y53D02*
X7Y53D01*
X1475Y53D02*
X1482Y53D01*
X0Y52D02*
X7Y52D01*
X1475Y52D02*
X1482Y52D01*
X0Y51D02*
X7Y51D01*
X1475Y51D02*
X1482Y51D01*
X0Y50D02*
X7Y50D01*
X1475Y50D02*
X1482Y50D01*
X0Y49D02*
X7Y49D01*
X1475Y49D02*
X1482Y49D01*
X0Y48D02*
X7Y48D01*
X1475Y48D02*
X1482Y48D01*
X0Y47D02*
X7Y47D01*
X1475Y47D02*
X1482Y47D01*
X0Y46D02*
X7Y46D01*
X1475Y46D02*
X1482Y46D01*
X0Y45D02*
X7Y45D01*
X1475Y45D02*
X1482Y45D01*
X0Y44D02*
X7Y44D01*
X1475Y44D02*
X1482Y44D01*
X0Y43D02*
X7Y43D01*
X1475Y43D02*
X1482Y43D01*
X0Y42D02*
X7Y42D01*
X1475Y42D02*
X1482Y42D01*
X0Y41D02*
X7Y41D01*
X1475Y41D02*
X1482Y41D01*
X0Y40D02*
X7Y40D01*
X1475Y40D02*
X1482Y40D01*
X0Y39D02*
X7Y39D01*
X1475Y39D02*
X1482Y39D01*
X0Y38D02*
X7Y38D01*
X1475Y38D02*
X1482Y38D01*
X0Y37D02*
X7Y37D01*
X1475Y37D02*
X1482Y37D01*
X0Y36D02*
X7Y36D01*
X1475Y36D02*
X1482Y36D01*
X0Y35D02*
X7Y35D01*
X1475Y35D02*
X1482Y35D01*
X0Y34D02*
X7Y34D01*
X1475Y34D02*
X1482Y34D01*
X0Y33D02*
X7Y33D01*
X1475Y33D02*
X1482Y33D01*
X0Y32D02*
X7Y32D01*
X1475Y32D02*
X1482Y32D01*
X0Y31D02*
X7Y31D01*
X1475Y31D02*
X1482Y31D01*
X0Y30D02*
X7Y30D01*
X1475Y30D02*
X1482Y30D01*
X0Y29D02*
X7Y29D01*
X1475Y29D02*
X1482Y29D01*
X0Y28D02*
X7Y28D01*
X1475Y28D02*
X1482Y28D01*
X0Y27D02*
X7Y27D01*
X1475Y27D02*
X1482Y27D01*
X0Y26D02*
X7Y26D01*
X1475Y26D02*
X1482Y26D01*
X0Y25D02*
X7Y25D01*
X1475Y25D02*
X1482Y25D01*
X0Y24D02*
X7Y24D01*
X1475Y24D02*
X1482Y24D01*
X0Y23D02*
X7Y23D01*
X1475Y23D02*
X1482Y23D01*
X0Y22D02*
X7Y22D01*
X1475Y22D02*
X1482Y22D01*
X0Y21D02*
X7Y21D01*
X1475Y21D02*
X1482Y21D01*
X0Y20D02*
X7Y20D01*
X1475Y20D02*
X1482Y20D01*
X0Y19D02*
X7Y19D01*
X1475Y19D02*
X1482Y19D01*
X0Y18D02*
X7Y18D01*
X1475Y18D02*
X1482Y18D01*
X0Y17D02*
X7Y17D01*
X1475Y17D02*
X1482Y17D01*
X0Y16D02*
X7Y16D01*
X1475Y16D02*
X1482Y16D01*
X0Y15D02*
X7Y15D01*
X1475Y15D02*
X1482Y15D01*
X0Y14D02*
X7Y14D01*
X1475Y14D02*
X1482Y14D01*
X0Y13D02*
X7Y13D01*
X1475Y13D02*
X1482Y13D01*
X0Y12D02*
X7Y12D01*
X1475Y12D02*
X1482Y12D01*
X0Y11D02*
X7Y11D01*
X1475Y11D02*
X1482Y11D01*
X0Y10D02*
X7Y10D01*
X1475Y10D02*
X1482Y10D01*
X0Y9D02*
X1482Y9D01*
X0Y8D02*
X1482Y8D01*
X0Y7D02*
X1482Y7D01*
X0Y6D02*
X1482Y6D01*
X0Y5D02*
X1482Y5D01*
X0Y4D02*
X1482Y4D01*
X0Y3D02*
X1482Y3D01*
X0Y2D02*
X1482Y2D01*
D02*
G04 End of Silk1*
M02*