G04 MADE WITH FRITZING*
G04 WWW.FRITZING.ORG*
G04 DOUBLE SIDED*
G04 HOLES PLATED*
G04 CONTOUR ON CENTER OF CONTOUR VECTOR*
%ASAXBY*%
%FSLAX23Y23*%
%MOIN*%
%OFA0B0*%
%SFA1.0B1.0*%
%ADD10C,0.049370*%
%ADD11C,0.085722*%
%ADD12C,0.085695*%
%ADD13C,0.088000*%
%ADD14C,0.085000*%
%ADD15R,0.088000X0.088000*%
%ADD16R,0.085000X0.085000*%
%LNMASK0*%
G90*
G70*
G54D10*
X235Y1259D03*
X635Y1659D03*
X35Y959D03*
X1435Y1259D03*
X335Y59D03*
X1135Y359D03*
X935Y959D03*
X235Y959D03*
X535Y1159D03*
X335Y1059D03*
X380Y862D03*
G54D11*
X135Y1559D03*
G54D12*
X235Y1559D03*
X335Y1559D03*
X435Y1559D03*
X535Y1559D03*
G54D11*
X635Y1559D03*
X735Y1559D03*
G54D12*
X835Y1559D03*
X935Y1559D03*
X1035Y1559D03*
X1135Y1559D03*
G54D11*
X1235Y1559D03*
G54D12*
X1335Y1559D03*
G54D11*
X135Y1459D03*
X234Y1459D03*
G54D12*
X335Y1459D03*
X435Y1459D03*
X535Y1459D03*
G54D11*
X635Y1459D03*
G54D12*
X735Y1459D03*
X835Y1459D03*
X935Y1459D03*
X1035Y1459D03*
X1135Y1459D03*
G54D11*
X1235Y1459D03*
G54D12*
X1335Y1459D03*
G54D13*
X1235Y459D03*
X1235Y559D03*
X1235Y659D03*
X1235Y759D03*
X1235Y859D03*
X1235Y959D03*
G54D14*
X535Y959D03*
X835Y959D03*
X535Y859D03*
X835Y859D03*
X535Y759D03*
X835Y759D03*
X535Y659D03*
X835Y659D03*
X535Y559D03*
X835Y559D03*
X535Y459D03*
X835Y459D03*
X535Y359D03*
X835Y359D03*
X535Y259D03*
X835Y259D03*
G54D15*
X1235Y459D03*
G54D16*
X535Y959D03*
G04 End of Mask0*
M02*