; NON-PLATED HOLES START AT T1
; THROUGH (PLATED) HOLES START AT T100
M48
INCH
T100C0.015748
T101C0.035000
T102C0.041000
T103C0.038000
T104C0.040972
%
T100
X000351Y009588
X002351Y012588
X011352Y003587
X009351Y009588
X006351Y016588
X002351Y009588
X005351Y011588
X003796Y008615
X014351Y012588
X003351Y000587
X003351Y010588
T101
X008351Y009587
X008351Y003587
X005351Y005588
X005351Y006588
X008351Y004588
X005351Y007587
X008351Y005588
X005351Y008587
X005351Y002587
X008351Y006588
X005351Y009587
X005351Y003587
X008351Y007587
X008351Y008587
X008351Y002587
X005351Y004588
T102
X001351Y014587
X001351Y015587
X012352Y014593
X006351Y014588
X002340Y014587
X007352Y015587
X012352Y015592
X006351Y015587
T103
X012352Y006588
X012352Y004588
X012352Y009588
X012352Y007588
X012352Y005588
X012352Y008588
T104
X004351Y015587
X005351Y015587
X011352Y014593
X007351Y014588
X010352Y014588
X008351Y014588
X011352Y015592
X010352Y015587
X008351Y015587
X013352Y014593
X009351Y014588
X003351Y014588
X013352Y015592
X009351Y015587
X002351Y015587
X003351Y015587
X004351Y014588
X005351Y014588
T00
M30
