G04 MADE WITH FRITZING*
G04 WWW.FRITZING.ORG*
G04 DOUBLE SIDED*
G04 HOLES PLATED*
G04 CONTOUR ON CENTER OF CONTOUR VECTOR*
%ASAXBY*%
%FSLAX23Y23*%
%MOIN*%
%OFA0B0*%
%SFA1.0B1.0*%
%ADD10C,0.039370*%
%ADD11C,0.075722*%
%ADD12C,0.075695*%
%ADD13C,0.078000*%
%ADD14C,0.075000*%
%ADD15R,0.078000X0.078000*%
%ADD16R,0.075000X0.075000*%
%ADD17C,0.024000*%
%LNCOPPER0*%
G90*
G70*
G54D10*
X235Y1259D03*
X635Y1659D03*
X35Y959D03*
X1435Y1259D03*
X335Y59D03*
X1135Y359D03*
X935Y959D03*
X235Y959D03*
X535Y1159D03*
X335Y1059D03*
X380Y862D03*
G54D11*
X135Y1559D03*
G54D12*
X235Y1559D03*
X335Y1559D03*
X435Y1559D03*
X535Y1559D03*
G54D11*
X635Y1559D03*
X735Y1559D03*
G54D12*
X835Y1559D03*
X935Y1559D03*
X1035Y1559D03*
X1135Y1559D03*
G54D11*
X1235Y1559D03*
G54D12*
X1335Y1559D03*
G54D11*
X135Y1459D03*
X234Y1459D03*
G54D12*
X335Y1459D03*
X435Y1459D03*
X535Y1459D03*
G54D11*
X635Y1459D03*
G54D12*
X735Y1459D03*
X835Y1459D03*
X935Y1459D03*
X1035Y1459D03*
X1135Y1459D03*
G54D11*
X1235Y1459D03*
G54D12*
X1335Y1459D03*
G54D13*
X1235Y459D03*
X1235Y559D03*
X1235Y659D03*
X1235Y759D03*
X1235Y859D03*
X1235Y959D03*
G54D14*
X535Y959D03*
X835Y959D03*
X535Y859D03*
X835Y859D03*
X535Y759D03*
X835Y759D03*
X535Y659D03*
X835Y659D03*
X535Y559D03*
X835Y559D03*
X535Y459D03*
X835Y459D03*
X535Y359D03*
X835Y359D03*
X535Y259D03*
X835Y259D03*
G54D15*
X1235Y459D03*
G54D16*
X535Y959D03*
G54D17*
X864Y859D02*
X1035Y859D01*
D02*
X435Y659D02*
X380Y867D01*
D02*
X380Y867D02*
X380Y881D01*
D02*
X507Y659D02*
X435Y659D01*
D02*
X616Y1659D02*
X35Y1659D01*
D02*
X35Y1659D02*
X35Y978D01*
D02*
X354Y59D02*
X1335Y59D01*
D02*
X1335Y59D02*
X1335Y859D01*
D02*
X1335Y859D02*
X1265Y859D01*
D02*
X635Y459D02*
X807Y459D01*
D02*
X1135Y340D02*
X1135Y159D01*
D02*
X1135Y159D02*
X635Y159D01*
D02*
X635Y159D02*
X635Y459D01*
D02*
X1135Y759D02*
X864Y759D01*
D02*
X1135Y959D02*
X1135Y759D01*
D02*
X1205Y959D02*
X1135Y959D01*
D02*
X1435Y1659D02*
X935Y1659D01*
D02*
X935Y1659D02*
X935Y1590D01*
D02*
X1435Y1359D02*
X1435Y1659D01*
D02*
X935Y1359D02*
X1435Y1359D01*
D02*
X935Y978D02*
X935Y1359D01*
D02*
X635Y959D02*
X807Y959D01*
D02*
X635Y1259D02*
X635Y959D01*
D02*
X254Y1259D02*
X635Y1259D01*
D02*
X507Y359D02*
X135Y359D01*
D02*
X135Y359D02*
X135Y1359D01*
D02*
X135Y1359D02*
X635Y1359D01*
D02*
X635Y1359D02*
X635Y1427D01*
D02*
X1035Y859D02*
X1035Y1259D01*
D02*
X1035Y1259D02*
X1416Y1259D01*
D02*
X254Y959D02*
X507Y959D01*
D02*
X352Y1067D02*
X518Y1150D01*
G04 End of Copper0*
M02*